<?xml version="1.0" encoding="UTF-8" standalone="no"?>
<!-- Created with Inkscape (http://www.inkscape.org/) -->

<svg
   xmlns:dc="http://purl.org/dc/elements/1.1/"
   xmlns:cc="http://creativecommons.org/ns#"
   xmlns:rdf="http://www.w3.org/1999/02/22-rdf-syntax-ns#"
   xmlns:svg="http://www.w3.org/2000/svg"
   xmlns="http://www.w3.org/2000/svg"
   xmlns:sodipodi="http://sodipodi.sourceforge.net/DTD/sodipodi-0.dtd"
   xmlns:inkscape="http://www.inkscape.org/namespaces/inkscape"
   id="svg2"
   version="1.1"
   inkscape:version="0.48.3.1 r9886"
   width="191.33875"
   height="191.33875"
   xml:space="preserve"
   sodipodi:docname="aufkl-mini_-rund_50mm.svg"><metadata
     id="metadata8"><rdf:RDF><cc:Work
         rdf:about=""><dc:format>image/svg+xml</dc:format><dc:type
           rdf:resource="http://purl.org/dc/dcmitype/StillImage" /><dc:title></dc:title></cc:Work></rdf:RDF></metadata><defs
     id="defs6"><clipPath
       clipPathUnits="userSpaceOnUse"
       id="clipPath16"><path
         d="m 0,153.071 153.071,0 L 153.071,0 0,0 0,153.071 z"
         id="path18"
         inkscape:connector-curvature="0" /></clipPath><clipPath
       clipPathUnits="userSpaceOnUse"
       id="clipPath24"><path
         d="m 0,153.071 153.071,0 L 153.071,0 0,0 0,153.071 z"
         id="path26"
         inkscape:connector-curvature="0" /></clipPath></defs><sodipodi:namedview
     pagecolor="#ffffff"
     bordercolor="#666666"
     borderopacity="1"
     objecttolerance="10"
     gridtolerance="10"
     guidetolerance="10"
     inkscape:pageopacity="0"
     inkscape:pageshadow="2"
     inkscape:window-width="640"
     inkscape:window-height="480"
     id="namedview4"
     showgrid="false"
     inkscape:zoom="2.6940218"
     inkscape:cx="87.13874"
     inkscape:cy="176.02503"
     inkscape:current-layer="layer2"
     units="mm"
     showguides="true"><sodipodi:guide
       position="0,191.33858"
       orientation="0,191.33858"
       id="guide3137" /><sodipodi:guide
       position="191.33858,191.33858"
       orientation="191.33858,0"
       id="guide3139" /><sodipodi:guide
       position="191.33858,3.828125e-06"
       orientation="0,-191.33858"
       id="guide3141" /><sodipodi:guide
       position="0,3.828125e-06"
       orientation="-191.33858,0"
       id="guide3143" /><sodipodi:guide
       position="7.0866976,184.25207"
       orientation="0,177.16535"
       id="guide3145" /><sodipodi:guide
       position="184.25205,184.25207"
       orientation="177.1654,0"
       id="guide3147" /><sodipodi:guide
       position="184.25205,7.0866738"
       orientation="0,-177.16535"
       id="guide3149" /><sodipodi:guide
       position="7.0866976,7.0866738"
       orientation="-177.1654,-7.9936058e-15"
       id="guide3151" /><sodipodi:guide
       position="21.259921,170.07884"
       orientation="0,148.8189"
       id="guide3153" /><sodipodi:guide
       position="170.07882,170.07884"
       orientation="148.81894,0"
       id="guide3155" /><sodipodi:guide
       position="170.07882,21.259904"
       orientation="0,-148.8189"
       id="guide3157" /><sodipodi:guide
       position="21.259921,21.259904"
       orientation="-148.81894,7.1054274e-15"
       id="guide3159" /></sodipodi:namedview><g
     id="g10"
     inkscape:groupmode="layer"
     inkscape:label="aufkl_mini_rund_5,0"
     transform="matrix(1.25,0,0,-1.25,0,191.33874)"
     style="display:none"
     sodipodi:insensitive="true"><path
       inkscape:connector-curvature="0"
       id="path30"
       style="fill:#f7bab7;fill-opacity:1;fill-rule:nonzero;stroke:none"
       d="m -1.417,154.488 0,-155.905 155.904,0 0,155.905 -155.904,0 0,0 0,-155.905" /><path
       inkscape:connector-curvature="0"
       id="path34"
       style="fill:none;stroke:#ffffff;stroke-width:1;stroke-linecap:butt;stroke-linejoin:miter;stroke-miterlimit:10;stroke-opacity:1;stroke-dasharray:none"
       d="m 76.536,6.169 c -38.868,0 -70.367,31.499 -70.367,70.367 0,38.868 31.499,70.366 70.367,70.366 38.867,0 70.365,-31.498 70.365,-70.366 0,-38.868 -31.498,-70.367 -70.365,-70.367" /><path
       inkscape:connector-curvature="0"
       id="path38"
       style="fill:none;stroke:#009fe3;stroke-width:1;stroke-linecap:butt;stroke-linejoin:miter;stroke-miterlimit:10;stroke-opacity:1;stroke-dasharray:none"
       d="m 76.536,17.508 c -32.604,0 -59.027,26.423 -59.027,59.028 0,32.605 26.423,59.027 59.027,59.027 32.604,0 59.028,-26.422 59.028,-59.027 0,-32.605 -26.424,-59.028 -59.028,-59.028" /><text
       transform="scale(1,-1)"
       id="text40"
       x="46.459"
       y="-98.793999"><tspan
         style="font-size:8px;font-variant:normal;font-weight:normal;writing-mode:lr-tb;fill:#000000;fill-opacity:1;fill-rule:nonzero;stroke:none;font-family:MyriadProBoldCond;-inkscape-font-specification:MyriadProBoldCond"
         x="46.459 50.123001 53.738998 56.027 59.331001 61.131001 64.483002 68.058998 71.411003 73.763 75.035004 80.131004 81.915001 85.579002 87.362999 89.651001 93.098999 95.451004 100.891 104.267"
         y="-98.793999"
         sodipodi:role="line"
         id="tspan42">Aufkleber Miniformat</tspan><tspan
         style="font-size:8px;font-variant:normal;font-weight:normal;writing-mode:lr-tb;fill:#000000;fill-opacity:1;fill-rule:nonzero;stroke:none;font-family:MyriadProBoldCond;-inkscape-font-specification:MyriadProBoldCond"
         x="56.856998 59.209 62.825001 66.488998 70.065002 71.929001 73.201004 77.049004 78.320999 81.729004 83.593002 87.000999 88.273003 90.857002"
         y="-90.793999"
         sodipodi:role="line"
         id="tspan44">rund, Ø 5,0 cm</tspan></text>
<text
       transform="scale(1,-1)"
       id="text46"
       x="36.285"
       y="-53.605999"><tspan
         style="font-size:6px;font-variant:normal;font-weight:normal;writing-mode:lr-tb;fill:#000000;fill-opacity:1;fill-rule:nonzero;stroke:none;font-family:MyriadProBoldCond;-inkscape-font-specification:MyriadProBoldCond"
         x="36.285 38.648998 39.987 41.924999 44.673 47.187 48.951 51.699001 54.213001 55.551003 57.417 59.361 61.893002 64.575005 66.518997 68.385002 70.917 73.665001 76.347 77.301003 79.407005 82.119003 86.199005 87.153 89.516998 92.264999 94.946999 96.663002 99.249001 101.013 105.093 107.625"
         y="-53.605999"
         sodipodi:role="line"
         id="tspan48">Sicherheitsabstand zum Endformat</tspan><tspan
         style="font-size:6px;font-variant:normal;font-weight:normal;writing-mode:lr-tb;fill:#000000;fill-opacity:1;fill-rule:nonzero;stroke:none;font-family:MyriadProBoldCond;-inkscape-font-specification:MyriadProBoldCond"
         x="36.285 38.648998 41.396999 44.078999 45.795002 48.381001 50.145 54.225002 56.757"
         y="-61.528"
         sodipodi:role="line"
         id="tspan50">Endformat</tspan></text>
<path
       inkscape:connector-curvature="0"
       id="path54"
       style="fill:none;stroke:#ffffff;stroke-width:1;stroke-linecap:butt;stroke-linejoin:miter;stroke-miterlimit:10;stroke-opacity:1;stroke-dasharray:none"
       d="m 24.945,63.496 8.504,0" /><path
       inkscape:connector-curvature="0"
       id="path58"
       style="fill:none;stroke:#009fe3;stroke-width:1;stroke-linecap:butt;stroke-linejoin:miter;stroke-miterlimit:10;stroke-opacity:1;stroke-dasharray:none"
       d="m 24.945,54.992 8.504,0" /><path
       inkscape:connector-curvature="0"
       id="path62"
       style="fill:#e30613;fill-opacity:1;fill-rule:nonzero;stroke:none"
       d="m 19.843,79.654 0,-6.236 113.385,0 0,6.236 -113.385,0 0,0 0,-6.236" /><text
       transform="scale(1,-1)"
       id="text64"
       x="24.014"
       y="-75.528"><tspan
         style="font-size:2.70000005px;font-variant:normal;font-weight:bold;writing-mode:lr-tb;fill:#ffffff;fill-opacity:1;fill-rule:nonzero;stroke:none;font-family:MyriadPro;-inkscape-font-specification:MyriadPro-Bold"
         x="24.014 25.7852 27.391701 29.252001 30.7316 32.573002 34.436001 36.277401 36.979401 37.524799 38.904499 40.330101 41.742203 43.300102 44.874203 45.865101 47.296101 48.854 49.880001 50.622501 52.0481 53.627602 55.0532 55.598602 57.172699 58.754898 60.369499 61.795101 63.404301 64.144104 65.726303 67.305801 68.2967 68.842102 70.891403 71.631203 73.056801 74.666 76.091599 77.117599 77.663002 79.0886 80.662704 81.834503 82.379898 83.149399 84.731606 85.757599 87.183205 88.209198 88.754601 90.633797 91.659798 93.233902 94.451599 95.915001 97.5242 98.949799 99.940697 101.3663 102.1061 102.6515 104.0771 105.6593 106.6502 107.5709 108.9965 110.0225 111.6047 113.0303 114.6125"
         y="-75.528"
         sodipodi:role="line"
         id="tspan66">ACHTUNG: Layoutvorlage unbedingt wieder aus Ihrer Druckdatei entfernen!</tspan></text>
</g><g
     inkscape:groupmode="layer"
     id="layer1"
     inkscape:label="XX_REFERENZ"
     style="display:inline"
     transform="translate(0,-8.7109375e-6)"><path
       style="color:#000000;fill:#ffd5d5;fill-opacity:1;fill-rule:nonzero;stroke:none;stroke-width:1;marker:none;visibility:visible;display:inline;overflow:visible;enable-background:accumulate"
       d="m 184.25205,95.669377 c 0,48.922873 -39.65981,88.582673 -88.582672,88.582673 -48.922866,0 -88.5826804,-39.6598 -88.5826804,-88.582673 0,-48.922848 39.6598144,-88.5826774 88.5826804,-88.5826774 48.922862,0 88.582672,39.6598294 88.582672,88.5826774 z"
       id="path3095"
       inkscape:connector-curvature="0" /><path
       inkscape:connector-curvature="0"
       id="path3143"
       d="m 111.61424,255.78751 c 0,25.43989 -20.6231,46.06299 -46.062987,46.06299 -25.439893,0 -46.062996,-20.6231 -46.062996,-46.06299 0,-25.43988 20.623103,-46.06299 46.062996,-46.06299 25.439887,0 46.062987,20.62311 46.062987,46.06299 z"
       style="color:#000000;fill:#d7f4ee;fill-opacity:1;fill-rule:nonzero;stroke:none;stroke-width:1;marker:none;visibility:visible;display:inline;overflow:visible;enable-background:accumulate" /><path
       inkscape:connector-curvature="0"
       id="path3128"
       d="m 170.07882,95.669372 c 0,41.095218 -33.31424,74.409448 -74.409445,74.409448 -41.095209,0 -74.409454,-33.31423 -74.409454,-74.409448 0,-41.09519 33.314245,-74.409448 74.409454,-74.409448 41.095205,0 74.409445,33.314258 74.409445,74.409448 z"
       style="color:#000000;fill:#d7f4ee;fill-opacity:1;fill-rule:nonzero;stroke:none;stroke-width:1;marker:none;visibility:visible;display:inline;overflow:visible;enable-background:accumulate" /></g><g
     inkscape:groupmode="layer"
     id="layer2"
     inkscape:label="XX_COVER"
     style="display:inline"><path
       style="color:#000000;fill:#f2f2f2;fill-opacity:1;fill-rule:nonzero;stroke:none;stroke-width:1;marker:none;visibility:visible;display:inline;overflow:visible;enable-background:accumulate"
       d="m 0,0 0,191.34375 191.34375,0 L 191.34375,0 0,0 z m 95.65625,7.09375 c 48.92286,0 88.59375,39.639652 88.59375,88.5625 0,48.92288 -39.67089,88.59375 -88.59375,88.59375 -48.922866,0 -88.5625,-39.67087 -88.5625,-88.59375 0,-48.922848 39.639634,-88.5625 88.5625,-88.5625 z"
       id="rect3162"
       inkscape:connector-curvature="0" /><path
       style="opacity:0.5;color:#000000;fill:none;stroke:#999999;stroke-width:0.99999982;stroke-linecap:butt;stroke-linejoin:miter;stroke-miterlimit:4;stroke-opacity:1;stroke-dasharray:none;stroke-dashoffset:0;marker:none;visibility:visible;display:inline;overflow:visible;enable-background:accumulate"
       d="m 184.74437,95.669375 c 0,49.197535 -39.88247,89.079995 -89.07999,89.079995 -49.197532,0 -89.0800065,-39.88246 -89.0800065,-89.079995 0,-49.197514 39.8824745,-89.0800029 89.0800065,-89.0800029 49.19752,0 89.07999,39.8824889 89.07999,89.0800029 z"
       id="path3095-8"
       inkscape:connector-curvature="0" /><g
       id="g3233"
       transform="translate(30.118128,-70)"><text
         sodipodi:linespacing="125%"
         id="text4591"
         y="52.110233"
         x="56.373688"
         style="font-size:7.57278013px;font-style:normal;font-variant:normal;font-weight:300;font-stretch:normal;text-align:start;line-height:125%;letter-spacing:0px;word-spacing:0px;writing-mode:lr-tb;text-anchor:start;fill:#000000;fill-opacity:1;stroke:none;display:inline;font-family:Source Code Pro;-inkscape-font-specification:Source Code Pro Light"
         xml:space="preserve"><tspan
           y="52.110233"
           x="56.373688"
           id="tspan4593"
           sodipodi:role="line">50mm</tspan></text>
<g
         transform="translate(0,54.848273)"
         id="g4610"
         style="display:inline"><path
           sodipodi:nodetypes="cccccccccc"
           inkscape:connector-curvature="0"
           d="m 151.42129,-7.135415 1.97787,1.977874 -1.97787,1.977874 m -171.740082,0 -1.977875,-1.977874 1.977875,-1.977874 m -1.996444,1.977874 75.539183,0 m 24.654595,0 75.539188,0"
           style="color:#000000;fill:none;stroke:#000000;stroke-width:0.2;stroke-linecap:butt;stroke-linejoin:bevel;stroke-miterlimit:4;stroke-opacity:1;stroke-dasharray:none;stroke-dashoffset:0;marker:none;visibility:visible;display:inline;overflow:visible;enable-background:accumulate"
           id="path4600" /></g><text
         xml:space="preserve"
         style="font-size:7.57278013px;font-style:normal;font-variant:normal;font-weight:300;font-stretch:normal;text-align:start;line-height:125%;letter-spacing:0px;word-spacing:0px;writing-mode:lr-tb;text-anchor:start;fill:#000000;fill-opacity:1;stroke:none;display:inline;font-family:Source Code Pro;-inkscape-font-specification:Source Code Pro Light"
         x="56.373688"
         y="42.110233"
         id="text4615"
         sodipodi:linespacing="125%"><tspan
           sodipodi:role="line"
           id="tspan4617"
           x="56.373688"
           y="42.110233">54mm</tspan></text>
<path
         sodipodi:nodetypes="cccccccccc"
         inkscape:connector-curvature="0"
         d="m 158.63317,37.712858 1.97787,1.977874 -1.97787,1.977874 m -186.163847,0 -1.977875,-1.977874 1.977875,-1.977874 m 106.621104,1.977874 81.539183,0 m -190.156731,0 81.539183,0"
         style="color:#000000;fill:none;stroke:#000000;stroke-width:0.2;stroke-linecap:butt;stroke-linejoin:bevel;stroke-miterlimit:4;stroke-opacity:1;stroke-dasharray:none;stroke-dashoffset:0;marker:none;visibility:visible;display:inline;overflow:visible;enable-background:accumulate"
         id="path4625" /></g></g></svg>