<?xml version="1.0" encoding="UTF-8" standalone="no"?>
<svg
   xmlns:dc="http://purl.org/dc/elements/1.1/"
   xmlns:cc="http://creativecommons.org/ns#"
   xmlns:rdf="http://www.w3.org/1999/02/22-rdf-syntax-ns#"
   xmlns:svg="http://www.w3.org/2000/svg"
   xmlns="http://www.w3.org/2000/svg"
   xmlns:sodipodi="http://sodipodi.sourceforge.net/DTD/sodipodi-0.dtd"
   xmlns:inkscape="http://www.inkscape.org/namespaces/inkscape"
   id="svg2"
   version="1.1"
   inkscape:version="1.0.2 (e86c870879, 2021-01-15)"
   width="37mm"
   height="37mm"
   xml:space="preserve"
   sodipodi:docname="aufkl-mini-rund_10mm.svg"><metadata
     id="metadata8"><rdf:RDF><cc:Work
         rdf:about=""><dc:format>image/svg+xml</dc:format><dc:type
           rdf:resource="http://purl.org/dc/dcmitype/StillImage" /><dc:title /></cc:Work></rdf:RDF></metadata><defs
     id="defs6" /><sodipodi:namedview
     pagecolor="#ffffff"
     bordercolor="#666666"
     borderopacity="1"
     objecttolerance="10"
     gridtolerance="10"
     guidetolerance="10"
     inkscape:pageopacity="0"
     inkscape:pageshadow="2"
     inkscape:window-width="640"
     inkscape:window-height="480"
     id="namedview4"
     showgrid="false"
     units="mm"
     inkscape:zoom="2.752750235"
     inkscape:cx="71.88742023"
     inkscape:cy="58.23562039"
     inkscape:current-layer="g4690"
     showguides="true"
     inkscape:document-rotation="0"
     inkscape:document-units="mm"><sodipodi:guide
       position="20.7874016,58.58339996"
       orientation="0,37.79527555"
       id="guide223" /><sodipodi:guide
       position="58.58267715,58.58339996"
       orientation="37.79527557,0"
       id="guide225" /><sodipodi:guide
       position="58.58267715,20.78812439"
       orientation="0,-37.79527555"
       id="guide227" /><sodipodi:guide
       position="20.7874016,20.78812439"
       orientation="-37.79527557,0"
       id="guide229" /><sodipodi:guide
       position="28.3464567,51.02434486"
       orientation="0,22.67716536"
       id="guide231" /><sodipodi:guide
       position="51.02362206,51.02434486"
       orientation="22.67716537,0"
       id="guide233" /><sodipodi:guide
       position="51.02362206,28.34717949"
       orientation="0,-22.67716536"
       id="guide235" /><sodipodi:guide
       position="28.3464567,28.34717949"
       orientation="-22.67716537,0"
       id="guide237" /><sodipodi:guide
       position="88.81817484,51.02434486"
       orientation="0,22.67716536"
       id="guide239" /><sodipodi:guide
       position="111.4953402,51.02434486"
       orientation="22.67716537,0"
       id="guide241" /><sodipodi:guide
       position="111.4953402,28.34717949"
       orientation="0,-22.67716536"
       id="guide243" /><sodipodi:guide
       position="88.81817484,28.34717949"
       orientation="-22.67716537,0"
       id="guide245" /><sodipodi:guide
       position="81.25911974,58.58339997"
       orientation="0,37.79527556"
       id="guide247" /><sodipodi:guide
       position="119.0543953,58.58339997"
       orientation="37.79527558,0"
       id="guide249" /><sodipodi:guide
       position="119.0543953,20.78812439"
       orientation="0,-37.79527556"
       id="guide251" /><sodipodi:guide
       position="81.25911974,20.78812439"
       orientation="-37.79527558,0"
       id="guide253" /><sodipodi:guide
       position="88.81817484,111.496063"
       orientation="0,22.67716536"
       id="guide255" /><sodipodi:guide
       position="111.4953402,111.496063"
       orientation="22.67716536,0"
       id="guide257" /><sodipodi:guide
       position="111.4953402,88.81889765"
       orientation="0,-22.67716536"
       id="guide259" /><sodipodi:guide
       position="88.81817484,88.81889765"
       orientation="-22.67716536,0"
       id="guide261" /><sodipodi:guide
       position="81.25911973,119.0551181"
       orientation="0,37.79527557"
       id="guide263" /><sodipodi:guide
       position="119.0543953,119.0551181"
       orientation="37.7952756,0"
       id="guide265" /><sodipodi:guide
       position="119.0543953,81.25984253"
       orientation="0,-37.79527557"
       id="guide267" /><sodipodi:guide
       position="28.34645668,111.496063"
       orientation="0,22.67716535"
       id="guide271" /><sodipodi:guide
       position="51.02362203,111.496063"
       orientation="22.67716536,0"
       id="guide273" /><sodipodi:guide
       position="51.02362203,88.81889765"
       orientation="0,-22.67716535"
       id="guide275" /><sodipodi:guide
       position="28.34645668,88.81889765"
       orientation="-22.67716536,0"
       id="guide277" /><sodipodi:guide
       position="20.78740156,119.0551181"
       orientation="0,37.79527559"
       id="guide279" /><sodipodi:guide
       position="58.58267715,119.0551181"
       orientation="37.7952756,0"
       id="guide281" /><sodipodi:guide
       position="58.58267715,81.25984253"
       orientation="0,-37.79527559"
       id="guide283" /><sodipodi:guide
       position="20.78740156,81.25984253"
       orientation="-37.7952756,0"
       id="guide285" /><sodipodi:guide
       position="0,139.8425197"
       orientation="139.8417969,0"
       id="guide363" /><sodipodi:guide
       position="0,0.0007227850394"
       orientation="0,139.8417969"
       id="guide365" /><sodipodi:guide
       position="139.8417969,0.0007227850394"
       orientation="-139.8417969,0"
       id="guide367" /><sodipodi:guide
       position="139.8417969,139.8425197"
       orientation="0,-139.8417969"
       id="guide369" /></sodipodi:namedview><g
     inkscape:groupmode="layer"
     id="layer1"
     inkscape:label="XX_REFERENZ"
     style="display:inline"
     sodipodi:insensitive="true"><path
       id="path157"
       style="fill:#ffd5d5;stroke:none"
       d="M 58.77521534,39.68503936 A 18.89763779,18.89763779 0 0 1 39.87757756,58.58267715 18.89763779,18.89763779 0 0 1 20.97993976,39.68503936 18.89763779,18.89763779 0 0 1 39.87757756,20.78740157 18.89763779,18.89763779 0 0 1 58.77521534,39.68503936 Z" /><path
       id="path160"
       style="fill:#ffd5d5;stroke:none"
       d="M 100.1567575,58.58267715 A 18.89763779,18.89763779 0 0 1 81.25911975,39.68503937 18.89763779,18.89763779 0 0 1 100.1567575,20.78740157 18.89763779,18.89763779 0 0 1 119.0543953,39.68503937 18.89763779,18.89763779 0 0 1 100.1567575,58.58267715 Z" /><path
       id="path162"
       style="fill:#ffd5d5;stroke:none"
       d="M 81.25911975,100.1567575 A 18.89763779,18.89763779 0 0 1 100.1567575,81.25911975 18.89763779,18.89763779 0 0 1 119.0543953,100.1567575 18.89763779,18.89763779 0 0 1 100.1567575,119.0543953 18.89763779,18.89763779 0 0 1 81.25911975,100.1567575 Z" /><path
       id="path164"
       style="fill:#ffd5d5;stroke:none"
       d="M 39.6850394,81.25911975 A 18.89763779,18.89763779 0 0 1 58.58267715,100.1567575 18.89763779,18.89763779 0 0 1 39.6850394,119.0543953 18.89763779,18.89763779 0 0 1 20.7874016,100.1567575 18.89763779,18.89763779 0 0 1 39.6850394,81.25911975 Z" /><path
       id="path174"
       style="fill:#d7f4ee;fill-opacity:1;stroke:none;stroke-width:1"
       d="M 51.02362204,39.68503936 A 11.33858268,11.33858268 0 0 1 39.68503936,51.02362204 11.33858268,11.33858268 0 0 1 28.34645668,39.68503936 11.33858268,11.33858268 0 0 1 39.68503936,28.34645668 11.33858268,11.33858268 0 0 1 51.02362204,39.68503936 Z" /><path
       id="path176"
       style="fill:#d7f4ee;fill-opacity:1;stroke:none;stroke-width:1"
       d="M 111.4953402,39.68503936 A 11.33858268,11.33858268 0 0 1 100.1567575,51.02362204 11.33858268,11.33858268 0 0 1 88.81817484,39.68503936 11.33858268,11.33858268 0 0 1 100.1567575,28.34645668 11.33858268,11.33858268 0 0 1 111.4953402,39.68503936 Z" /><path
       id="path178"
       style="fill:#d7f4ee;fill-opacity:1;stroke:none;stroke-width:1"
       d="M 111.4953402,100.1567575 A 11.33858268,11.33858268 0 0 1 100.1567575,111.4953402 11.33858268,11.33858268 0 0 1 88.81817484,100.1567575 11.33858268,11.33858268 0 0 1 100.1567575,88.81817484 11.33858268,11.33858268 0 0 1 111.4953402,100.1567575 Z" /><path
       id="path180"
       style="fill:#d7f4ee;fill-opacity:1;stroke:none;stroke-width:1"
       d="M 51.02362205,100.1567575 A 11.33858268,11.33858268 0 0 1 39.68503935,111.4953402 11.33858268,11.33858268 0 0 1 28.34645669,100.1567575 11.33858268,11.33858268 0 0 1 39.68503935,88.81817484 11.33858268,11.33858268 0 0 1 51.02362205,100.1567575 Z" /></g><g
     inkscape:groupmode="layer"
     id="layer3"
     inkscape:label="DRAW"
     style="display:inline" /><g
     style="display:inline"
     inkscape:label="XX_COVER"
     id="g4690"
     inkscape:groupmode="layer"
     sodipodi:insensitive="true"><text
   xml:space="preserve"
   style="font-style:normal;font-variant:normal;font-weight:300;font-stretch:normal;font-size:12.8px;line-height:0%;font-family:'Source Code Pro';-inkscape-font-specification:'Source Code Pro Light';text-align:start;letter-spacing:0px;word-spacing:0px;writing-mode:lr-tb;text-anchor:start;display:inline;fill:#000000;fill-opacity:1;stroke:none;stroke-width:1.06667"
   x="30.13193512"
   y="-8.667751312"
   id="text4591"><tspan
     sodipodi:role="line"
     id="tspan4593"
     x="30.13193512"
     y="-8.667751312"
     style="font-size:8.07763px;line-height:1.25;stroke-width:1.06667">10mm</tspan></text><path
   style="display:inline;fill:none;stroke:#000000;stroke-width:0.213333;stroke-linecap:butt;stroke-linejoin:miter;stroke-miterlimit:4;stroke-dasharray:none;stroke-opacity:1"
   d="M 20.90540443,-11.24855413 H 27.4795328"
   id="path4595" /><path
   sodipodi:nodetypes="ccc"
   inkscape:connector-curvature="0"
   id="rect4597"
   d="m 23.03494469,-9.138821867 -2.10973333,-2.109732263 2.10973333,-2.10973227"
   style="color:#000000;display:inline;overflow:visible;visibility:visible;fill:none;stroke:#000000;stroke-width:0.213333;stroke-linecap:butt;stroke-linejoin:bevel;stroke-miterlimit:4;stroke-dasharray:none;stroke-dashoffset:0;stroke-opacity:1;marker:none;enable-background:accumulate" /><text
   id="text4615"
   y="-19.33441734"
   x="60.13193512"
   style="font-style:normal;font-variant:normal;font-weight:300;font-stretch:normal;font-size:12.8px;line-height:0%;font-family:'Source Code Pro';-inkscape-font-specification:'Source Code Pro Light';text-align:start;letter-spacing:0px;word-spacing:0px;writing-mode:lr-tb;text-anchor:start;display:inline;fill:#000000;fill-opacity:1;stroke:none;stroke-width:1.06667"
   xml:space="preserve"><tspan
     y="-19.33441734"
     x="60.13193512"
     id="tspan4617"
     sodipodi:role="line"
     style="font-size:8.07763px;line-height:1.25;stroke-width:1.06667">37mm</tspan></text><path
   id="path4625"
   style="color:#000000;display:inline;overflow:visible;visibility:visible;fill:none;stroke:#000000;stroke-width:0.213333;stroke-linecap:butt;stroke-linejoin:bevel;stroke-miterlimit:4;stroke-dasharray:none;stroke-dashoffset:0;stroke-opacity:1;marker:none;enable-background:accumulate"
   d="m 137.2087147,-24.0249536 2.109728,2.10973227 -2.109728,2.10973226 m -134.574770167,0 -2.109733333,-2.10973226 2.109733333,-2.10973227 m 81.729177597,2.10973227 h 54.97512857 m -138.8338464333,0 H 55.4795328"
   inkscape:connector-curvature="0"
   sodipodi:nodetypes="cccccccccc" />



<path
   id="path1136"
   style="color:#000000;display:inline;overflow:visible;visibility:visible;fill:#f2f2f2;fill-opacity:1;fill-rule:nonzero;stroke:none;stroke-width:1.06667;marker:none;enable-background:accumulate"
   d="M 0,0 V 139.8417969 H 139.8417969 V 0 Z m 39.609375,20.78710938 a 18.89763779,18.89763779 0 0 1 0.0761719,0 18.89763779,18.89763779 0 0 1 18.89648437,18.8984375 A 18.89763779,18.89763779 0 0 1 39.68554688,58.58203125 18.89763779,18.89763779 0 0 1 20.78710938,39.68554688 18.89763779,18.89763779 0 0 1 39.609375,20.78710938 Z m 60.4726562,0 a 18.89763779,18.89763779 0 0 1 0.074219,0 18.89763779,18.89763779 0 0 1 18.8984375,18.8984375 A 18.89763779,18.89763779 0 0 1 100.15625,58.58203125 18.89763779,18.89763779 0 0 1 81.25976562,39.68554688 18.89763779,18.89763779 0 0 1 100.0820312,20.78710938 Z M 39.609375,81.25976562 a 18.89763779,18.89763779 0 0 1 0.0761719,0 A 18.89763779,18.89763779 0 0 1 58.58203125,100.15625 18.89763779,18.89763779 0 0 1 39.68554688,119.0546875 18.89763779,18.89763779 0 0 1 20.78710938,100.15625 18.89763779,18.89763779 0 0 1 39.609375,81.25976562 Z m 60.4726562,0 a 18.89763779,18.89763779 0 0 1 0.074219,0 A 18.89763779,18.89763779 0 0 1 119.0546875,100.15625 18.89763779,18.89763779 0 0 1 100.15625,119.0546875 18.89763779,18.89763779 0 0 1 81.25976562,100.15625 18.89763779,18.89763779 0 0 1 100.0820312,81.25976562 Z" /><path
   style="display:inline;fill:none;stroke:#000000;stroke-width:0.213333;stroke-linecap:butt;stroke-linejoin:miter;stroke-miterlimit:4;stroke-dasharray:none;stroke-opacity:1"
   d="M 58.42391514,-11.24855413 H 51.84978677"
   id="path327" /><path
   sodipodi:nodetypes="ccc"
   inkscape:connector-curvature="0"
   id="path329"
   d="m 56.29437488,-9.138821867 2.10973333,-2.109732263 -2.10973333,-2.10973227"
   style="color:#000000;display:inline;overflow:visible;visibility:visible;fill:none;stroke:#000000;stroke-width:0.213333;stroke-linecap:butt;stroke-linejoin:bevel;stroke-miterlimit:4;stroke-dasharray:none;stroke-dashoffset:0;stroke-opacity:1;marker:none;enable-background:accumulate" /><g
   id="g349"
   transform="translate(30.49209774)"><text
     xml:space="preserve"
     style="font-style:normal;font-variant:normal;font-weight:300;font-stretch:normal;font-size:12.8px;line-height:0%;font-family:'Source Code Pro';-inkscape-font-specification:'Source Code Pro Light';text-align:start;letter-spacing:0px;word-spacing:0px;writing-mode:lr-tb;text-anchor:start;display:inline;fill:#000000;fill-opacity:1;stroke:none;stroke-width:1.06667"
     x="60.13193512"
     y="-8.667751312"
     id="text333"><tspan
       sodipodi:role="line"
       id="tspan331"
       x="60.13193512"
       y="-8.667751312"
       style="font-size:8.07763px;line-height:1.25;stroke-width:1.06667">10mm</tspan></text><path
     style="display:inline;fill:none;stroke:#000000;stroke-width:0.213333;stroke-linecap:butt;stroke-linejoin:miter;stroke-miterlimit:4;stroke-dasharray:none;stroke-opacity:1"
     d="M 50.90540443,-11.24855413 H 57.4795328"
     id="path335" /><path
     sodipodi:nodetypes="ccc"
     inkscape:connector-curvature="0"
     id="path337"
     d="m 53.03494469,-9.138821867 -2.10973333,-2.109732263 2.10973333,-2.10973227"
     style="color:#000000;display:inline;overflow:visible;visibility:visible;fill:none;stroke:#000000;stroke-width:0.213333;stroke-linecap:butt;stroke-linejoin:bevel;stroke-miterlimit:4;stroke-dasharray:none;stroke-dashoffset:0;stroke-opacity:1;marker:none;enable-background:accumulate" /><path
     style="display:inline;fill:none;stroke:#000000;stroke-width:0.213333;stroke-linecap:butt;stroke-linejoin:miter;stroke-miterlimit:4;stroke-dasharray:none;stroke-opacity:1"
     d="M 88.42391514,-11.24855413 H 81.84978677"
     id="path339" /><path
     sodipodi:nodetypes="ccc"
     inkscape:connector-curvature="0"
     id="path341"
     d="m 86.29437488,-9.138821867 2.10973333,-2.109732263 -2.10973333,-2.10973227"
     style="color:#000000;display:inline;overflow:visible;visibility:visible;fill:none;stroke:#000000;stroke-width:0.213333;stroke-linecap:butt;stroke-linejoin:bevel;stroke-miterlimit:4;stroke-dasharray:none;stroke-dashoffset:0;stroke-opacity:1;marker:none;enable-background:accumulate" /></g><path
   id="path157-5"
   style="fill:none;stroke:#999999;stroke-width:1"
   d="M 58.77521534,39.68503936 A 18.89763779,18.89763779 0 0 1 39.87757756,58.58267715 18.89763779,18.89763779 0 0 1 20.97993976,39.68503936 18.89763779,18.89763779 0 0 1 39.87757756,20.78740157 18.89763779,18.89763779 0 0 1 58.77521534,39.68503936 Z" /><path
   id="path160-6"
   style="fill:none;stroke:#999999;stroke-width:1"
   d="M 100.1567575,58.58267715 A 18.89763779,18.89763779 0 0 1 81.25911975,39.68503937 18.89763779,18.89763779 0 0 1 100.1567575,20.78740157 18.89763779,18.89763779 0 0 1 119.0543953,39.68503937 18.89763779,18.89763779 0 0 1 100.1567575,58.58267715 Z" /><path
   id="path162-2"
   style="fill:none;stroke:#999999;stroke-width:1"
   d="M 81.25911975,100.1567575 A 18.89763779,18.89763779 0 0 1 100.1567575,81.25911975 18.89763779,18.89763779 0 0 1 119.0543953,100.1567575 18.89763779,18.89763779 0 0 1 100.1567575,119.0543953 18.89763779,18.89763779 0 0 1 81.25911975,100.1567575 Z" /><path
   id="path164-9"
   style="fill:none;stroke:#999999;stroke-width:1"
   d="M 39.6850394,81.25911975 A 18.89763779,18.89763779 0 0 1 58.58267715,100.1567575 18.89763779,18.89763779 0 0 1 39.6850394,119.0543953 18.89763779,18.89763779 0 0 1 20.7874016,100.1567575 18.89763779,18.89763779 0 0 1 39.6850394,81.25911975 Z" /></g></svg>
