<?xml version="1.0" encoding="UTF-8" standalone="no"?>
<!-- Created with Inkscape (http://www.inkscape.org/) -->

<svg
   xmlns:dc="http://purl.org/dc/elements/1.1/"
   xmlns:cc="http://creativecommons.org/ns#"
   xmlns:rdf="http://www.w3.org/1999/02/22-rdf-syntax-ns#"
   xmlns:svg="http://www.w3.org/2000/svg"
   xmlns="http://www.w3.org/2000/svg"
   xmlns:sodipodi="http://sodipodi.sourceforge.net/DTD/sodipodi-0.dtd"
   xmlns:inkscape="http://www.inkscape.org/namespaces/inkscape"
   id="svg2"
   version="1.1"
   inkscape:version="0.48.3.1 r9886"
   width="131.10249"
   height="131.10249"
   xml:space="preserve"
   sodipodi:docname="aufkl-mini-rund_30mm.svg"><metadata
     id="metadata8"><rdf:RDF><cc:Work
         rdf:about=""><dc:format>image/svg+xml</dc:format><dc:type
           rdf:resource="http://purl.org/dc/dcmitype/StillImage" /><dc:title></dc:title></cc:Work></rdf:RDF></metadata><defs
     id="defs6"><clipPath
       clipPathUnits="userSpaceOnUse"
       id="clipPath18"><path
         d="m 0,104.882 104.882,0 L 104.882,0 0,0 0,104.882 z"
         id="path20"
         inkscape:connector-curvature="0" /></clipPath><clipPath
       clipPathUnits="userSpaceOnUse"
       id="clipPath32"><path
         d="m 0,104.882 104.882,0 L 104.882,0 0,0 0,104.882 z"
         id="path34"
         inkscape:connector-curvature="0" /></clipPath><clipPath
       clipPathUnits="userSpaceOnUse"
       id="clipPath48"><path
         d="m 0,104.882 104.882,0 L 104.882,0 0,0 0,104.882 z"
         id="path50"
         inkscape:connector-curvature="0" /></clipPath><clipPath
       clipPathUnits="userSpaceOnUse"
       id="clipPath64"><path
         d="m 0,104.882 104.882,0 L 104.882,0 0,0 0,104.882 z"
         id="path66"
         inkscape:connector-curvature="0" /></clipPath></defs><sodipodi:namedview
     pagecolor="#ffffff"
     bordercolor="#666666"
     borderopacity="1"
     objecttolerance="10"
     gridtolerance="10"
     guidetolerance="10"
     inkscape:pageopacity="0"
     inkscape:pageshadow="2"
     inkscape:window-width="640"
     inkscape:window-height="480"
     id="namedview4"
     showgrid="false"
     inkscape:zoom="1.4043117"
     inkscape:cx="-61.921048"
     inkscape:cy="29.952374"
     inkscape:current-layer="g3980"
     units="mm"><sodipodi:guide
       position="0,131.10236"
       orientation="131.10236,0"
       id="guide3936" /><sodipodi:guide
       position="0,0"
       orientation="0,131.10236"
       id="guide3938" /><sodipodi:guide
       position="131.10236,0"
       orientation="-131.10236,0"
       id="guide3940" /><sodipodi:guide
       position="131.10236,131.10236"
       orientation="0,-131.10236"
       id="guide3942" /><sodipodi:guide
       position="12.401642,118.70085"
       orientation="106.29921,0"
       id="guide3957" /><sodipodi:guide
       position="12.401642,12.401642"
       orientation="0,106.29921"
       id="guide3959" /><sodipodi:guide
       position="118.70085,12.401642"
       orientation="-106.29921,0"
       id="guide3961" /><sodipodi:guide
       position="118.70085,118.70085"
       orientation="0,-106.29921"
       id="guide3963" /><sodipodi:guide
       position="19.488255,111.61424"
       orientation="92.125984,0"
       id="guide3972" /><sodipodi:guide
       position="19.488255,19.488254"
       orientation="0,92.125984"
       id="guide3974" /><sodipodi:guide
       position="111.61424,19.488254"
       orientation="-92.125984,0"
       id="guide3976" /><sodipodi:guide
       position="111.61424,111.61424"
       orientation="0,-92.125984"
       id="guide3978" /></sodipodi:namedview><g
     inkscape:groupmode="layer"
     id="layer1"
     inkscape:label="XX_REFERENZ"
     style="display:inline"
     sodipodi:insensitive="true"><path
       style="color:#000000;fill:#ffd5d5;fill-opacity:1;fill-rule:nonzero;stroke:none;stroke-width:1;marker:none;visibility:visible;display:inline;overflow:visible;enable-background:accumulate"
       d="m 118.70085,65.551262 c 0,29.35372 -23.795886,53.149588 -53.149601,53.149588 -29.353721,0 -53.149609,-23.795868 -53.149609,-53.149588 0,-29.353712 23.795888,-53.149609 53.149609,-53.149609 29.353715,0 53.149601,23.795897 53.149601,53.149609 z"
       id="path3095"
       inkscape:connector-curvature="0" /><path
       inkscape:connector-curvature="0"
       id="path3143"
       d="m 111.61424,65.55126 c 0,25.439891 -20.6231,46.06299 -46.062987,46.06299 -25.439893,0 -46.062996,-20.623099 -46.062996,-46.06299 0,-25.439885 20.623103,-46.062996 46.062996,-46.062996 25.439887,0 46.062987,20.623111 46.062987,46.062996 z"
       style="color:#000000;fill:#d7f4ee;fill-opacity:1;fill-rule:nonzero;stroke:none;stroke-width:1;marker:none;visibility:visible;display:inline;overflow:visible;enable-background:accumulate" /></g><g
     inkscape:groupmode="layer"
     id="layer2"
     inkscape:label="DRAW"><path
       style="color:#000000;fill:none;stroke:#374845;stroke-width:1;marker:none;visibility:visible;display:inline;overflow:visible;enable-background:accumulate"
       d="m 0.5,3.025723 0,-2.52558971 2.52559,0 m 125.05118,0 2.52559,0 0,2.52558971 m 0,125.051177 0,2.52559 -2.52559,0 m -125.05118,0 -2.52559,0 0,-2.52559"
       id="rect4834"
       inkscape:connector-curvature="0"
       sodipodi:nodetypes="cccccccccccc" /></g><g
     style="display:inline"
     inkscape:label="XX_COVER"
     id="g3980"
     inkscape:groupmode="layer"
     sodipodi:insensitive="true"><path
       id="path4027"
       style="color:#000000;fill:#f2f2f2;fill-opacity:1;fill-rule:nonzero;stroke:none;stroke-width:1;marker:none;visibility:visible;display:inline;overflow:visible;enable-background:accumulate"
       d="m 118.70085,65.551258 c 0,29.353725 -23.795886,53.149582 -53.149601,53.149582 -29.353721,0 -53.149609,-23.795857 -53.149609,-53.149582 0,-29.353712 23.795888,-53.149609 53.149609,-53.149609 29.353715,0 53.149601,23.795897 53.149601,53.149609 z M 0,1.3248688e-4 0,131.10248 l 131.10236,0 0,-131.10234751312 z"
       inkscape:connector-curvature="0" /><path
       style="color:#000000;fill:none;stroke:#999999;stroke-width:0.99999988;stroke-linecap:butt;stroke-linejoin:miter;stroke-miterlimit:4;stroke-opacity:1;stroke-dasharray:none;stroke-dashoffset:0;marker:none;visibility:visible;display:inline;overflow:visible;enable-background:accumulate"
       d="m 119.20075,65.551256 c 0,29.629807 -24.019703,53.649474 -53.649501,53.649474 -29.629805,0 -53.649502,-24.019667 -53.649502,-53.649474 0,-29.629795 24.019697,-53.649502 53.649502,-53.649502 29.629798,0 53.649501,24.019707 53.649501,53.649502 z"
       id="path3095-1"
       inkscape:connector-curvature="0" /><text
       xml:space="preserve"
       style="font-size:7.57278013px;font-style:normal;font-variant:normal;font-weight:300;font-stretch:normal;text-align:start;line-height:125%;letter-spacing:0px;word-spacing:0px;writing-mode:lr-tb;text-anchor:start;fill:#000000;fill-opacity:1;stroke:none;display:inline;font-family:Source Code Pro;-inkscape-font-specification:Source Code Pro Light"
       x="56.373688"
       y="-8.1260176"
       id="text4591"
       sodipodi:linespacing="125%"><tspan
         sodipodi:role="line"
         id="tspan4593"
         x="56.373688"
         y="-8.1260176">30mm</tspan></text>
<g
       style="display:inline"
       id="g4610"
       transform="translate(0,-5.3879785)"><path
         id="path4600"
         style="color:#000000;fill:none;stroke:#000000;stroke-width:0.2;stroke-linecap:butt;stroke-linejoin:bevel;stroke-miterlimit:4;stroke-opacity:1;stroke-dasharray:none;stroke-dashoffset:0;marker:none;visibility:visible;display:inline;overflow:visible;enable-background:accumulate"
         d="m 116.42129,-7.135415 1.97787,1.977874 -1.97787,1.977874 m -101.740082,0 -1.977875,-1.977874 1.977875,-1.977874 m -1.996444,1.977874 40.539183,0 m 24.654595,0 40.539188,0"
         inkscape:connector-curvature="0"
         sodipodi:nodetypes="cccccccccc" /></g><text
       sodipodi:linespacing="125%"
       id="text4615"
       y="-18.126017"
       x="56.373688"
       style="font-size:7.57278013px;font-style:normal;font-variant:normal;font-weight:300;font-stretch:normal;text-align:start;line-height:125%;letter-spacing:0px;word-spacing:0px;writing-mode:lr-tb;text-anchor:start;fill:#000000;fill-opacity:1;stroke:none;display:inline;font-family:Source Code Pro;-inkscape-font-specification:Source Code Pro Light"
       xml:space="preserve"><tspan
         y="-18.126017"
         x="56.373688"
         id="tspan4617"
         sodipodi:role="line">37mm</tspan></text>
<path
       id="path4625"
       style="color:#000000;fill:none;stroke:#000000;stroke-width:0.2;stroke-linecap:butt;stroke-linejoin:bevel;stroke-miterlimit:4;stroke-opacity:1;stroke-dasharray:none;stroke-dashoffset:0;marker:none;visibility:visible;display:inline;overflow:visible;enable-background:accumulate"
       d="m 128.63317,-22.523394 1.97787,1.977874 -1.97787,1.977874 m -126.163847,0 -1.977875,-1.977874 1.977875,-1.977874 m 76.621104,1.977874 51.539183,0 m -130.156731,0 51.539183,0"
       inkscape:connector-curvature="0"
       sodipodi:nodetypes="cccccccccc" /></g></svg>