<?xml version="1.0" encoding="UTF-8" standalone="no"?>
<!-- Created with Inkscape (http://www.inkscape.org/) -->

<svg
   xmlns:dc="http://purl.org/dc/elements/1.1/"
   xmlns:cc="http://creativecommons.org/ns#"
   xmlns:rdf="http://www.w3.org/1999/02/22-rdf-syntax-ns#"
   xmlns:svg="http://www.w3.org/2000/svg"
   xmlns="http://www.w3.org/2000/svg"
   xmlns:sodipodi="http://sodipodi.sourceforge.net/DTD/sodipodi-0.dtd"
   xmlns:inkscape="http://www.inkscape.org/namespaces/inkscape"
   id="svg2"
   version="1.1"
   inkscape:version="0.48.3.1 r9886"
   width="1094.8825"
   height="765.35375"
   xml:space="preserve"
   sodipodi:docname="Buch_Abizeitung_Softcover_Umschlag_DIN_A5_hoch.svg"><metadata
     id="metadata8"><rdf:RDF><cc:Work
         rdf:about=""><dc:format>image/svg+xml</dc:format><dc:type
           rdf:resource="http://purl.org/dc/dcmitype/StillImage" /><dc:title></dc:title></cc:Work></rdf:RDF></metadata><defs
     id="defs6"><clipPath
       clipPathUnits="userSpaceOnUse"
       id="clipPath82"><path
         d="m 0,0 875.906,0 0,612.283 L 0,612.283 0,0 z"
         id="path84" /></clipPath><clipPath
       clipPathUnits="userSpaceOnUse"
       id="clipPath246"><path
         d="m 0,126.141 179.292,0 0,-126.142 -179.292,0 0,126.142 z"
         id="path248" /></clipPath><clipPath
       clipPathUnits="userSpaceOnUse"
       id="clipPath282"><path
         d="m 696.614,126.141 179.291,0 0,-126.142 -179.291,0 0,126.142 z"
         id="path284" /></clipPath></defs><sodipodi:namedview
     pagecolor="#ffffff"
     bordercolor="#666666"
     borderopacity="1"
     objecttolerance="10"
     gridtolerance="10"
     guidetolerance="10"
     inkscape:pageopacity="0"
     inkscape:pageshadow="2"
     inkscape:window-width="640"
     inkscape:window-height="480"
     id="namedview4"
     showgrid="false"
     inkscape:zoom="0.44389848"
     inkscape:cx="231.33892"
     inkscape:cy="383.39825"
     inkscape:current-layer="g3354"><sodipodi:guide
       position="1094.8819,765.35433"
       orientation="765.35433,0"
       id="guide3507" /><sodipodi:guide
       position="1094.8819,-2.3437497e-07"
       orientation="0,-1094.8819"
       id="guide3509" /><sodipodi:guide
       position="0,-2.3437497e-07"
       orientation="-765.35433,0"
       id="guide3511" /><sodipodi:guide
       position="0,765.35433"
       orientation="4.7428e-07,1094.8819"
       id="guide3513" /><sodipodi:guide
       position="10.629921,754.72441"
       orientation="744.09449,0"
       id="guide3515" /><sodipodi:guide
       position="10.629921,10.62992"
       orientation="0,1073.6221"
       id="guide3517" /><sodipodi:guide
       position="1084.252,10.62992"
       orientation="-744.09449,0"
       id="guide3519" /><sodipodi:guide
       position="1084.252,754.72441"
       orientation="-1e-06,-1073.6221"
       id="guide3521" /><sodipodi:guide
       position="535.03937,-2.3437497e-07"
       orientation="0,24.80315"
       id="guide3525" /><sodipodi:guide
       position="559.84252,-2.3437497e-07"
       orientation="-765.35433,0"
       id="guide3527" /><sodipodi:guide
       position="559.84252,765.35433"
       orientation="0,-24.80315"
       id="guide3529" /><sodipodi:guide
       position="535.03937,765.35433"
       orientation="765.35433,0"
       id="guide3531" /><sodipodi:guide
       position="535.03937,-2.3437497e-07"
       orientation="0,0"
       id="guide3533" /></sodipodi:namedview><g
     id="g10"
     inkscape:groupmode="layer"
     inkscape:label="XX_ORIGINAL"
     transform="matrix(1.25,0,0,-1.25,0,765.35375)"
     style="display:none"
     sodipodi:insensitive="true"><path
       d="m 0,0.001 875.905,0 0,612.283 L 0,612.284 0,0.001 z"
       style="fill:#f58214;fill-opacity:1;fill-rule:nonzero;stroke:none"
       id="path12"
       inkscape:connector-curvature="0" /><path
       d="m 8.504,8.505 858.898,0 0,595.275 -858.898,0 0,-595.275 z"
       style="fill:#d2d2d6;fill-opacity:1;fill-rule:nonzero;stroke:none"
       id="path14"
       inkscape:connector-curvature="0" /><path
       d="m 476.22,22.677 377.008,0 0,566.929 -377.008,0 0,-566.929 z"
       style="fill:#ffffff;fill-opacity:1;fill-rule:nonzero;stroke:none"
       id="path16"
       inkscape:connector-curvature="0" /><text
       transform="matrix(1,0,0,-1,640.2619,570.1826)"
       id="text18"><tspan
         style="font-size:7.03999996px;font-variant:normal;font-weight:normal;font-stretch:normal;writing-mode:lr-tb;fill:#231f20;fill-opacity:1;fill-rule:nonzero;stroke:none;font-family:Helvetica Neue;-inkscape-font-specification:HelveticaNeue"
         x="0 3.9846399 7.9692798 11.95392 13.98144 20.056959"
         y="0"
         sodipodi:role="line"
         id="tspan20">151 mm</tspan></text>
<text
       transform="matrix(1,0,0,-1,640.2619,592.8597)"
       id="text22"><tspan
         style="font-size:7.03999996px;font-variant:normal;font-weight:normal;font-stretch:normal;writing-mode:lr-tb;fill:#231f20;fill-opacity:1;fill-rule:nonzero;stroke:none;font-family:Helvetica Neue;-inkscape-font-specification:HelveticaNeue"
         x="0 3.9846399 7.9692798 11.95392 13.98144 20.056959"
         y="0"
         sodipodi:role="line"
         id="tspan24">148 mm</tspan></text>
<text
       transform="matrix(0,1,1,0,459.3925,273.4181)"
       id="text26"><tspan
         style="font-size:7.03999996px;font-variant:normal;font-weight:normal;font-stretch:normal;writing-mode:lr-tb;fill:#231f20;fill-opacity:1;fill-rule:nonzero;stroke:none;font-family:Helvetica Neue;-inkscape-font-specification:HelveticaNeue"
         x="0 3.9846399 7.9692798 11.95392 13.98144 20.056959"
         y="0"
         sodipodi:role="line"
         id="tspan28">210 mm</tspan></text>
<text
       transform="matrix(1,0,0,-1,621.5955,397.9259)"
       id="text30"><tspan
         style="font-size:21.68980026px;font-variant:normal;font-weight:normal;font-stretch:normal;writing-mode:lr-tb;fill:#231f20;fill-opacity:1;fill-rule:nonzero;stroke:none;font-family:Helvetica Neue;-inkscape-font-specification:HelveticaNeue"
         x="0 12.666843 17.698877 24.748062 36.612381 41.644417 52.706215 64.570534 69.60257 76.651756"
         y="0"
         sodipodi:role="line"
         id="tspan32">Titelseite</tspan></text>
<path
       d="m 22.677,22.677 377.008,0 0,566.929 -377.008,0 0,-566.929 z"
       style="fill:#ffffff;fill-opacity:1;fill-rule:nonzero;stroke:none"
       id="path34"
       inkscape:connector-curvature="0" /><text
       transform="matrix(0,1,1,0,861.6368,273.3853)"
       id="text36"><tspan
         style="font-size:7.03999996px;font-variant:normal;font-weight:normal;font-stretch:normal;writing-mode:lr-tb;fill:#231f20;fill-opacity:1;fill-rule:nonzero;stroke:none;font-family:Helvetica Neue;-inkscape-font-specification:HelveticaNeue"
         x="0 3.9846399 7.9692798 11.95392 13.98144 20.056959"
         y="0"
         sodipodi:role="line"
         id="tspan38">216 mm</tspan></text>
<g
       id="g40"
       transform="translate(476.502,13.9997)"><path
         d="M 0,0 0,584.351"
         style="fill:none;stroke:#231f20;stroke-width:1;stroke-linecap:butt;stroke-linejoin:miter;stroke-miterlimit:4;stroke-opacity:1;stroke-dasharray:none"
         id="path42"
         inkscape:connector-curvature="0" /></g><g
       id="g44"
       transform="translate(476.502,8.5375)"><path
         d="m 0,0 2.552,7.012 -5.104,0 L 0,0 z"
         style="fill:#231f20;fill-opacity:1;fill-rule:nonzero;stroke:none"
         id="path46"
         inkscape:connector-curvature="0" /></g><g
       id="g48"
       transform="translate(476.502,603.8131)"><path
         d="m 0,0 -2.552,-7.012 5.104,0 L 0,0 z"
         style="fill:#231f20;fill-opacity:1;fill-rule:nonzero;stroke:none"
         id="path50"
         inkscape:connector-curvature="0" /></g><text
       transform="matrix(1,0,0,-1,157.716,398.0854)"
       id="text52"><tspan
         style="font-size:21.52230072px;font-variant:normal;font-weight:normal;font-stretch:normal;writing-mode:lr-tb;fill:#231f20;fill-opacity:1;fill-rule:nonzero;stroke:none;font-family:Helvetica Neue;-inkscape-font-specification:HelveticaNeue"
         x="0 14.957998 27.13962 38.912319 50.297615 61.273987 73.046684 78.039864 85.034607"
         y="0"
         sodipodi:role="line"
         id="tspan54">Rückseite</tspan></text>
<text
       transform="matrix(1,0,0,-1,199.1325,570.1819)"
       id="text56"><tspan
         style="font-size:7.03999996px;font-variant:normal;font-weight:normal;font-stretch:normal;writing-mode:lr-tb;fill:#231f20;fill-opacity:1;fill-rule:nonzero;stroke:none;font-family:Helvetica Neue;-inkscape-font-specification:HelveticaNeue"
         x="0 3.9846399 7.9692798 11.95392 13.98144 20.056959"
         y="0"
         sodipodi:role="line"
         id="tspan58">151 mm</tspan></text>
<text
       transform="matrix(1,0,0,-1,198.4239,591.4418)"
       id="text60"><tspan
         style="font-size:7.03999996px;font-variant:normal;font-weight:normal;font-stretch:normal;writing-mode:lr-tb;fill:#231f20;fill-opacity:1;fill-rule:nonzero;stroke:none;font-family:Helvetica Neue;-inkscape-font-specification:HelveticaNeue"
         x="0 3.9846399 7.9692798 11.95392 13.98144 20.056959"
         y="0"
         sodipodi:role="line"
         id="tspan62">148 mm</tspan></text>
<text
       transform="matrix(1,0,0,-1,192.0472,26.1798)"
       id="text64"><tspan
         style="font-size:7.03999996px;font-variant:normal;font-weight:normal;font-stretch:normal;writing-mode:lr-tb;fill:#231f20;fill-opacity:1;fill-rule:nonzero;stroke:none;font-family:Helvetica Neue;-inkscape-font-specification:HelveticaNeue"
         x="0 3.9846399 7.9692798 11.95392 13.98144 20.056959 26.132481 28.16 32.405121 36.256001 37.889278 39.916801 43.767681 45.400959 49.385601 53.236481 55.651199 57.678719 61.529598 65.246719 69.097603 75.173119 79.418243 81.051521 84.902397 87.317123 88.950401 92.540802 96.391678 100.37632 104.2272 108.21184 110.23936 115.13216 119.1168 122.96768 126.69184 130.54272 134.52736 138.51199 142.62337 146.608 150.45888 152.4864 156.0768 160.18816 164.17281 166.20032 170.18497 172.21248 178.28799"
         y="0"
         sodipodi:role="line"
         id="tspan66">309 mm bei einer exemplarischen Rückenhöhe von 7 mm</tspan></text>
<path
       d="m 429.382,22.677 18.142,0 0,566.929 -18.142,0 0,-566.929 z"
       style="fill:#ffffff;fill-opacity:1;fill-rule:nonzero;stroke:none"
       id="path68"
       inkscape:connector-curvature="0" /><text
       transform="matrix(0,1,1,0,441.0934,245.2363)"
       id="text70"><tspan
         style="font-size:10px;font-variant:normal;font-weight:normal;font-stretch:normal;writing-mode:lr-tb;fill:#231f20;fill-opacity:1;fill-rule:nonzero;stroke:none;font-family:Helvetica Neue;-inkscape-font-specification:HelveticaNeue"
         x="0 6.9499998 12.61 18.08 23.74 27.17 32.830002 38.299999 43.59 49.060001"
         y="0"
         sodipodi:role="line"
         id="tspan72">Buchrücken</tspan></text>
<text
       transform="matrix(1,0,0,-1,452.2428,547.5048)"
       id="text74"><tspan
         style="font-size:7.03999996px;font-variant:normal;font-weight:normal;font-stretch:normal;writing-mode:lr-tb;fill:#231f20;fill-opacity:1;fill-rule:nonzero;stroke:none;font-family:Helvetica Neue;-inkscape-font-specification:HelveticaNeue"
         x="0 3.9846399 6.0121598 12.08768"
         y="0"
         sodipodi:role="line"
         id="tspan76">7 mm</tspan></text>
<g
       id="g78"><g
         id="g80"
         clip-path="url(#clipPath82)"><g
           id="g86"
           transform="translate(428.5315,0)"><path
             d="M 0,0 0,612.283"
             style="fill:none;stroke:#ed1c24;stroke-width:1;stroke-linecap:butt;stroke-linejoin:miter;stroke-miterlimit:4;stroke-opacity:1;stroke-dasharray:none"
             id="path88"
             inkscape:connector-curvature="0" /></g><g
           id="g90"
           transform="translate(448.3741,0)"><path
             d="M 0,0 0,612.283"
             style="fill:none;stroke:#ed1c24;stroke-width:1;stroke-linecap:butt;stroke-linejoin:miter;stroke-miterlimit:4;stroke-opacity:1;stroke-dasharray:none"
             id="path92"
             inkscape:connector-curvature="0" /></g></g></g><text
       transform="matrix(0,1,1,0,17.9726,273.1018)"
       id="text94"><tspan
         style="font-size:7.03999996px;font-variant:normal;font-weight:normal;font-stretch:normal;writing-mode:lr-tb;fill:#231f20;fill-opacity:1;fill-rule:nonzero;stroke:none;font-family:Helvetica Neue;-inkscape-font-specification:HelveticaNeue"
         x="0 3.9846399 7.9692798 11.95392 13.98144 20.056959"
         y="0"
         sodipodi:role="line"
         id="tspan96">216 mm</tspan></text>
<g
       id="g98"
       transform="translate(5.4622,567.7563)"><path
         d="M 0,0 417.607,0"
         style="fill:none;stroke:#231f20;stroke-width:1;stroke-linecap:butt;stroke-linejoin:miter;stroke-miterlimit:4;stroke-opacity:1;stroke-dasharray:none"
         id="path100"
         inkscape:connector-curvature="0" /></g><g
       id="g102"
       transform="translate(0,567.7563)"><path
         d="m 0,0 7.012,-2.552 0,5.104 L 0,0 z"
         style="fill:#231f20;fill-opacity:1;fill-rule:nonzero;stroke:none"
         id="path104"
         inkscape:connector-curvature="0" /></g><g
       id="g106"
       transform="translate(428.5315,567.7563)"><path
         d="m 0,0 -7.012,2.552 0,-5.104 L 0,0 z"
         style="fill:#231f20;fill-opacity:1;fill-rule:nonzero;stroke:none"
         id="path108"
         inkscape:connector-curvature="0" /></g><g
       id="g110"
       transform="translate(13.9661,589.1296)"><path
         d="M 0,0 409.103,0"
         style="fill:none;stroke:#231f20;stroke-width:1;stroke-linecap:butt;stroke-linejoin:miter;stroke-miterlimit:4;stroke-opacity:1;stroke-dasharray:none"
         id="path112"
         inkscape:connector-curvature="0" /></g><g
       id="g114"
       transform="translate(8.5039,589.1296)"><path
         d="m 0,0 7.012,-2.552 0,5.104 L 0,0 z"
         style="fill:#231f20;fill-opacity:1;fill-rule:nonzero;stroke:none"
         id="path116"
         inkscape:connector-curvature="0" /></g><g
       id="g118"
       transform="translate(428.5315,589.1296)"><path
         d="m 0,0 -7.012,2.552 0,-5.104 L 0,0 z"
         style="fill:#231f20;fill-opacity:1;fill-rule:nonzero;stroke:none"
         id="path120"
         inkscape:connector-curvature="0" /></g><g
       id="g122"
       transform="translate(453.5862,589.2147)"><path
         d="M 0,0 408.353,0"
         style="fill:none;stroke:#231f20;stroke-width:1;stroke-linecap:butt;stroke-linejoin:miter;stroke-miterlimit:4;stroke-opacity:1;stroke-dasharray:none"
         id="path124"
         inkscape:connector-curvature="0" /></g><g
       id="g126"
       transform="translate(448.124,589.2147)"><path
         d="m 0,0 7.012,-2.552 0,5.104 L 0,0 z"
         style="fill:#231f20;fill-opacity:1;fill-rule:nonzero;stroke:none"
         id="path128"
         inkscape:connector-curvature="0" /></g><g
       id="g130"
       transform="translate(867.4016,589.2147)"><path
         d="m 0,0 -7.012,2.552 0,-5.104 L 0,0 z"
         style="fill:#231f20;fill-opacity:1;fill-rule:nonzero;stroke:none"
         id="path132"
         inkscape:connector-curvature="0" /></g><g
       id="g134"
       transform="translate(453.6768,567.8132)"><path
         d="M 0,0 416.767,0"
         style="fill:none;stroke:#231f20;stroke-width:1;stroke-linecap:butt;stroke-linejoin:miter;stroke-miterlimit:4;stroke-opacity:1;stroke-dasharray:none"
         id="path136"
         inkscape:connector-curvature="0" /></g><g
       id="g138"
       transform="translate(448.2146,567.8132)"><path
         d="m 0,0 7.012,-2.552 0,5.104 L 0,0 z"
         style="fill:#231f20;fill-opacity:1;fill-rule:nonzero;stroke:none"
         id="path140"
         inkscape:connector-curvature="0" /></g><g
       id="g142"
       transform="translate(875.9055,567.8132)"><path
         d="m 0,0 -7.012,2.552 0,-5.104 L 0,0 z"
         style="fill:#231f20;fill-opacity:1;fill-rule:nonzero;stroke:none"
         id="path144"
         inkscape:connector-curvature="0" /></g><g
       id="g146"
       transform="translate(433.9937,545.4919)"><path
         d="M 0,0 8.759,0"
         style="fill:none;stroke:#231f20;stroke-width:1;stroke-linecap:butt;stroke-linejoin:miter;stroke-miterlimit:4;stroke-opacity:1;stroke-dasharray:none"
         id="path148"
         inkscape:connector-curvature="0" /></g><g
       id="g150"
       transform="translate(428.5315,545.4919)"><path
         d="m 0,0 7.012,-2.552 0,5.104 L 0,0 z"
         style="fill:#231f20;fill-opacity:1;fill-rule:nonzero;stroke:none"
         id="path152"
         inkscape:connector-curvature="0" /></g><g
       id="g154"
       transform="translate(448.2147,545.4919)"><path
         d="m 0,0 -7.012,2.552 0,-5.104 L 0,0 z"
         style="fill:#231f20;fill-opacity:1;fill-rule:nonzero;stroke:none"
         id="path156"
         inkscape:connector-curvature="0" /></g><g
       id="g158"
       transform="translate(448.124,545.5662)"><path
         d="M 0,0 22.568,0"
         style="fill:none;stroke:#231f20;stroke-width:1;stroke-linecap:butt;stroke-linejoin:miter;stroke-miterlimit:4;stroke-opacity:1;stroke-dasharray:none"
         id="path160"
         inkscape:connector-curvature="0" /></g><g
       id="g162"
       transform="translate(183.7881,477.0474)"><path
         d="M 0,0 21.843,63.038 42.865,0 0,0 z m -39.221,-58.473 18.961,0 14.807,42.738 53.566,0 14.254,-42.738 20.262,0 -49.555,142.685 -20.879,0 -51.416,-142.685 z"
         style="fill:#dbdadc;fill-opacity:1;fill-rule:nonzero;stroke:none"
         id="path164"
         inkscape:connector-curvature="0" /></g><g
       id="g166"
       transform="translate(643.0007,477.0474)"><path
         d="M 0,0 21.843,63.038 42.865,0 0,0 z m -39.221,-58.473 18.961,0 14.807,42.738 53.566,0 14.254,-42.738 20.262,0 -49.555,142.685 -20.879,0 -51.416,-142.685 z"
         style="fill:#dbdadc;fill-opacity:1;fill-rule:nonzero;stroke:none"
         id="path168"
         inkscape:connector-curvature="0" /></g><text
       transform="matrix(1,0,0,-1,563.13031,214.2759)"
       id="text170"><tspan
         style="font-size:7.17700005px;font-variant:normal;font-weight:normal;font-stretch:normal;writing-mode:lr-tb;fill:#231f20;fill-opacity:1;fill-rule:nonzero;stroke:none;font-family:Helvetica Neue;-inkscape-font-specification:HelveticaNeue"
         x="0 4.0621819 6.129158 12.322909 18.516661 20.583635 25.571651 29.497471 33.157742 37.083557 41.145741 45.207924 46.872986 49.205513 51.466267"
         y="0"
         sodipodi:role="line"
         id="tspan172">3 mm Beschnitt </tspan></text>
<text
       transform="matrix(1,0,0,-1,563.13031,205.6635)"
       id="text174"><tspan
         style="font-size:7.17700005px;font-variant:normal;font-weight:normal;font-stretch:normal;writing-mode:lr-tb;fill:#231f20;fill-opacity:1;fill-rule:nonzero;stroke:none;font-family:Helvetica Neue;-inkscape-font-specification:HelveticaNeue"
         x="0 5.1243782 6.7894421 10.715261 14.375531 18.30135 20.763062 22.830036 27.552504 31.478321 35.806053 37.471115 41.396935 43.858646 46.320358 50.246178 54.308357 58.636089 60.703068 66.215004 67.880066 70.212593 74.540321 76.6073 80.669479 84.595299 88.521118 92.583298 94.650276 98.978004 102.90382 109.09758 111.16455 116.28893 118.75064 122.81282 126.73864 130.53528 132.60225 136.92998 140.8558 144.51607 148.44189 152.50407 156.56625 158.23132 160.56384 162.89636 166.82219"
         y="0"
         sodipodi:role="line"
         id="tspan176">Dieser Papierrand wird nach dem Druck beschnitten</tspan></text>
<text
       transform="matrix(1,0,0,-1,563.1304,188.4386)"
       id="text178"><tspan
         style="font-size:7.17700005px;font-variant:normal;font-weight:normal;font-stretch:normal;writing-mode:lr-tb;fill:#231f20;fill-opacity:1;fill-rule:nonzero;stroke:none;font-family:Helvetica Neue;-inkscape-font-specification:HelveticaNeue"
         x="0 4.9880152 8.9138336 12.976016 17.303747 19.370724 21.566885 25.629066 28.090778 30.157755 34.083572 38.145756 41.806026 45.731846 49.794025 53.856209 55.521271 57.853798 60.186321 64.377693 68.303513 70.499672 74.425491 78.487671 80.820198 85.147926 89.073746 91.406273 95.332092 97.399071 101.85599 103.52105 107.44687 113.64062 117.56644 121.62862 123.96114 127.88696 129.95393 131.88455 135.40128 137.46826 142.45627 144.52325 146.59023 149.98494 153.91077 157.70023 160.03275"
         y="0"
         sodipodi:role="line"
         id="tspan180">Rand für anschnittgefährdete Elemente (z.B. Text)</tspan></text>
<text
       transform="matrix(1,0,0,-1,563.13031,171.2137)"
       id="text182"><tspan
         style="font-size:7.17700005px;font-variant:normal;font-weight:normal;font-stretch:normal;writing-mode:lr-tb;fill:#231f20;fill-opacity:1;fill-rule:nonzero;stroke:none;font-family:Helvetica Neue;-inkscape-font-specification:HelveticaNeue"
         x="0 4.1913681 8.1171865 9.7822514 13.298981 14.964045 16.629108 20.691292 22.356356 26.210403"
         y="0"
         sodipodi:role="line"
         id="tspan184">Falzlinie </tspan></text>
<path
       d="m 546.594,208.955 11.302,0 0,11.302 -11.302,0 0,-11.302 z"
       style="fill:#f58214;fill-opacity:1;fill-rule:nonzero;stroke:none"
       id="path186"
       inkscape:connector-curvature="0" /><path
       d="m 546.594,184.798 11.302,0 0,11.302 -11.302,0 0,-11.302 z"
       style="fill:#d2d2d6;fill-opacity:1;fill-rule:nonzero;stroke:none"
       id="path188"
       inkscape:connector-curvature="0" /><text
       transform="matrix(1,0,0,-1,546.5945,364.9043)"
       id="text190"><tspan
         style="font-size:7.17700005px;font-variant:normal;font-weight:normal;font-stretch:normal;writing-mode:lr-tb;fill:#231f20;fill-opacity:1;fill-rule:nonzero;stroke:none;font-family:Helvetica Neue;-inkscape-font-specification:HelveticaNeue"
         x="0 3.394721 7.32054 11.109996 13.442521 17.36834 19.435316 23.497498 27.559681 31.887411 33.954388 39.473499 41.935211 45.861031 49.650486 53.447121 57.372936 61.43512 63.502094 69.695847 71.360909 73.693436 75.760414 79.686234 81.351295 85.413475 89.339294 95.533051 97.600021 103.92296 105.58802 109.65021 113.97794 117.90376 121.56403 123.89655 127.82237 132.1501 135.81036 138.1429 142.06871 146.13089 150.45863 152.5256 156.18587 160.37724 164.43942 166.50639 170.56859 172.63556 178.82932 185.02306 187.09004 190.75031 194.94168 201.06366"
         y="0"
         sodipodi:role="line"
         id="tspan192">Texte und Grafken mit einem Mindestabstand von 5 mm vom </tspan></text>
<text
       transform="matrix(1,0,0,-1,546.5945,356.2918)"
       id="text194"><tspan
         style="font-size:7.17700005px;font-variant:normal;font-weight:normal;font-stretch:normal;writing-mode:lr-tb;fill:#231f20;fill-opacity:1;fill-rule:nonzero;stroke:none;font-family:Helvetica Neue;-inkscape-font-specification:HelveticaNeue"
         x="0 4.722466 8.6482849 12.976016 14.64108 18.566898 21.02861 23.49032 27.41614 31.478321 35.806053 37.873028 42.20076 43.865826 47.791641 50.124168 53.6409 55.305962 59.231781 61.564304 65.490128 69.552307 71.411148"
         y="0"
         sodipodi:role="line"
         id="tspan196">Papierrand platzieren! </tspan></text>
<text
       transform="matrix(1,0,0,-1,546.5945,339.067)"
       id="text198"><tspan
         style="font-size:7.17700005px;font-variant:normal;font-weight:normal;font-stretch:normal;writing-mode:lr-tb;fill:#231f20;fill-opacity:1;fill-rule:nonzero;stroke:none;font-family:Helvetica Neue;-inkscape-font-specification:HelveticaNeue"
         x="0 4.9880152 6.653079 8.3181429 12.645874 16.571693 19.033403 21.10038 25.162561 29.224745 33.552475 35.61945 39.810818 43.736637 46.198349 50.526081 54.315536 58.241356 62.167175 66.229355 70.155174 74.217354 76.284332 80.346512 84.674248 88.600067 91.061775 93.128754 97.456482 101.3823 105.44448 107.51146 111.83919 115.76501 120.09274 122.55445 126.61663 130.54245 134.33908 138.66682 142.59264 144.92516 148.85098 152.91316 154.98013 159.96815 163.89397 166.2265 170.15231 171.81738 175.74319 179.73361"
         y="0"
         sodipodi:role="line"
         id="tspan200">Bilder und Farbfächen über den bedruckbaren Bereich </tspan></text>
<text
       transform="matrix(1,0,0,-1,546.5945,330.4545)"
       id="text202"><tspan
         style="font-size:7.17700005px;font-variant:normal;font-weight:normal;font-stretch:normal;writing-mode:lr-tb;fill:#231f20;fill-opacity:1;fill-rule:nonzero;stroke:none;font-family:Helvetica Neue;-inkscape-font-specification:HelveticaNeue"
         x="0 4.0621819 5.7272458 9.7894278 13.715247 17.77743 21.437698 24.95443 26.619493 30.545313 34.607494 38.533314 42.595493"
         y="0"
         sodipodi:role="line"
         id="tspan204">hinausziehen!</tspan></text>
<text
       transform="matrix(1,0,0,-1,546.5945,313.2296)"
       id="text206"><tspan
         style="font-size:7.17700005px;font-variant:normal;font-weight:normal;font-stretch:normal;writing-mode:lr-tb;fill:#231f20;fill-opacity:1;fill-rule:nonzero;stroke:none;font-family:Helvetica Neue;-inkscape-font-specification:HelveticaNeue"
         x="0 5.1243782 9.0501966 11.511908 13.578884 18.566898 22.629082 26.554899 30.617083 33.078793 37.140976 41.066795 44.863426 48.789246 52.851429 54.918404 58.578674 62.504494 64.966202 66.631271 68.296333 72.222153 74.683861 77.016388 79.083366 80.748428 84.674248 86.741219 90.803406 94.729225 98.655045 102.71722 104.7842 109.50667 113.43249 115.09755 117.43008 121.3559 125.41808 128.9348 132.86063 136.92281 138.58788"
         y="0"
         sodipodi:role="line"
         id="tspan208">Der Buchrücken variiert je nach Seitenzahl.</tspan></text>
<text
       transform="matrix(1,0,0,-1,546.5945,304.6172)"
       id="text210"><tspan
         style="font-size:7.17700005px;font-variant:normal;font-weight:normal;font-stretch:normal;writing-mode:lr-tb;fill:#231f20;fill-opacity:1;fill-rule:nonzero;stroke:none;font-family:Helvetica Neue;-inkscape-font-specification:HelveticaNeue"
         x="0 5.1243782 6.7894421 10.715261 12.782237 17.770252 21.832434 25.758253 29.820435 32.282146 36.34433 40.270145 44.06678 47.992599 52.054783 55.71505 58.047577 61.973396 64.435104 68.231735 72.157555 74.224533 78.021164 82.212532 86.274719 90.336899 94.262718 98.324898 100.39188 105.11434 106.7794 110.70522 112.7722 117.09993 118.765 121.09752 125.02334 128.81998 131.1525 133.21947 137.14529 141.20747 144.86775 146.93472 151.26245 155.18828 161.38202 163.44901 168.43701 172.49919 176.42502 180.4872 182.94891 187.01109 190.9369 194.73354 198.65936"
         y="0"
         sodipodi:role="line"
         id="tspan212">Die Buchrückenstärke können Sie direkt aus dem Buchrücken</tspan></text>
<text
       transform="matrix(1,0,0,-1,749.3145,304.6172)"
       id="text214"><tspan
         style="font-size:7.17700005px;font-variant:normal;font-weight:normal;font-stretch:normal;writing-mode:lr-tb;fill:#231f20;fill-opacity:1;fill-rule:nonzero;stroke:none;font-family:Helvetica Neue;-inkscape-font-specification:HelveticaNeue"
         x="0"
         y="0"
         id="tspan216">-</tspan></text>
<text
       transform="matrix(1,0,0,-1,546.5945,296.0047)"
       id="text218"><tspan
         style="font-size:7.17700005px;font-variant:normal;font-weight:normal;font-stretch:normal;writing-mode:lr-tb;fill:#231f20;fill-opacity:1;fill-rule:nonzero;stroke:none;font-family:Helvetica Neue;-inkscape-font-specification:HelveticaNeue"
         x="0 2.332525 6.2583442 10.184163 14.246345 18.308527 22.234346 24.696056 26.763033 30.688852 34.751034 37.083557 41.145741 45.07156 49.133743 55.327492 59.253311 63.315495 65.382469 67.31308 70.973351 72.63842 76.56424 80.626419 84.552238 86.619209 92.1455 96.207687 97.872749 99.537811 103.6 107.52581 110.38943 115.24827 119.17409 120.83915 124.63578 128.69797 130.36302 134.28885 136.62137 138.28644 142.4778 146.53999 148.4706"
         y="0"
         sodipodi:role="line"
         id="tspan220">rechner entnehmen (siehe Online-Kalkulation).</tspan></text>
<text
       transform="matrix(1,0,0,-1,546.5945,278.7798)"
       id="text222"><tspan
         style="font-size:7.17700005px;font-variant:normal;font-weight:normal;font-stretch:normal;writing-mode:lr-tb;fill:#231f20;fill-opacity:1;fill-rule:nonzero;stroke:none;font-family:Helvetica Neue;-inkscape-font-specification:HelveticaNeue"
         x="0 5.1243782 9.0501966 11.382722 15.308541 16.973604 21.301336 23.633862 27.559681 29.224745 31.557268 35.483089 37.550064 39.617039 43.679222 47.741405 51.803585 53.870564 60.064312 66.186295"
         y="0"
         sodipodi:role="line"
         id="tspan224">Dateibreite: 303 mm </tspan></text>
<text
       transform="matrix(1,0,0,-1,546.5945,270.1674)"
       id="text226"><tspan
         style="font-size:7.17700005px;font-variant:normal;font-weight:normal;font-stretch:normal;writing-mode:lr-tb;fill:#231f20;fill-opacity:1;fill-rule:nonzero;stroke:none;font-family:Helvetica Neue;-inkscape-font-specification:HelveticaNeue"
         x="0 3.5167301 7.5789118 11.239182 15.165001 17.497526 21.014256 22.679319 24.344383 28.270203 32.332386 34.399361 38.461544 40.528519 46.722271 52.916019 54.982998 59.971012 63.896832 67.557098 71.482918 75.545105 79.607285 81.272346 83.604874 85.937401 88.004372 90.336899 94.262718 98.188538 102.25072 104.58324 108.24352 110.31049 114.37267 118.43485 122.76259 124.82956 126.49462 128.15968 132.22188 136.01851 139.67877 141.74574 146.12372 148.19069 152.25288 156.31506 160.37724 162.44421 168.63797"
         y="0"
         sodipodi:role="line"
         id="tspan228">zusätzlich 3 mm Beschnitt rechts und links = 309 mm</tspan></text>
<text
       transform="matrix(1,0,0,-1,546.5945,252.9425)"
       id="text230"><tspan
         style="font-size:7.17700005px;font-variant:normal;font-weight:normal;font-stretch:normal;writing-mode:lr-tb;fill:#231f20;fill-opacity:1;fill-rule:nonzero;stroke:none;font-family:Helvetica Neue;-inkscape-font-specification:HelveticaNeue"
         x="0 5.1243782 9.0501966 11.382722 15.308541 16.973604 21.035788 25.227156 29.289337 33.215157 35.282131 37.34911 41.411289 45.473473 49.535652 51.602631 57.796383 63.918362"
         y="0"
         sodipodi:role="line"
         id="tspan232">Dateihöhe: 210 mm </tspan></text>
<text
       transform="matrix(1,0,0,-1,546.5945,244.3301)"
       id="text234"><tspan
         style="font-size:7.17700005px;font-variant:normal;font-weight:normal;font-stretch:normal;writing-mode:lr-tb;fill:#231f20;fill-opacity:1;fill-rule:nonzero;stroke:none;font-family:Helvetica Neue;-inkscape-font-specification:HelveticaNeue"
         x="0 3.5167301 7.5789118 11.239182 15.165001 17.497526 21.014256 22.679319 24.344383 28.270203 32.332386 34.399361 38.461544 40.528519 46.722271 52.916019 54.982998 59.971012 63.896832 67.557098 71.482918 75.545105 79.607285 81.272346 83.604874 85.937401 88.004372 92.19574 96.523476 100.4493 104.51147 106.57845 110.64063 114.70281 119.03055 121.09752 125.15971 129.22188 131.55441 135.48022 139.5424 141.60939 145.98735 148.05434 152.11652 156.1787 160.24088 162.30786 168.5016"
         y="0"
         sodipodi:role="line"
         id="tspan236">zusätzlich 3 mm Beschnitt oben und unten = 216 mm</tspan></text>
<g
       id="g238"
       transform="translate(546.5945,173.6378)"><path
         d="M 0,0 11.461,0"
         style="fill:none;stroke:#ed1c24;stroke-width:0.5;stroke-linecap:butt;stroke-linejoin:miter;stroke-miterlimit:4;stroke-opacity:1;stroke-dasharray:none"
         id="path240"
         inkscape:connector-curvature="0" /></g><g
       id="g254"
       transform="translate(21.8942,5.4622)"><path
         d="M 0,0 0,601.359"
         style="fill:none;stroke:#231f20;stroke-width:1;stroke-linecap:butt;stroke-linejoin:miter;stroke-miterlimit:4;stroke-opacity:1;stroke-dasharray:none"
         id="path256"
         inkscape:connector-curvature="0" /></g><g
       id="g258"
       transform="translate(19.3428,7.0119)"><path
         d="M 0,0 2.551,-7.012 5.103,0 0,0 z"
         style="fill:#231f20;fill-opacity:1;fill-rule:nonzero;stroke:none"
         id="path260"
         inkscape:connector-curvature="0" /></g><g
       id="g262"
       transform="translate(21.8942,612.2834)"><path
         d="m 0,0 -2.552,-7.012 5.104,0 L 0,0 z"
         style="fill:#231f20;fill-opacity:1;fill-rule:nonzero;stroke:none"
         id="path264"
         inkscape:connector-curvature="0" /></g><g
       id="g266"
       transform="translate(5.4622,23.1708)"><path
         d="M 0,0 185.022,0"
         style="fill:none;stroke:#231f20;stroke-width:1;stroke-linecap:butt;stroke-linejoin:miter;stroke-miterlimit:4;stroke-opacity:1;stroke-dasharray:none"
         id="path268"
         inkscape:connector-curvature="0" /></g><g
       id="g270"
       transform="translate(0,23.1705)"><path
         d="m 0,0 7.012,-2.551 0,5.103 L 0,0 z"
         style="fill:#231f20;fill-opacity:1;fill-rule:nonzero;stroke:none"
         id="path272"
         inkscape:connector-curvature="0" /></g><g
       id="g274"
       transform="translate(190.4843,25.4208)"><path
         d="M 0,0 0,-4.5"
         style="fill:none;stroke:#231f20;stroke-width:1;stroke-linecap:butt;stroke-linejoin:miter;stroke-miterlimit:4;stroke-opacity:1;stroke-dasharray:none"
         id="path276"
         inkscape:connector-curvature="0" /></g><g
       id="g292"
       transform="translate(378.9252,23.3137)"><path
         d="M 0,0 491.518,0"
         style="fill:none;stroke:#231f20;stroke-width:1;stroke-linecap:butt;stroke-linejoin:miter;stroke-miterlimit:4;stroke-opacity:1;stroke-dasharray:none"
         id="path294"
         inkscape:connector-curvature="0" /></g><g
       id="g296"
       transform="translate(378.9252,25.5637)"><path
         d="M 0,0 0,-4.5"
         style="fill:none;stroke:#231f20;stroke-width:1;stroke-linecap:butt;stroke-linejoin:miter;stroke-miterlimit:4;stroke-opacity:1;stroke-dasharray:none"
         id="path298"
         inkscape:connector-curvature="0" /></g><g
       id="g300"
       transform="translate(875.9055,23.3137)"><path
         d="m 0,0 -7.012,2.552 0,-5.104 L 0,0 z"
         style="fill:#231f20;fill-opacity:1;fill-rule:nonzero;stroke:none"
         id="path302"
         inkscape:connector-curvature="0" /></g><g
       id="g304"
       transform="translate(853.5112,5.4622)"><path
         d="M 0,0 0,601.359"
         style="fill:none;stroke:#231f20;stroke-width:1;stroke-linecap:butt;stroke-linejoin:miter;stroke-miterlimit:4;stroke-opacity:1;stroke-dasharray:none"
         id="path306"
         inkscape:connector-curvature="0" /></g><g
       id="g308"
       transform="translate(850.959,7.0119)"><path
         d="M 0,0 2.552,-7.012 5.104,0 0,0 z"
         style="fill:#231f20;fill-opacity:1;fill-rule:nonzero;stroke:none"
         id="path310"
         inkscape:connector-curvature="0" /></g><g
       id="g312"
       transform="translate(853.5112,612.2834)"><path
         d="m 0,0 -2.552,-7.012 5.104,0 L 0,0 z"
         style="fill:#231f20;fill-opacity:1;fill-rule:nonzero;stroke:none"
         id="path314"
         inkscape:connector-curvature="0" /></g></g><g
     inkscape:groupmode="layer"
     id="layer1"
     inkscape:label="BUILD"
     style="display:none"
     sodipodi:insensitive="true"><path
       d="m 0,765.3525 535.03937,0 0,-765.35375023 -535.03937,0 z"
       style="opacity:0.5;fill:#f58214;fill-opacity:1;fill-rule:nonzero;stroke:none;display:inline"
       id="path12-2"
       inkscape:connector-curvature="0"
       sodipodi:nodetypes="ccccc" /><path
       inkscape:connector-curvature="0"
       id="path3310"
       style="opacity:0.5;fill:#f58214;fill-opacity:1;fill-rule:nonzero;stroke:none;display:inline"
       d="m 559.84252,765.3525 535.03938,0 0,-765.35375023 -535.03938,0 0,765.35375023 z" /><path
       inkscape:connector-curvature="0"
       id="path3312"
       style="opacity:0.5;fill:#ff00ff;fill-opacity:1;fill-rule:nonzero;stroke:none;display:inline"
       d="m 10.629921,754.72384 524.409449,0 0,-744.094489 -524.409449,0 0,744.094489 z" /><path
       d="m 559.84252,754.72384 524.40948,0 0,-744.094489 -524.40948,0 0,744.094489 z"
       style="opacity:0.5;fill:#ff00ff;fill-opacity:1;fill-rule:nonzero;stroke:none;display:inline"
       id="path3314"
       inkscape:connector-curvature="0" /><path
       d="m 535.03937,765.35376 24.80315,0 0,-765.35433146875 -24.80315,0 0,765.35433146875 z"
       style="opacity:0.5;fill:#00ff00;fill-opacity:1;fill-rule:nonzero;stroke:none;display:inline"
       id="path3316"
       inkscape:connector-curvature="0" /><text
       sodipodi:linespacing="125%"
       id="text3237"
       y="-23.87475"
       x="272.62845"
       style="font-size:7.57278013px;font-style:normal;font-variant:normal;font-weight:300;font-stretch:normal;text-align:center;line-height:125%;letter-spacing:0px;word-spacing:0px;writing-mode:lr-tb;text-anchor:middle;fill:#000000;fill-opacity:1;stroke:none;display:inline;font-family:Source Code Pro;-inkscape-font-specification:Source Code Pro Light"
       xml:space="preserve"><tspan
         y="-23.87475"
         x="272.62845"
         id="tspan3239"
         sodipodi:role="line">148mm</tspan></text>
<text
       xml:space="preserve"
       style="font-size:7.57278013px;font-style:normal;font-variant:normal;font-weight:300;font-stretch:normal;text-align:center;line-height:125%;letter-spacing:0px;word-spacing:0px;writing-mode:lr-tb;text-anchor:middle;fill:#000000;fill-opacity:1;stroke:none;display:inline;font-family:Source Code Pro;-inkscape-font-specification:Source Code Pro Light"
       x="272.62845"
       y="-33.874752"
       id="text3241"
       sodipodi:linespacing="125%"><tspan
         sodipodi:role="line"
         id="tspan3243"
         x="272.62845"
         y="-33.874752">154mm</tspan></text>
<path
       sodipodi:nodetypes="cccccccccc"
       inkscape:connector-curvature="0"
       d="m 534.04116,-38.272123 1.97787,1.977875 -1.97787,1.977875 m -531.2886975,0 -1.97787501,-1.977875 1.97787501,-1.977875 m 283.6210975,1.977875 249.66403,0 m -535.28157751,0 258.53918751,0"
       style="color:#000000;fill:none;stroke:#000000;stroke-width:0.19999999;stroke-linecap:butt;stroke-linejoin:bevel;stroke-miterlimit:4;stroke-opacity:1;stroke-dasharray:none;stroke-dashoffset:0;marker:none;visibility:visible;display:inline;overflow:visible;enable-background:accumulate"
       id="path3245" /><path
       id="path3247"
       style="color:#000000;fill:none;stroke:#000000;stroke-width:0.19999999;stroke-linecap:butt;stroke-linejoin:bevel;stroke-miterlimit:4;stroke-opacity:1;stroke-dasharray:none;stroke-dashoffset:0;marker:none;visibility:visible;display:inline;overflow:visible;enable-background:accumulate"
       d="m 530.49785,-28.272124 1.97787,1.977875 -1.97787,1.977875 m -517.745388,0 -1.977875,-1.977875 1.977875,-1.977875 m 273.621098,1.977875 246.12072,0 m -521.738268,0 248.539188,0"
       inkscape:connector-curvature="0"
       sodipodi:nodetypes="cccccccccc" /><path
       d="m 28.34625,737.0075 471.26,0 0,-708.66125 -471.26,0 0,708.66125 z"
       style="fill:#ffffff;fill-opacity:1;fill-rule:nonzero;stroke:none;display:inline"
       id="path34-0"
       inkscape:connector-curvature="0" /><path
       d="m 595.275,737.0075 471.26,0 0,-708.66125 -471.26,0 0,708.66125 z"
       style="fill:#ffffff;fill-opacity:1;fill-rule:nonzero;stroke:none;display:inline"
       id="path16-7"
       inkscape:connector-curvature="0" /></g><g
     inkscape:label="XX_REF"
     id="g3354"
     inkscape:groupmode="layer"
     style="display:inline"><path
       style="color:#000000;fill:#f2f2f2;fill-opacity:1;fill-rule:nonzero;stroke:none;stroke-width:1;marker:none;visibility:visible;display:inline;overflow:visible;enable-background:accumulate"
       d="M 0,-5.7070866e-4 0,765.35376 l 535.03937,0 0,-10.62515 -524.414209,0 0,-744.104034 524.414209,0 0,-10.62514670866 -535.03937,0 z"
       id="path3356"
       inkscape:connector-curvature="0" /><path
       inkscape:connector-curvature="0"
       id="path3364"
       style="opacity:0.5;fill:#00ff00;fill-opacity:1;fill-rule:nonzero;stroke:none;display:inline"
       d="m 535.03937,765.35376 24.80315,0 0,-765.35433146875 -24.80315,0 0,765.35433146875 z" /><text
       xml:space="preserve"
       style="font-size:7.57278013px;font-style:normal;font-variant:normal;font-weight:300;font-stretch:normal;text-align:center;line-height:125%;letter-spacing:0px;word-spacing:0px;writing-mode:lr-tb;text-anchor:middle;fill:#000000;fill-opacity:1;stroke:none;display:inline;font-family:Source Code Pro;-inkscape-font-specification:Source Code Pro Light"
       x="272.62845"
       y="-23.87475"
       id="text3366"
       sodipodi:linespacing="125%"><tspan
         sodipodi:role="line"
         id="tspan3368"
         x="272.62845"
         y="-23.87475">148mm</tspan></text>
<text
       sodipodi:linespacing="125%"
       id="text3370"
       y="-33.874752"
       x="272.62845"
       style="font-size:7.57278013px;font-style:normal;font-variant:normal;font-weight:300;font-stretch:normal;text-align:center;line-height:125%;letter-spacing:0px;word-spacing:0px;writing-mode:lr-tb;text-anchor:middle;fill:#000000;fill-opacity:1;stroke:none;display:inline;font-family:Source Code Pro;-inkscape-font-specification:Source Code Pro Light"
       xml:space="preserve"><tspan
         y="-33.874752"
         x="272.62845"
         id="tspan3372"
         sodipodi:role="line">154mm</tspan></text>
<path
       id="path3374"
       style="color:#000000;fill:none;stroke:#000000;stroke-width:0.19999999;stroke-linecap:butt;stroke-linejoin:bevel;stroke-miterlimit:4;stroke-opacity:1;stroke-dasharray:none;stroke-dashoffset:0;marker:none;visibility:visible;display:inline;overflow:visible;enable-background:accumulate"
       d="m 533.04005,-38.272123 1.97787,1.977875 -1.97787,1.977875 m -530.2875875,0 -1.97787501,-1.977875 1.97787501,-1.977875 m 283.6210975,1.977875 248.66292,0 m -534.28046751,0 258.53918751,0"
       inkscape:connector-curvature="0"
       sodipodi:nodetypes="cccccccccc" /><path
       sodipodi:nodetypes="cccccccccc"
       inkscape:connector-curvature="0"
       d="m 495.95512,-28.272124 1.97787,1.977875 -1.97787,1.977875 m -483.202658,0 -1.977875,-1.977875 1.977875,-1.977875 m 273.621098,1.977875 211.57799,0 m -487.195538,0 248.539188,0"
       style="color:#000000;fill:none;stroke:#000000;stroke-width:0.19999999;stroke-linecap:butt;stroke-linejoin:bevel;stroke-miterlimit:4;stroke-opacity:1;stroke-dasharray:none;stroke-dashoffset:0;marker:none;visibility:visible;display:inline;overflow:visible;enable-background:accumulate"
       id="path3376" /><path
       inkscape:connector-curvature="0"
       id="path3385"
       d="m 1094.8819,-5.7023438e-4 0,765.35433023438 -535.03938,0 0,-10.62515 524.41418,0 0,-744.104033 -524.41418,0 0,-10.62514723438 535.03938,0 z"
       style="color:#000000;fill:#f2f2f2;fill-opacity:1;fill-rule:nonzero;stroke:none;stroke-width:1;marker:none;visibility:visible;display:inline;overflow:visible;enable-background:accumulate" /><path
       style="fill:#ffd5d5;fill-opacity:1;fill-rule:nonzero;stroke:none;display:inline;color:#000000;stroke-width:1;marker:none;visibility:visible;overflow:visible;enable-background:accumulate"
       d="m 10.629921,10.630089 0,744.093751 524.409449,0 0,-744.093751 -524.409449,0 z m 17.718858,17.71875 471.252871,0 0,708.656251 -471.252871,0 0,-708.656251 z"
       id="path3312-7"
       inkscape:connector-curvature="0" /><path
       inkscape:connector-curvature="0"
       id="path3482"
       d="m 1084.252,10.63009 0,744.09375 -524.40948,0 0,-744.09375 524.40948,0 z m -17.7189,17.71875 -471.25286,0 0,708.65625 471.25286,0 0,-708.65625 z"
       style="color:#000000;fill:#ffd5d5;fill-opacity:1;fill-rule:nonzero;stroke:none;stroke-width:1;marker:none;visibility:visible;display:inline;overflow:visible;enable-background:accumulate" /><text
       xml:space="preserve"
       style="font-size:7.57278013px;font-style:normal;font-variant:normal;font-weight:300;font-stretch:normal;text-align:center;line-height:125%;letter-spacing:0px;word-spacing:0px;writing-mode:lr-tb;text-anchor:middle;fill:#000000;fill-opacity:1;stroke:none;display:inline;font-family:Source Code Pro;-inkscape-font-specification:Source Code Pro Light"
       x="382.47095"
       y="-615.45654"
       id="text3249"
       sodipodi:linespacing="125%"
       transform="matrix(0,1,-1,0,0,0)"><tspan
         sodipodi:role="line"
         id="tspan3251"
         x="382.47095"
         y="-615.45654">210mm</tspan></text>
<text
       sodipodi:linespacing="125%"
       id="text3253"
       y="-625.45654"
       x="382.47095"
       style="font-size:7.57278013px;font-style:normal;font-variant:normal;font-weight:300;font-stretch:normal;text-align:center;line-height:125%;letter-spacing:0px;word-spacing:0px;writing-mode:lr-tb;text-anchor:middle;fill:#000000;fill-opacity:1;stroke:none;display:inline;font-family:Source Code Pro;-inkscape-font-specification:Source Code Pro Light"
       xml:space="preserve"
       transform="matrix(0,1,-1,0,0,0)"><tspan
         y="-625.45654"
         x="382.47095"
         id="tspan3255"
         sodipodi:role="line">216mm</tspan></text>
<path
       id="path3257"
       style="color:#000000;fill:none;stroke:#000000;stroke-width:0.19999999;stroke-linecap:butt;stroke-linejoin:bevel;stroke-miterlimit:4;stroke-opacity:1;stroke-dasharray:none;stroke-dashoffset:0;marker:none;visibility:visible;display:inline;overflow:visible;enable-background:accumulate"
       d="m 629.8539,762.75881 -1.97787,1.97787 -1.97788,-1.97787 m 0,-760.1638402 1.97788,-1.97787504 1.97787,1.97787504 m -1.97787,393.6211002 0,368.53917 m 0,-764.15672024 0,368.53919024"
       inkscape:connector-curvature="0"
       sodipodi:nodetypes="cccccccccc" /><path
       sodipodi:nodetypes="cccccccccc"
       inkscape:connector-curvature="0"
       d="m 619.8539,751.75881 -1.97787,1.97787 -1.97788,-1.97787 m 0,-738.16384 1.97788,-1.977875 1.97787,1.977875 m -1.97787,382.6211 0,357.53917 m 0,-742.15672 0,357.53919"
       style="color:#000000;fill:none;stroke:#000000;stroke-width:0.19999999;stroke-linecap:butt;stroke-linejoin:bevel;stroke-miterlimit:4;stroke-opacity:1;stroke-dasharray:none;stroke-dashoffset:0;marker:none;visibility:visible;display:inline;overflow:visible;enable-background:accumulate"
       id="path3259" /></g></svg>