<?xml version="1.0" encoding="UTF-8" standalone="no"?>
<!-- Created with Inkscape (http://www.inkscape.org/) -->

<svg
   xmlns:dc="http://purl.org/dc/elements/1.1/"
   xmlns:cc="http://creativecommons.org/ns#"
   xmlns:rdf="http://www.w3.org/1999/02/22-rdf-syntax-ns#"
   xmlns:svg="http://www.w3.org/2000/svg"
   xmlns="http://www.w3.org/2000/svg"
   xmlns:sodipodi="http://sodipodi.sourceforge.net/DTD/sodipodi-0.dtd"
   xmlns:inkscape="http://www.inkscape.org/namespaces/inkscape"
   id="svg2"
   version="1.1"
   inkscape:version="0.48.3.1 r9886"
   width="138.18875"
   height="138.18875"
   xml:space="preserve"
   sodipodi:docname="Dateivorlagen_137_de.svg"><metadata
     id="metadata8"><rdf:RDF><cc:Work
         rdf:about=""><dc:format>image/svg+xml</dc:format><dc:type
           rdf:resource="http://purl.org/dc/dcmitype/StillImage" /><dc:title></dc:title></cc:Work></rdf:RDF></metadata><defs
     id="defs6"><clipPath
       clipPathUnits="userSpaceOnUse"
       id="clipPath22"><path
         d="m 0,0 83.6466,0 0,22.6072 L 0,22.6072 0,0 z"
         id="path24"
         inkscape:connector-curvature="0" /></clipPath><clipPath
       clipPathUnits="userSpaceOnUse"
       id="clipPath42"><path
         d="m 0.06,110.52 110.491,0 0,-110.52 -110.491,0 0,110.52 z"
         id="path44"
         inkscape:connector-curvature="0" /></clipPath></defs><sodipodi:namedview
     pagecolor="#ffffff"
     bordercolor="#666666"
     borderopacity="1"
     objecttolerance="10"
     gridtolerance="10"
     guidetolerance="10"
     inkscape:pageopacity="0"
     inkscape:pageshadow="2"
     inkscape:window-width="640"
     inkscape:window-height="480"
     id="namedview4"
     showgrid="false"
     units="mm"
     inkscape:zoom="2.2851016"
     inkscape:cx="91.563269"
     inkscape:cy="62.446477"
     inkscape:current-layer="layer4"
     showguides="true"
     inkscape:guide-bbox="true"><sodipodi:guide
       position="0,138.18875"
       orientation="138.1875,0"
       id="guide3612" /><sodipodi:guide
       position="0,0.0012512207"
       orientation="0,138.1875"
       id="guide3614" /><sodipodi:guide
       position="138.1875,0.0012512207"
       orientation="-138.1875,0"
       id="guide3616" /><sodipodi:guide
       position="138.1875,138.18875"
       orientation="0,-138.1875"
       id="guide3618" /><sodipodi:guide
       position="0,138.18875"
       orientation="0,0"
       id="guide3620" /><sodipodi:guide
       position="10.62981,127.55894"
       orientation="116.92913,0"
       id="guide3640" /><sodipodi:guide
       position="10.62981,10.62981"
       orientation="0,116.92913"
       id="guide3642" /><sodipodi:guide
       position="127.55894,10.62981"
       orientation="-116.92913,0"
       id="guide3644" /><sodipodi:guide
       position="127.55894,127.55894"
       orientation="0,-116.92913"
       id="guide3646" /></sodipodi:namedview><g
     id="g10"
     inkscape:groupmode="layer"
     inkscape:label="Dateivorlagen_137_de"
     transform="matrix(1.25,0,0,-1.25,0,138.18875)"
     style="display:inline"
     sodipodi:insensitive="true"><path
       inkscape:connector-curvature="0"
       id="path32"
       style="opacity:0.5;fill:#ed1c24;fill-opacity:1;fill-rule:evenodd;stroke:none"
       d="m 48.883612,57.590835 c 1.725427,-0.192302 3.034531,-0.789692 4.851814,-2.098135 2.234266,1.726088 9.082447,5.969277 18.594434,1.116802 0.05683,-0.03436 0.0119,-0.124236 -0.05617,-0.09119 -8.19231,3.306793 -15.887014,0.982654 -18.538264,-3.722455 -1.263507,2.234266 -3.035853,3.722455 -4.898072,4.750046 -0.0337,0.02247 0,0.04494 0.04626,0.04494" /><path
       inkscape:connector-curvature="0"
       id="path36"
       style="opacity:0.5;fill:#231f20;fill-opacity:1;fill-rule:nonzero;stroke:none"
       d="m 78.960432,52.908195 0,1.05865 0,0.111019 c 0,0.03833 -0.0013,0.07666 -0.004,0.113663 -0.0026,0.04758 -0.0079,0.09186 -0.01388,0.132166 -0.0066,0.04031 -0.0185,0.07533 -0.03767,0.105072 -0.01916,0.0304 -0.04494,0.05353 -0.07996,0.07137 -0.0337,0.01652 -0.07864,0.02511 -0.134149,0.02511 -0.04758,0 -0.09053,-0.0119 -0.129522,-0.03569 -0.03965,-0.02379 -0.076,-0.05485 -0.107055,-0.09318 -0.03106,-0.03899 -0.05881,-0.0826 -0.0826,-0.131505 -0.02445,-0.0489 -0.04361,-0.09978 -0.06014,-0.150669 -0.01718,-0.05022 -0.02842,-0.100446 -0.03767,-0.148687 -0.0079,-0.04824 -0.01057,-0.09119 -0.01057,-0.128201 l 0,-0.929127 -0.366099,0 0,1.05865 0,0.111019 c 0,0.03701 -0.0013,0.07534 -0.0053,0.113663 -0.0026,0.04427 -0.0066,0.08789 -0.01189,0.12754 -0.0053,0.04097 -0.01652,0.07666 -0.0337,0.107055 -0.01652,0.0304 -0.04229,0.05485 -0.07467,0.07269 -0.03238,0.01784 -0.076,0.02643 -0.131505,0.02643 -0.05419,0 -0.101768,-0.01388 -0.144722,-0.04163 -0.04229,-0.02776 -0.07996,-0.0641 -0.112341,-0.11102 -0.0337,-0.04494 -0.06146,-0.09714 -0.08525,-0.153973 -0.02181,-0.05749 -0.04097,-0.114324 -0.05551,-0.173138 -0.01388,-0.06013 -0.02577,-0.116966 -0.03172,-0.171815 -0.0066,-0.05485 -0.01057,-0.101768 -0.01057,-0.141418 l 0,-0.824055 -0.365439,0 0,1.940197 0.365439,0 0,-0.387907 0.0079,0 c 0.02313,0.06146 0.05022,0.118949 0.0826,0.171155 0.03304,0.05287 0.07071,0.0978 0.116967,0.136131 0.0456,0.03899 0.09582,0.06873 0.152651,0.09053 0.05551,0.02181 0.11895,0.03304 0.189658,0.03304 0.132827,0 0.243847,-0.03569 0.331737,-0.107055 0.08789,-0.07071 0.140757,-0.171155 0.161243,-0.30266 l 0.0079,0 c 0.02313,0.05881 0.05287,0.112341 0.08789,0.163225 0.03569,0.05022 0.07732,0.09384 0.122254,0.129523 0.04626,0.03701 0.09846,0.06542 0.155955,0.08591 0.05683,0.02049 0.11895,0.03106 0.185033,0.03106 0.09648,0 0.177763,-0.01718 0.245168,-0.05154 0.06674,-0.03436 0.120932,-0.08128 0.162564,-0.139435 0.04229,-0.05815 0.07203,-0.126219 0.09053,-0.204197 0.01784,-0.07666 0.02709,-0.157938 0.02709,-0.243185 l 0,-1.344789 -0.366761,0 z m -3.04973,0.968116 c 0,0.07599 -0.004,0.157277 -0.01454,0.243185 -0.0086,0.08525 -0.02974,0.163886 -0.05947,0.235256 -0.0304,0.07335 -0.07467,0.132827 -0.135471,0.179085 -0.06014,0.04692 -0.139435,0.07071 -0.238559,0.07071 -0.100446,0 -0.180407,-0.02313 -0.241203,-0.06939 -0.05815,-0.0456 -0.104411,-0.105072 -0.13547,-0.176441 -0.03106,-0.07203 -0.05155,-0.150009 -0.0608,-0.236577 -0.0093,-0.08591 -0.01454,-0.167851 -0.01454,-0.245829 0,-0.07666 0.0053,-0.157938 0.01454,-0.243846 0.0093,-0.08525 0.02974,-0.163886 0.0608,-0.235256 0.03106,-0.07203 0.07732,-0.130183 0.13547,-0.177763 0.0608,-0.04692 0.140757,-0.07005 0.241203,-0.07005 0.06608,0 0.122914,0.01057 0.170494,0.03238 0.0489,0.02181 0.08921,0.05154 0.120932,0.08789 0.0337,0.03767 0.0608,0.07996 0.08062,0.128201 0.01916,0.04824 0.03436,0.100446 0.04758,0.153973 0.0099,0.05419 0.01784,0.109698 0.02181,0.165208 0.004,0.05617 0.0066,0.108376 0.0066,0.15926 m 0.407732,6.61e-4 c 0,-0.140757 -0.0152,-0.272262 -0.04758,-0.395837 -0.03106,-0.123576 -0.08128,-0.229969 -0.148687,-0.321825 -0.06807,-0.09185 -0.157277,-0.164546 -0.264332,-0.216752 -0.108376,-0.05353 -0.240542,-0.0793 -0.395176,-0.0793 -0.154634,0 -0.288122,0.02511 -0.396498,0.07798 -0.11102,0.05221 -0.198249,0.123575 -0.266976,0.21543 -0.06806,0.09186 -0.117627,0.19891 -0.149347,0.322485 -0.03106,0.123575 -0.04692,0.255741 -0.04692,0.39782 0,0.1434 0.01586,0.276888 0.04692,0.399802 0.03172,0.123575 0.08128,0.23063 0.149347,0.321163 0.06873,0.09053 0.155956,0.162564 0.266976,0.21477 0.108376,0.05221 0.241864,0.07864 0.396498,0.07864 0.154634,0 0.2868,-0.02643 0.396498,-0.07864 0.108376,-0.05221 0.196266,-0.124236 0.265653,-0.215431 0.06741,-0.09186 0.117628,-0.19957 0.147366,-0.323145 0.03106,-0.122915 0.04626,-0.255081 0.04626,-0.397159 m -2.390222,0.338345 c 0,0.05022 -0.0053,0.09846 -0.01322,0.145382 -0.0073,0.04692 -0.02445,0.08855 -0.04758,0.124236 -0.02181,0.03635 -0.05154,0.06542 -0.09053,0.08789 -0.03965,0.02115 -0.08789,0.03172 -0.146704,0.03172 -0.07666,0 -0.139435,-0.0185 -0.19098,-0.05683 -0.05088,-0.03833 -0.09053,-0.08657 -0.121592,-0.146043 -0.02974,-0.05947 -0.05022,-0.122915 -0.06344,-0.192302 -0.01123,-0.06873 -0.01784,-0.133487 -0.01784,-0.194284 0,-0.121592 0.0152,-0.235916 0.04494,-0.341649 0.03106,-0.106393 0.07732,-0.197588 0.140757,-0.275566 0.06344,-0.07666 0.1434,-0.138113 0.238559,-0.182389 0.09714,-0.04494 0.213448,-0.06608 0.344954,-0.06608 0.05287,0 0.104411,0.0026 0.155956,0.0073 0.05154,0.0053 0.101107,0.01586 0.152651,0.03172 l 0,-0.252437 c -0.08789,-0.02577 -0.175781,-0.0456 -0.266314,-0.05617 -0.08855,-0.01123 -0.180407,-0.01652 -0.270941,-0.01652 -0.162564,0 -0.304642,0.02775 -0.424252,0.08525 -0.11895,0.05683 -0.216753,0.134148 -0.294731,0.231951 -0.07864,0.09912 -0.13547,0.213448 -0.173798,0.344953 -0.03767,0.130845 -0.05683,0.271601 -0.05683,0.420949 0,0.134809 0.01652,0.260367 0.0489,0.376012 0.03106,0.113663 0.07996,0.213448 0.148687,0.298695 0.06674,0.08459 0.151991,0.15133 0.25508,0.19891 0.104411,0.04758 0.229969,0.07137 0.376013,0.07137 0.219395,0 0.389228,-0.05749 0.5095,-0.173138 0.121592,-0.115645 0.182389,-0.282835 0.182389,-0.502891 l -0.419627,0 z m -2.078311,-0.744095 0.561706,0 0,-0.563027 -0.561706,0 0,0.563027 z m -0.798943,0.933092 c -0.01652,0.04097 -0.04229,0.07732 -0.07335,0.106394 -0.03238,0.0304 -0.07005,0.05353 -0.112342,0.07005 -0.04361,0.01586 -0.09053,0.02379 -0.140756,0.02379 -0.07996,0 -0.15067,-0.0185 -0.214109,-0.05617 -0.06344,-0.03767 -0.11102,-0.09318 -0.144722,-0.16719 -0.0079,-0.01784 -0.01388,-0.03701 -0.02049,-0.05749 -0.0053,-0.01916 -0.0093,-0.03899 -0.0093,-0.05881 l 0.742112,0 c 0,0.05088 -0.0086,0.0978 -0.02709,0.139435 m -0.730217,-0.383942 c 0,-0.107715 0.01388,-0.214109 0.04361,-0.31852 0.02842,-0.105072 0.07401,-0.198249 0.130184,-0.279531 0.05947,-0.08194 0.133488,-0.147365 0.222039,-0.197588 0.09053,-0.05022 0.196266,-0.07534 0.319181,-0.07534 0.0641,0 0.126218,0.0053 0.184371,0.01784 0.05948,0.01123 0.120271,0.02842 0.181068,0.05154 l 0,-0.290765 c -0.0826,-0.01784 -0.164547,-0.0337 -0.243186,-0.04692 -0.07864,-0.0119 -0.159921,-0.01784 -0.242524,-0.01784 -0.171816,0 -0.319842,0.02709 -0.441435,0.0826 -0.120932,0.05551 -0.220717,0.133488 -0.296713,0.231291 -0.07732,0.09912 -0.134148,0.216752 -0.169172,0.351561 -0.03635,0.135471 -0.05419,0.283496 -0.05419,0.443417 0,0.132166 0.01586,0.253759 0.04494,0.365439 0.02974,0.112341 0.07666,0.208823 0.140757,0.291426 0.06476,0.08194 0.147365,0.146044 0.24649,0.192963 0.09978,0.04626 0.219395,0.06939 0.35883,0.06939 0.11895,0 0.222039,-0.01982 0.30993,-0.05881 0.08657,-0.03899 0.158599,-0.09318 0.216752,-0.161903 0.05815,-0.06873 0.102429,-0.15133 0.129523,-0.247151 0.02908,-0.09516 0.04361,-0.198249 0.04361,-0.309929 l 0,-0.09318 -1.124071,0 z m -0.944987,0.413679 c -0.07732,-0.03965 -0.139435,-0.0945 -0.187015,-0.163225 -0.04626,-0.06873 -0.07996,-0.149347 -0.09979,-0.242524 -0.01916,-0.09318 -0.02775,-0.191641 -0.02775,-0.296052 l 0,-0.824055 -0.365439,0 0,1.940197 0.365439,0 0,-0.392533 0.0073,0 c 0.0456,0.134809 0.120271,0.241864 0.226004,0.31852 0.105732,0.07864 0.229968,0.116967 0.372708,0.116967 l 0,-0.398481 c -0.115646,0 -0.214109,-0.0185 -0.291426,-0.05881 m -1.736001,0.414341 0.366761,0 0,-1.940197 -0.366761,0 0,1.940197 z m -0.03634,0.870974 0.440112,0 0,-0.416323 -0.440112,0 0,0.416323 z m -0.957543,-2.811171 -0.387246,0 -0.402446,1.344789 -0.0093,0 -0.389889,-1.344789 -0.387907,0 -0.446722,1.940197 0.353545,0 0.305964,-1.406907 0.0073,0 0.423592,1.406907 0.277549,0 0.423592,-1.406907 0.0073,0 0.305964,1.406907 0.354866,0 -0.436148,-1.940197 z m -2.606974,1.525856 c -0.07732,-0.03965 -0.140757,-0.0945 -0.187015,-0.163225 -0.04692,-0.06873 -0.07996,-0.149347 -0.09979,-0.242524 -0.01916,-0.09318 -0.02842,-0.191641 -0.02842,-0.296052 l 0,-0.824055 -0.3661,0 0,1.940197 0.3661,0 0,-0.392533 0.0079,0 c 0.04361,0.134809 0.120271,0.241864 0.226004,0.31852 0.104411,0.07864 0.228647,0.116967 0.372708,0.116967 l 0,-0.398481 c -0.116967,0 -0.214109,-0.0185 -0.291426,-0.05881 m -1.574758,-0.02974 c -0.01784,0.04097 -0.04229,0.07732 -0.07335,0.106394 -0.03238,0.0304 -0.07005,0.05353 -0.113663,0.07005 -0.04295,0.01586 -0.08921,0.02379 -0.139435,0.02379 -0.07996,0 -0.15133,-0.0185 -0.214109,-0.05617 -0.06344,-0.03767 -0.11102,-0.09318 -0.144722,-0.16719 -0.0079,-0.01784 -0.01388,-0.03701 -0.02049,-0.05749 -0.0066,-0.01916 -0.0079,-0.03899 -0.0079,-0.05881 l 0.740791,0 c 0,0.05088 -0.0093,0.0978 -0.02709,0.139435 m -0.730217,-0.383942 c 0,-0.107715 0.0152,-0.214109 0.04361,-0.31852 0.02974,-0.105072 0.07203,-0.198249 0.131506,-0.279531 0.05815,-0.08194 0.131505,-0.147365 0.220717,-0.197588 0.08921,-0.05022 0.196266,-0.07534 0.317859,-0.07534 0.0641,0 0.126218,0.0053 0.185693,0.01784 0.05947,0.01123 0.11895,0.02842 0.180407,0.05154 l 0,-0.290765 c -0.0826,-0.01784 -0.162564,-0.0337 -0.241203,-0.04692 -0.07996,-0.0119 -0.161243,-0.01784 -0.243846,-0.01784 -0.173138,0 -0.319842,0.02709 -0.441435,0.0826 -0.121593,0.05551 -0.219395,0.133488 -0.296713,0.231291 -0.076,0.09912 -0.132826,0.216752 -0.169172,0.351561 -0.03635,0.135471 -0.05287,0.283496 -0.05287,0.443417 0,0.132166 0.01388,0.253759 0.04361,0.365439 0.02974,0.112341 0.07732,0.208823 0.140757,0.291426 0.06476,0.08194 0.147365,0.146044 0.24649,0.192963 0.09979,0.04626 0.218074,0.06939 0.357509,0.06939 0.118949,0 0.22336,-0.01982 0.311251,-0.05881 0.08789,-0.03899 0.159921,-0.09318 0.218074,-0.161903 0.05683,-0.06873 0.09912,-0.15133 0.128861,-0.247151 0.02842,-0.09516 0.04163,-0.198249 0.04163,-0.309929 l 0,-0.09318 -1.12275,0 z m -1.543699,-1.947466 -0.358831,0 0.273584,0.822733 -0.738148,1.952753 0.407733,0 0.508178,-1.402942 0.0079,0 0.455312,1.402942 0.408393,0 -0.964151,-2.775486 z m -1.589296,3.64646 0.36676,0 0,-2.811171 -0.36676,0 0,2.811171 z m -0.426897,-0.255081 c -0.06344,0.0093 -0.128862,0.01322 -0.197588,0.01322 -0.06476,0 -0.121593,-0.01057 -0.169172,-0.03304 -0.04758,-0.02313 -0.08657,-0.05353 -0.117628,-0.09119 -0.02908,-0.03833 -0.05287,-0.08525 -0.06807,-0.137453 -0.0152,-0.05353 -0.02313,-0.109697 -0.02313,-0.169172 l 0,-0.198249 0.578227,0 0,-0.287461 -0.578227,0 0,-1.652736 -0.365439,0 0,1.652736 -0.349579,0 0,0.287461 0.349579,0 0,0.222039 c 0,0.120932 0.01586,0.224682 0.05022,0.311912 0.0337,0.08723 0.0826,0.15926 0.146043,0.216752 0.06212,0.05749 0.140757,0.09912 0.232612,0.126218 0.09252,0.02643 0.195606,0.03899 0.31059,0.03899 0.06741,0 0.131505,-0.0026 0.19891,-0.0079 0.06476,-0.0046 0.128862,-0.01454 0.193623,-0.02974 l 0,-0.303982 c -0.06476,0.0185 -0.12754,0.03238 -0.19098,0.04163 m -8.475805,-0.672724 -1.072527,-2.516441 -0.330415,0 0.341649,0.766563 -0.732861,1.749878 0.337024,0 0.563688,-1.362632 0.569635,1.362632 0.323807,0 z m -2.382953,-0.913928 c 0,0.219395 -0.03569,0.385924 -0.108376,0.499587 -0.07203,0.113663 -0.189659,0.170494 -0.350901,0.170494 -0.08921,0 -0.180407,-0.01916 -0.272262,-0.05815 -0.09318,-0.03965 -0.178424,-0.08921 -0.257063,-0.150669 l 0,-1.053363 c 0.08789,-0.03965 0.162564,-0.06674 0.226004,-0.0826 0.06344,-0.0152 0.134148,-0.02247 0.214109,-0.02247 0.171816,0 0.305964,0.05617 0.403106,0.168512 0.09648,0.112341 0.145383,0.288782 0.145383,0.528664 m 0.319181,0.0086 c 0,-0.153312 -0.02115,-0.292086 -0.06476,-0.41434 -0.04361,-0.122914 -0.101767,-0.226665 -0.17578,-0.309929 -0.07732,-0.08657 -0.162565,-0.15133 -0.256402,-0.194945 -0.09318,-0.04361 -0.194945,-0.06476 -0.307286,-0.06476 -0.104412,0 -0.194945,0.01189 -0.273584,0.03701 -0.07732,0.02445 -0.155295,0.05749 -0.229969,0.09913 l -0.02049,-0.08525 -0.289443,0 0,2.560717 0.309929,0 0,-0.91525 c 0.08657,0.07137 0.178424,0.129523 0.276227,0.17512 0.09846,0.0456 0.208161,0.06873 0.329093,0.06873 0.216753,0 0.388568,-0.08326 0.514126,-0.250454 0.126219,-0.166529 0.188337,-0.401785 0.188337,-0.705767 m -3.719812,-0.480423 0,1.054685 c -0.08393,0.03701 -0.1586,0.06278 -0.224683,0.07732 -0.06608,0.01454 -0.138113,0.02181 -0.21543,0.02181 -0.173138,0 -0.308608,-0.0608 -0.40575,-0.181067 -0.09516,-0.120932 -0.144061,-0.292087 -0.144061,-0.513465 0,-0.218735 0.03701,-0.384603 0.112341,-0.498266 0.07467,-0.113663 0.193624,-0.169833 0.358831,-0.169833 0.08723,0 0.176442,0.01916 0.265654,0.05815 0.09053,0.03899 0.174459,0.08921 0.253098,0.150669 m 0.308607,-0.452669 -0.308607,0 0,0.192302 c -0.08921,-0.07666 -0.182389,-0.136792 -0.278871,-0.179085 -0.09714,-0.04295 -0.201553,-0.0641 -0.315216,-0.0641 -0.219395,0 -0.391872,0.08459 -0.521394,0.253097 -0.128862,0.169173 -0.193624,0.403107 -0.193624,0.703124 0,0.155295 0.02247,0.294069 0.06608,0.416322 0.04494,0.121593 0.104412,0.225343 0.180407,0.310591 0.07533,0.08393 0.161903,0.147365 0.261028,0.190979 0.09912,0.04428 0.202875,0.06608 0.308607,0.06608 0.09648,0 0.181729,-0.0099 0.256402,-0.0304 0.07533,-0.02049 0.153974,-0.05221 0.236578,-0.09516 l 0,0.796961 0.308607,0 0,-2.560717 z m -2.26136,1.124072 c 0,0.162564 -0.04163,0.288122 -0.122914,0.376673 -0.07996,0.08921 -0.202214,0.133488 -0.367422,0.133488 -0.165207,0 -0.297373,-0.0489 -0.395176,-0.146704 -0.09846,-0.0978 -0.153974,-0.218735 -0.167851,-0.363457 l 1.053363,0 z m 0.301999,-0.237238 -1.355362,0 c 0,-0.113002 0.01652,-0.211465 0.05155,-0.295391 0.0337,-0.08393 0.07996,-0.152651 0.139435,-0.20684 0.05683,-0.05221 0.124897,-0.09185 0.204196,-0.118288 0.07732,-0.02577 0.163886,-0.03899 0.259046,-0.03899 0.124236,0 0.250454,0.02445 0.377334,0.07467 0.126218,0.05022 0.216752,0.09912 0.27094,0.147365 l 0.01652,0 0,-0.337684 c -0.104412,-0.04362 -0.211466,-0.08062 -0.319842,-0.110359 -0.108376,-0.02974 -0.222039,-0.04428 -0.34231,-0.04428 -0.304643,0 -0.543202,0.0826 -0.713696,0.247812 -0.171816,0.165207 -0.257063,0.399141 -0.257063,0.703123 0,0.300678 0.08128,0.539237 0.245168,0.71634 0.163885,0.176441 0.381299,0.264992 0.648274,0.264992 0.247811,0 0.438791,-0.07269 0.572939,-0.217413 0.135471,-0.144721 0.202875,-0.35024 0.202875,-0.617215 l 0,-0.167851 z m -1.913103,-0.870313 c -0.05815,-0.01586 -0.120931,-0.02842 -0.189658,-0.03767 -0.06806,-0.0099 -0.130183,-0.0152 -0.18305,-0.0152 -0.188336,0 -0.330415,0.05022 -0.428878,0.15133 -0.0978,0.101107 -0.145383,0.26301 -0.145383,0.48571 l 0,0.977367 -0.209483,0 0,0.260368 0.209483,0 0,0.528003 0.307947,0 0,-0.528003 0.639022,0 0,-0.260368 -0.639022,0 0,-0.837932 c 0,-0.09648 0.0026,-0.171816 0.0066,-0.226004 0.0053,-0.05419 0.02049,-0.105072 0.04626,-0.151991 0.02511,-0.04427 0.05815,-0.07599 0.09979,-0.09648 0.04229,-0.02049 0.107054,-0.0304 0.193623,-0.0304 0.05022,0 0.103089,0.0073 0.157277,0.02247 0.05551,0.01454 0.09582,0.02709 0.11895,0.03701 l 0.01652,0 0,-0.27821 z m -1.549646,-0.01652 -0.309929,0 0,1.046755 c 0,0.08459 -0.0053,0.163225 -0.01454,0.237899 -0.0099,0.07401 -0.02842,0.131505 -0.05419,0.173137 -0.02842,0.04626 -0.06674,0.08062 -0.118288,0.10309 -0.05221,0.02247 -0.118949,0.0337 -0.201553,0.0337 -0.08393,0 -0.173138,-0.02049 -0.264993,-0.06278 -0.09119,-0.04163 -0.180407,-0.0945 -0.264332,-0.15926 l 0,-1.372544 -0.309929,0 0,1.83843 0.309929,0 0,-0.204197 c 0.09714,0.07996 0.196266,0.142739 0.299356,0.187676 0.103089,0.04494 0.209483,0.0674 0.317859,0.0674 0.198249,0 0.349579,-0.06014 0.45399,-0.179745 0.104411,-0.11895 0.156617,-0.291426 0.156617,-0.516109 l 0,-1.193459 z m -2.149019,0 -0.309929,0 0,1.83843 0.309929,0 0,-1.83843 z m 0.01916,2.145715 -0.348257,0 0,0.320503 0.348257,0 0,-0.320503 z m -0.623824,-0.64497 -0.01652,0 c -0.04626,0.01057 -0.09053,0.01916 -0.134149,0.02379 -0.04361,0.0053 -0.0945,0.0073 -0.153312,0.0073 -0.09582,0 -0.188998,-0.02115 -0.276227,-0.06278 -0.08921,-0.04229 -0.175781,-0.09714 -0.257063,-0.164547 l 0,-1.304479 -0.309929,0 0,1.838429 0.309929,0 0,-0.272261 c 0.122253,0.09912 0.23129,0.169172 0.325128,0.210143 0.09318,0.04097 0.188337,0.06212 0.2868,0.06212 0.05419,0 0.09252,-0.0013 0.116967,-0.0046 0.02379,-0.0026 0.05947,-0.0073 0.108376,-0.0152 l 0,-0.31786 z m -1.948787,-0.567653 c 0,0.221378 -0.03701,0.387247 -0.113663,0.496945 -0.07599,0.109697 -0.192302,0.164546 -0.348257,0.164546 -0.08921,0 -0.177764,-0.01916 -0.268297,-0.05749 -0.09053,-0.03833 -0.177103,-0.08921 -0.258385,-0.15133 l 0,-1.042129 c 0.08789,-0.03899 0.162564,-0.06608 0.226004,-0.08062 0.06344,-0.01388 0.134148,-0.02115 0.214109,-0.02115 0.173137,0 0.307286,0.05815 0.404428,0.174459 0.09648,0.116306 0.144061,0.288783 0.144061,0.516769 m 0.319181,0.0079 c 0,-0.148686 -0.02115,-0.285478 -0.06344,-0.408393 -0.04229,-0.123575 -0.103089,-0.227986 -0.181728,-0.313894 -0.07269,-0.08128 -0.157939,-0.144061 -0.255741,-0.188336 -0.09846,-0.04428 -0.201554,-0.06674 -0.311251,-0.06674 -0.09516,0 -0.181729,0.01057 -0.259046,0.03172 -0.07798,0.02049 -0.156616,0.05287 -0.236577,0.09714 l 0,-0.770528 -0.309929,0 0,2.51644 0.309929,0 0,-0.192962 c 0.08128,0.06939 0.174459,0.126879 0.277549,0.173798 0.101768,0.04692 0.211465,0.07005 0.327771,0.07005 0.222039,0 0.393855,-0.08393 0.51743,-0.251115 0.124236,-0.16719 0.185033,-0.399802 0.185033,-0.697176" /><path
       d="m 55.276,0.125 c 30.41,0 55.151,24.74 55.151,55.151 0,30.41 -24.741,55.15 -55.151,55.15 -30.41,0 -55.151,-24.74 -55.151,-55.15 0,-30.411 24.741,-55.151 55.151,-55.151 z"
       style="fill:none;stroke:#cb2a1d;stroke-width:0.25;stroke-linecap:butt;stroke-linejoin:miter;stroke-miterlimit:4;stroke-opacity:1;stroke-dasharray:none"
       id="path48"
       inkscape:connector-curvature="0" /><path
       d="m 55.276,8.62891 c 25.762,0 46.647,20.884 46.647,46.647 0,25.762 -20.885,46.646 -46.647,46.646 -25.762,0 -46.647,-20.884 -46.647,-46.646 0,-25.763 20.885,-46.647 46.647,-46.647 z"
       style="fill:none;stroke:#41b313;stroke-width:0.25;stroke-linecap:butt;stroke-linejoin:miter;stroke-miterlimit:4;stroke-opacity:1;stroke-dasharray:none"
       id="path52"
       inkscape:connector-curvature="0" /><path
       inkscape:connector-curvature="0"
       id="path56"
       style="fill:none;stroke:#e10686;stroke-width:0.25;stroke-linecap:butt;stroke-linejoin:miter;stroke-miterlimit:4;stroke-opacity:1;stroke-dasharray:1.006, 1.006;stroke-dashoffset:0"
       d="m 56.784,14.32601 c 21.599,0.782 38.935,18.28 39.457,39.944" /><path
       d="m 96.226,56.78501 c -0.782,21.599 -18.28,38.935 -39.944,39.457"
       style="fill:none;stroke:#e10686;stroke-width:0.25;stroke-linecap:butt;stroke-linejoin:miter;stroke-miterlimit:4;stroke-opacity:1;stroke-dasharray:1.006, 1.006;stroke-dashoffset:0"
       id="path60"
       inkscape:connector-curvature="0" /><path
       inkscape:connector-curvature="0"
       id="path64"
       style="fill:none;stroke:#e10686;stroke-width:0.25;stroke-linecap:butt;stroke-linejoin:miter;stroke-miterlimit:4;stroke-opacity:1;stroke-dasharray:1.006, 1.006;stroke-dashoffset:0"
       d="m 53.767,96.22701 c -21.599,-0.782 -38.935,-18.28 -39.457,-39.944" /><path
       d="m 14.325,53.76801 c 0.782,-21.599 18.28,-38.935 39.944,-39.457"
       style="fill:none;stroke:#e10686;stroke-width:0.25;stroke-linecap:butt;stroke-linejoin:miter;stroke-miterlimit:4;stroke-opacity:1;stroke-dasharray:1.006, 1.006;stroke-dashoffset:0"
       id="path68"
       inkscape:connector-curvature="0" /><path
       inkscape:connector-curvature="0"
       id="path72"
       style="fill:none;stroke:#e10686;stroke-width:0.25;stroke-linecap:butt;stroke-linejoin:miter;stroke-miterlimit:4;stroke-opacity:1;stroke-dasharray:none"
       d="m 96.25,54.773 c 0.002,0.167 0.003,0.335 0.003,0.503 0,0.168 -0.001,0.335 -0.003,0.503" /><path
       d="m 55.77901,96.25001 c -0.168,0.002 -0.335,0.003 -0.503,0.003 -0.168,0 -0.336,-0.001 -0.503,-0.003"
       style="fill:none;stroke:#e10686;stroke-width:0.25;stroke-linecap:butt;stroke-linejoin:miter;stroke-miterlimit:4;stroke-opacity:1;stroke-dasharray:none"
       id="path76"
       inkscape:connector-curvature="0" /><path
       inkscape:connector-curvature="0"
       id="path80"
       style="fill:none;stroke:#e10686;stroke-width:0.25;stroke-linecap:butt;stroke-linejoin:miter;stroke-miterlimit:4;stroke-opacity:1;stroke-dasharray:none"
       d="m 14.301,55.77902 c -0.002,-0.168 -0.003,-0.335 -0.003,-0.503 0,-0.168 10e-4,-0.336 0.003,-0.503" /><path
       d="m 54.773,14.30201 c 0.167,-0.002 0.335,-0.003 0.503,-0.003 0.168,0 0.335,10e-4 0.503,0.003"
       style="fill:none;stroke:#e10686;stroke-width:0.25;stroke-linecap:butt;stroke-linejoin:miter;stroke-miterlimit:4;stroke-opacity:1;stroke-dasharray:none"
       id="path84"
       inkscape:connector-curvature="0" /><path
       inkscape:connector-curvature="0"
       id="path88"
       style="fill:none;stroke:#e10686;stroke-width:0.25;stroke-linecap:butt;stroke-linejoin:miter;stroke-miterlimit:3;stroke-opacity:1;stroke-dasharray:none"
       d="m 35.079,103.11001 -6.437,-4.858" /><path
       d="m 25.15801,95.622 6.086,1.866 -2.602,0.764 -0.021,2.711"
       style="fill:#e10686;fill-opacity:1;fill-rule:nonzero;stroke:none"
       id="path92"
       inkscape:connector-curvature="0" /><path
       inkscape:connector-curvature="0"
       id="path96"
       style="fill:none;stroke:#e10686;stroke-width:0.25;stroke-linecap:butt;stroke-linejoin:miter;stroke-miterlimit:3;stroke-opacity:1;stroke-dasharray:none"
       d="m 31.713,25.42101 -4.898,0.754" /><path
       d="m 22.5,26.83901 5.581,-3.061 -1.266,2.397 1.928,1.906"
       style="fill:#e10686;fill-opacity:1;fill-rule:nonzero;stroke:none"
       id="path100"
       inkscape:connector-curvature="0" /><path
       inkscape:connector-curvature="0"
       id="path104"
       style="fill:#41b313;fill-opacity:1;fill-rule:nonzero;stroke:none"
       d="m 8.08099,51.258 c -0.024,-0.042 -0.048,-0.085 -0.07,-0.13 -0.115,-0.252 -0.252,-0.378 -0.412,-0.378 -0.024,0 -0.061,0.002 -0.109,0.006 l -0.077,0.004 c -0.104,0.008 -0.165,0.013 -0.183,0.013 -0.243,0 -0.457,-0.102 -0.641,-0.306 -0.184,-0.206 -0.275,-0.445 -0.275,-0.717 0,-0.191 0.062,-0.353 0.186,-0.487 0.124,-0.134 0.275,-0.201 0.455,-0.201 0.336,0 0.619,0.26 0.847,0.781 l 0.302,0.691 c 0.113,0.259 0.236,0.411 0.369,0.455 l 0.15,0.249 -0.286,0.469 -0.256,-0.449 z m 0.947,-0.229 c 0.114,0 0.244,-0.115 0.387,-0.346 l 0.656,-1.053 c 0.238,-0.379 0.453,-0.568 0.646,-0.568 0.149,0 0.272,0.061 0.369,0.183 0.096,0.121 0.145,0.278 0.145,0.468 0,0.377 -0.143,0.735 -0.429,1.077 -0.284,0.341 -0.576,0.503 -0.877,0.488 l -0.163,-0.01 -0.083,-0.007 -0.03,0 c -0.184,0 -0.311,0.096 -0.382,0.286 l -0.027,0.073 c -0.017,0.047 -0.063,0.132 -0.136,0.256 l -2.315,3.99 c -0.122,-0.299 -0.183,-0.601 -0.183,-0.907 0,-0.058 0.004,-0.119 0.013,-0.183 l 2.342,-3.754 c 0.031,0.005 0.053,0.007 0.067,0.007 m 1.844,3.734 c 0.017,0.115 0.026,0.223 0.026,0.322 0,0.248 -0.055,0.509 -0.166,0.781 l -1.867,-3.253 0.306,-0.511 1.701,2.661 z m -3.907,-5.449 c -0.113,0 -0.211,0.043 -0.293,0.128 -0.082,0.086 -0.123,0.187 -0.123,0.304 0,0.197 0.077,0.378 0.23,0.542 0.152,0.164 0.32,0.246 0.501,0.246 0.248,0 0.372,-0.089 0.372,-0.266 0,-0.091 -0.034,-0.209 -0.103,-0.356 l -0.079,-0.162 c -0.149,-0.29 -0.317,-0.436 -0.505,-0.436 m 2.744,1.499 c 0,0.139 0.08,0.209 0.239,0.209 0.237,0 0.47,-0.141 0.698,-0.422 0.228,-0.281 0.342,-0.568 0.342,-0.86 0,-0.142 -0.022,-0.248 -0.067,-0.319 -0.044,-0.071 -0.111,-0.107 -0.2,-0.107 -0.109,0 -0.237,0.117 -0.384,0.349 l -0.473,0.761 c -0.103,0.175 -0.155,0.305 -0.155,0.389 m -0.937,0.9 c -0.104,0 -0.156,0.053 -0.156,0.16 0,0.108 0.052,0.162 0.156,0.162 0.104,0 0.156,-0.054 0.156,-0.162 0,-0.107 -0.052,-0.16 -0.156,-0.16" /><path
       d="m 36.14999,104.65401 c -0.04,0.047 -0.095,0.077 -0.165,0.092 l 0,0.005 c 0.042,0.021 0.075,0.048 0.1,0.083 0.025,0.034 0.037,0.076 0.037,0.125 0,0.043 -0.008,0.08 -0.025,0.111 -0.017,0.031 -0.045,0.057 -0.083,0.077 -0.034,0.017 -0.069,0.029 -0.107,0.034 -0.037,0.006 -0.093,0.009 -0.168,0.009 l -0.305,0 0,-1.03 0.365,0 c 0.071,0 0.13,0.006 0.176,0.019 0.047,0.013 0.089,0.035 0.128,0.065 0.033,0.026 0.059,0.058 0.078,0.097 0.019,0.039 0.029,0.084 0.029,0.136 0,0.071 -0.02,0.13 -0.06,0.177 m -0.184,0.209 c -0.009,-0.022 -0.024,-0.04 -0.046,-0.054 -0.021,-0.014 -0.045,-0.023 -0.07,-0.027 -0.025,-0.004 -0.06,-0.007 -0.102,-0.007 l -0.177,0 0,0.298 0.163,0 c 0.045,0 0.084,-0.002 0.114,-0.005 0.031,-0.003 0.058,-0.01 0.079,-0.023 0.019,-0.011 0.032,-0.024 0.04,-0.041 0.009,-0.017 0.013,-0.038 0.013,-0.063 0,-0.03 -0.005,-0.056 -0.014,-0.078 m 0.084,-0.481 c -0.012,-0.023 -0.031,-0.044 -0.057,-0.062 -0.024,-0.016 -0.056,-0.028 -0.094,-0.034 -0.038,-0.006 -0.087,-0.009 -0.147,-0.009 l -0.181,0 0,0.383 0.215,0 c 0.045,0 0.083,-0.002 0.115,-0.005 0.031,-0.004 0.058,-0.011 0.08,-0.023 0.033,-0.017 0.056,-0.038 0.068,-0.062 0.012,-0.024 0.019,-0.057 0.019,-0.099 0,-0.036 -0.006,-0.066 -0.018,-0.089 m 0.991,0.221 c 0,0.112 -0.029,0.199 -0.085,0.259 -0.057,0.061 -0.137,0.092 -0.241,0.092 -0.113,0 -0.203,-0.037 -0.272,-0.112 -0.069,-0.074 -0.104,-0.174 -0.104,-0.3 0,-0.128 0.036,-0.227 0.108,-0.296 0.072,-0.069 0.172,-0.104 0.3,-0.104 0.051,0 0.099,0.006 0.144,0.019 0.046,0.012 0.091,0.027 0.134,0.046 l 0,0.142 -0.006,0 c -0.023,-0.021 -0.061,-0.041 -0.114,-0.062 -0.053,-0.021 -0.106,-0.032 -0.159,-0.032 -0.04,0 -0.076,0.006 -0.109,0.017 -0.033,0.011 -0.061,0.028 -0.085,0.05 -0.025,0.022 -0.045,0.051 -0.059,0.087 -0.014,0.035 -0.021,0.076 -0.021,0.124 l 0.569,0 0,0.07 z m -0.569,0.029 c 0.005,0.061 0.028,0.112 0.07,0.153 0.041,0.041 0.096,0.062 0.166,0.062 0.069,0 0.121,-0.019 0.155,-0.056 0.033,-0.038 0.051,-0.091 0.051,-0.159 l -0.442,0 z m 1.268,-0.114 c -0.032,0.034 -0.079,0.058 -0.139,0.071 -0.02,0.005 -0.045,0.01 -0.075,0.016 -0.029,0.005 -0.056,0.011 -0.08,0.016 -0.043,0.01 -0.075,0.023 -0.094,0.04 -0.02,0.016 -0.03,0.04 -0.03,0.071 0,0.036 0.016,0.064 0.049,0.082 0.033,0.018 0.073,0.027 0.121,0.027 0.045,0 0.092,-0.008 0.139,-0.025 0.048,-0.017 0.088,-0.038 0.121,-0.062 l 0.007,0 0,0.139 c -0.031,0.016 -0.07,0.03 -0.118,0.041 -0.047,0.011 -0.094,0.017 -0.14,0.017 -0.049,0 -0.094,-0.006 -0.134,-0.019 -0.039,-0.013 -0.072,-0.03 -0.098,-0.052 -0.027,-0.022 -0.047,-0.047 -0.06,-0.075 -0.013,-0.028 -0.02,-0.058 -0.02,-0.09 0,-0.051 0.015,-0.093 0.043,-0.128 0.028,-0.035 0.076,-0.061 0.144,-0.079 0.024,-0.007 0.052,-0.013 0.081,-0.018 0.03,-0.006 0.054,-0.011 0.073,-0.015 0.049,-0.011 0.083,-0.024 0.101,-0.04 0.017,-0.016 0.026,-0.039 0.026,-0.069 0,-0.04 -0.016,-0.069 -0.049,-0.087 -0.032,-0.019 -0.077,-0.028 -0.134,-0.028 -0.046,0 -0.094,0.009 -0.144,0.027 -0.051,0.019 -0.096,0.043 -0.137,0.074 l -0.007,0 0,-0.146 c 0.032,-0.016 0.072,-0.031 0.12,-0.044 0.048,-0.014 0.1,-0.021 0.157,-0.021 0.101,0 0.181,0.023 0.239,0.068 0.058,0.045 0.088,0.103 0.088,0.174 0,0.056 -0.017,0.101 -0.05,0.135 m 0.807,-0.167 -0.007,0 c -0.01,-0.007 -0.023,-0.017 -0.04,-0.028 -0.016,-0.01 -0.034,-0.021 -0.053,-0.03 -0.021,-0.011 -0.046,-0.02 -0.073,-0.027 -0.027,-0.007 -0.054,-0.011 -0.08,-0.011 -0.076,0 -0.135,0.025 -0.176,0.075 -0.042,0.05 -0.063,0.122 -0.063,0.215 0,0.096 0.021,0.169 0.064,0.218 0.043,0.05 0.101,0.075 0.175,0.075 0.04,0 0.081,-0.009 0.123,-0.025 0.042,-0.017 0.083,-0.041 0.123,-0.072 l 0.007,0 0,0.145 c -0.036,0.018 -0.075,0.033 -0.117,0.046 -0.043,0.012 -0.087,0.018 -0.131,0.018 -0.114,0 -0.205,-0.036 -0.275,-0.108 -0.069,-0.071 -0.104,-0.171 -0.104,-0.297 0,-0.068 0.009,-0.127 0.028,-0.178 0.018,-0.05 0.044,-0.092 0.078,-0.125 0.033,-0.034 0.073,-0.058 0.12,-0.075 0.046,-0.016 0.097,-0.024 0.153,-0.024 0.044,0 0.085,0.005 0.124,0.017 0.039,0.011 0.08,0.028 0.124,0.048 l 0,0.143 z m 0.812,0.31 c 0,0.095 -0.022,0.167 -0.065,0.217 -0.044,0.051 -0.108,0.076 -0.191,0.076 -0.046,0 -0.09,-0.01 -0.134,-0.029 -0.043,-0.018 -0.085,-0.045 -0.126,-0.078 l 0,0.389 -0.13,0 0,-1.076 0.13,0 0,0.577 c 0.036,0.027 0.073,0.049 0.112,0.067 0.039,0.017 0.076,0.026 0.111,0.026 0.035,0 0.063,-0.005 0.085,-0.014 0.021,-0.01 0.038,-0.024 0.049,-0.043 0.011,-0.018 0.019,-0.042 0.023,-0.073 0.004,-0.031 0.006,-0.065 0.006,-0.1 l 0,-0.44 0.13,0 0,0.501 z m 0.897,0 c 0,0.095 -0.022,0.167 -0.066,0.217 -0.044,0.051 -0.108,0.076 -0.191,0.076 -0.046,0 -0.09,-0.01 -0.133,-0.029 -0.044,-0.018 -0.086,-0.045 -0.126,-0.078 l 0,0.085 -0.13,0 0,-0.772 0.13,0 0,0.577 c 0.035,0.027 0.072,0.049 0.111,0.067 0.039,0.017 0.076,0.026 0.111,0.026 0.035,0 0.063,-0.005 0.085,-0.014 0.021,-0.01 0.038,-0.024 0.049,-0.043 0.012,-0.018 0.019,-0.042 0.023,-0.073 0.004,-0.031 0.007,-0.065 0.007,-0.1 l 0,-0.44 0.13,0 0,0.501 z m 0.39,0.535 -0.147,0 0,-0.135 0.147,0 0,0.135 z m -0.009,-0.264 -0.13,0 0,-0.772 0.13,0 0,0.772 z m 0.659,-0.648 -0.007,0 c -0.01,-0.004 -0.027,-0.01 -0.05,-0.016 -0.023,-0.006 -0.045,-0.009 -0.067,-0.009 -0.036,0 -0.063,0.004 -0.081,0.013 -0.018,0.008 -0.031,0.022 -0.042,0.04 -0.011,0.02 -0.017,0.041 -0.019,0.064 -0.002,0.023 -0.003,0.055 -0.003,0.095 l 0,0.352 0.269,0 0,0.109 -0.269,0 0,0.222 -0.13,0 0,-0.222 -0.088,0 0,-0.109 0.088,0 0,-0.411 c 0,-0.093 0.021,-0.161 0.062,-0.204 0.041,-0.042 0.101,-0.063 0.18,-0.063 0.022,0 0.048,0.002 0.077,0.006 0.029,0.004 0.055,0.009 0.08,0.016 l 0,0.117 z m 0.558,0 -0.007,0 c -0.01,-0.004 -0.027,-0.01 -0.05,-0.016 -0.023,-0.006 -0.045,-0.009 -0.066,-0.009 -0.037,0 -0.064,0.004 -0.082,0.013 -0.017,0.008 -0.031,0.022 -0.042,0.04 -0.011,0.02 -0.017,0.041 -0.019,0.064 -0.002,0.023 -0.003,0.055 -0.003,0.095 l 0,0.352 0.269,0 0,0.109 -0.269,0 0,0.222 -0.13,0 0,-0.222 -0.088,0 0,-0.109 0.088,0 0,-0.411 c 0,-0.093 0.021,-0.161 0.062,-0.204 0.041,-0.042 0.101,-0.063 0.18,-0.063 0.022,0 0.048,0.002 0.077,0.006 0.029,0.004 0.055,0.009 0.08,0.016 l 0,0.117 z m 0.717,-0.014 -0.464,0 0.452,0.57 0,0.092 -0.602,0 0,-0.108 0.44,0 -0.45,-0.568 0,-0.096 0.624,0 0,0.11 z m 0.824,0.662 -0.13,0 0,-0.576 c -0.035,-0.028 -0.072,-0.05 -0.112,-0.067 -0.04,-0.018 -0.076,-0.027 -0.11,-0.027 -0.038,0 -0.067,0.005 -0.086,0.014 -0.02,0.009 -0.036,0.024 -0.049,0.044 -0.012,0.02 -0.02,0.044 -0.023,0.072 -0.004,0.028 -0.006,0.061 -0.006,0.101 l 0,0.439 -0.13,0 0,-0.501 c 0,-0.096 0.023,-0.169 0.068,-0.218 0.045,-0.05 0.108,-0.075 0.189,-0.075 0.049,0 0.093,0.01 0.133,0.028 0.04,0.019 0.082,0.045 0.126,0.08 l 0,-0.086 0.13,0 0,0.772 z m 0.882,0 -0.121,0 -0.009,-0.033 c -0.033,0.019 -0.065,0.032 -0.095,0.041 -0.031,0.009 -0.068,0.014 -0.113,0.014 -0.042,0 -0.085,-0.009 -0.128,-0.028 -0.043,-0.018 -0.079,-0.043 -0.109,-0.076 -0.032,-0.035 -0.058,-0.077 -0.076,-0.125 -0.019,-0.048 -0.028,-0.105 -0.028,-0.172 0,-0.121 0.027,-0.215 0.081,-0.281 0.054,-0.067 0.127,-0.1 0.219,-0.1 0.056,0 0.101,0.007 0.137,0.023 0.036,0.015 0.073,0.039 0.112,0.07 l 0,-0.071 c 0,-0.031 -0.003,-0.059 -0.01,-0.085 -0.007,-0.025 -0.018,-0.047 -0.035,-0.065 -0.016,-0.018 -0.038,-0.033 -0.067,-0.044 -0.029,-0.01 -0.066,-0.016 -0.11,-0.016 -0.046,0 -0.092,0.006 -0.139,0.019 -0.046,0.012 -0.079,0.022 -0.101,0.03 l -0.006,0 0,-0.132 c 0.037,-0.011 0.076,-0.019 0.115,-0.025 0.039,-0.006 0.079,-0.009 0.12,-0.009 0.123,0 0.215,0.031 0.274,0.092 0.06,0.062 0.089,0.158 0.089,0.289 l 0,0.684 z m -0.234,-0.618 c -0.038,-0.015 -0.076,-0.022 -0.114,-0.022 -0.071,0 -0.121,0.022 -0.152,0.067 -0.03,0.045 -0.045,0.11 -0.045,0.197 0,0.091 0.02,0.161 0.061,0.209 0.041,0.048 0.098,0.072 0.169,0.072 0.03,0 0.059,-0.003 0.089,-0.01 0.03,-0.007 0.062,-0.018 0.096,-0.034 l 0,-0.421 c -0.031,-0.024 -0.066,-0.044 -0.104,-0.058 m 1.091,0.37 c 0,0.05 -0.008,0.092 -0.023,0.125 -0.016,0.034 -0.038,0.061 -0.067,0.083 -0.029,0.021 -0.064,0.037 -0.104,0.046 -0.041,0.009 -0.088,0.013 -0.143,0.013 -0.046,0 -0.093,-0.004 -0.141,-0.012 -0.048,-0.009 -0.085,-0.016 -0.11,-0.023 l 0,-0.132 0.007,0 c 0.044,0.017 0.088,0.03 0.13,0.039 0.042,0.009 0.08,0.013 0.114,0.013 0.028,0 0.055,-0.002 0.081,-0.005 0.025,-0.004 0.048,-0.011 0.066,-0.022 0.019,-0.011 0.034,-0.026 0.045,-0.045 0.01,-0.02 0.015,-0.044 0.015,-0.074 l 0,-0.02 c -0.075,-0.003 -0.146,-0.009 -0.212,-0.016 -0.066,-0.008 -0.122,-0.022 -0.17,-0.043 -0.046,-0.02 -0.082,-0.049 -0.107,-0.085 -0.025,-0.036 -0.038,-0.084 -0.038,-0.142 0,-0.072 0.024,-0.13 0.073,-0.176 0.048,-0.046 0.107,-0.07 0.177,-0.07 0.038,0 0.071,0.004 0.099,0.011 0.028,0.007 0.053,0.016 0.074,0.027 0.019,0.008 0.038,0.019 0.058,0.033 0.019,0.014 0.035,0.025 0.046,0.033 l 0,-0.082 0.13,0 0,0.524 z m -0.235,-0.398 c -0.038,-0.018 -0.079,-0.027 -0.125,-0.027 -0.055,0 -0.096,0.012 -0.122,0.034 -0.027,0.022 -0.041,0.056 -0.041,0.1 0,0.039 0.012,0.07 0.035,0.092 0.023,0.023 0.053,0.039 0.091,0.05 0.031,0.008 0.073,0.015 0.127,0.02 0.054,0.004 0.101,0.008 0.14,0.01 l 0,-0.215 c -0.032,-0.025 -0.067,-0.046 -0.105,-0.064 m 1.085,0.563 c -0.052,0.07 -0.124,0.105 -0.216,0.105 -0.051,0 -0.097,-0.01 -0.138,-0.029 -0.041,-0.019 -0.08,-0.044 -0.116,-0.074 l 0,0.385 -0.13,0 0,-1.076 0.122,0 0.008,0.036 c 0.032,-0.018 0.064,-0.032 0.097,-0.042 0.032,-0.01 0.071,-0.016 0.114,-0.016 0.047,0 0.091,0.01 0.13,0.028 0.039,0.018 0.075,0.045 0.108,0.082 0.031,0.035 0.055,0.078 0.073,0.13 0.019,0.051 0.028,0.109 0.028,0.174 0,0.128 -0.027,0.227 -0.08,0.297 m -0.116,-0.523 c -0.041,-0.047 -0.097,-0.071 -0.169,-0.071 -0.033,0 -0.064,0.004 -0.09,0.01 -0.027,0.006 -0.058,0.018 -0.095,0.035 l 0,0.442 c 0.033,0.026 0.069,0.047 0.108,0.063 0.038,0.017 0.077,0.025 0.115,0.025 0.067,0 0.116,-0.024 0.147,-0.072 0.03,-0.047 0.045,-0.117 0.045,-0.209 0,-0.101 -0.02,-0.176 -0.061,-0.223 m 1.045,0.277 c 0,0.112 -0.028,0.199 -0.085,0.259 -0.056,0.061 -0.137,0.092 -0.241,0.092 -0.112,0 -0.203,-0.037 -0.272,-0.112 -0.069,-0.074 -0.103,-0.174 -0.103,-0.3 0,-0.128 0.036,-0.227 0.107,-0.296 0.072,-0.069 0.172,-0.104 0.301,-0.104 0.05,0 0.098,0.006 0.143,0.019 0.046,0.012 0.091,0.027 0.135,0.046 l 0,0.142 -0.007,0 c -0.023,-0.021 -0.061,-0.041 -0.114,-0.062 -0.053,-0.021 -0.106,-0.032 -0.159,-0.032 -0.039,0 -0.076,0.006 -0.109,0.017 -0.033,0.011 -0.061,0.028 -0.085,0.05 -0.025,0.022 -0.045,0.051 -0.059,0.087 -0.014,0.035 -0.021,0.076 -0.021,0.124 l 0.569,0 0,0.07 z m -0.569,0.029 c 0.005,0.061 0.029,0.112 0.07,0.153 0.041,0.041 0.097,0.062 0.166,0.062 0.069,0 0.121,-0.019 0.155,-0.056 0.034,-0.038 0.051,-0.091 0.051,-0.159 l -0.442,0 z m 1.904,0.3 -0.13,0 0,-0.576 c -0.034,-0.028 -0.072,-0.05 -0.112,-0.067 -0.039,-0.018 -0.076,-0.027 -0.11,-0.027 -0.038,0 -0.066,0.005 -0.086,0.014 -0.02,0.009 -0.036,0.024 -0.049,0.044 -0.012,0.02 -0.02,0.044 -0.023,0.072 -0.004,0.028 -0.006,0.061 -0.006,0.101 l 0,0.439 -0.13,0 0,-0.501 c 0,-0.096 0.023,-0.169 0.068,-0.218 0.045,-0.05 0.108,-0.075 0.189,-0.075 0.049,0 0.093,0.01 0.133,0.028 0.04,0.019 0.082,0.045 0.126,0.08 l 0,-0.086 0.13,0 0,0.772 z m 1.383,-0.271 c 0,0.092 -0.02,0.164 -0.06,0.216 -0.041,0.051 -0.103,0.077 -0.188,0.077 -0.049,0 -0.096,-0.01 -0.139,-0.03 -0.043,-0.019 -0.091,-0.051 -0.144,-0.095 -0.018,0.039 -0.045,0.069 -0.082,0.092 -0.037,0.022 -0.081,0.033 -0.134,0.033 -0.045,0 -0.088,-0.01 -0.129,-0.029 -0.04,-0.018 -0.08,-0.045 -0.121,-0.078 l 0,0.085 -0.13,0 0,-0.772 0.13,0 0,0.577 c 0.035,0.027 0.071,0.049 0.107,0.067 0.036,0.017 0.071,0.026 0.107,0.026 0.037,0 0.066,-0.005 0.085,-0.015 0.02,-0.01 0.035,-0.025 0.046,-0.044 0.01,-0.019 0.016,-0.043 0.019,-0.074 0.003,-0.031 0.005,-0.063 0.005,-0.097 l 0,-0.44 0.13,0 0,0.494 c 0,0.014 -10e-4,0.028 -0.002,0.042 -10e-4,0.014 -0.002,0.027 -0.003,0.037 0.036,0.028 0.073,0.051 0.109,0.07 0.036,0.018 0.073,0.027 0.109,0.027 0.038,0 0.066,-0.005 0.086,-0.015 0.02,-0.01 0.035,-0.025 0.046,-0.045 0.009,-0.019 0.016,-0.043 0.019,-0.074 0.003,-0.031 0.004,-0.063 0.004,-0.096 l 0,-0.44 0.13,0 0,0.501 z m 1.449,-0.035 c -0.039,0.041 -0.096,0.072 -0.173,0.092 -0.038,0.01 -0.084,0.019 -0.138,0.028 -0.055,0.01 -0.097,0.017 -0.126,0.024 -0.056,0.013 -0.095,0.031 -0.117,0.056 -0.022,0.024 -0.033,0.058 -0.033,0.101 0,0.048 0.022,0.087 0.067,0.117 0.044,0.031 0.103,0.046 0.176,0.046 0.067,0 0.132,-0.011 0.196,-0.033 0.064,-0.022 0.116,-0.049 0.155,-0.082 l 0.009,0 0,0.161 c -0.046,0.021 -0.1,0.038 -0.16,0.052 -0.06,0.013 -0.127,0.02 -0.199,0.02 -0.112,0 -0.205,-0.027 -0.277,-0.082 -0.073,-0.055 -0.11,-0.126 -0.11,-0.212 0,-0.075 0.022,-0.136 0.066,-0.183 0.044,-0.047 0.112,-0.08 0.203,-0.099 0.046,-0.01 0.088,-0.017 0.129,-0.023 0.04,-0.006 0.077,-0.014 0.112,-0.023 0.046,-0.012 0.08,-0.029 0.102,-0.051 0.022,-0.021 0.034,-0.055 0.034,-0.101 0,-0.053 -0.024,-0.095 -0.071,-0.127 -0.048,-0.032 -0.114,-0.048 -0.198,-0.048 -0.06,0 -0.125,0.012 -0.193,0.036 -0.068,0.023 -0.128,0.057 -0.18,0.1 l -0.01,0 0,-0.171 c 0.061,-0.028 0.122,-0.048 0.181,-0.062 0.059,-0.014 0.126,-0.021 0.2,-0.021 0.069,0 0.128,0.009 0.178,0.025 0.049,0.017 0.092,0.04 0.128,0.069 0.034,0.027 0.06,0.061 0.079,0.1 0.019,0.039 0.028,0.079 0.028,0.119 0,0.074 -0.019,0.131 -0.058,0.172 m 0.839,-0.275 -0.007,0 c -0.01,-0.007 -0.023,-0.017 -0.04,-0.028 -0.016,-0.01 -0.034,-0.021 -0.053,-0.03 -0.022,-0.011 -0.046,-0.02 -0.073,-0.027 -0.027,-0.007 -0.054,-0.011 -0.08,-0.011 -0.076,0 -0.135,0.025 -0.176,0.075 -0.042,0.05 -0.063,0.122 -0.063,0.215 0,0.096 0.021,0.169 0.064,0.218 0.043,0.05 0.101,0.075 0.175,0.075 0.04,0 0.081,-0.009 0.123,-0.025 0.042,-0.017 0.083,-0.041 0.123,-0.072 l 0.007,0 0,0.145 c -0.036,0.018 -0.075,0.033 -0.118,0.046 -0.042,0.012 -0.086,0.018 -0.13,0.018 -0.114,0 -0.205,-0.036 -0.275,-0.108 -0.069,-0.071 -0.104,-0.171 -0.104,-0.297 0,-0.068 0.009,-0.127 0.028,-0.178 0.018,-0.05 0.044,-0.092 0.078,-0.125 0.033,-0.034 0.073,-0.058 0.12,-0.075 0.046,-0.016 0.097,-0.024 0.153,-0.024 0.044,0 0.085,0.005 0.124,0.017 0.039,0.011 0.08,0.028 0.124,0.048 l 0,0.143 z m 0.812,0.31 c 0,0.095 -0.022,0.167 -0.065,0.217 -0.044,0.051 -0.108,0.076 -0.191,0.076 -0.046,0 -0.09,-0.01 -0.134,-0.029 -0.043,-0.018 -0.085,-0.045 -0.126,-0.078 l 0,0.389 -0.13,0 0,-1.076 0.13,0 0,0.577 c 0.036,0.027 0.073,0.049 0.112,0.067 0.038,0.017 0.076,0.026 0.111,0.026 0.035,0 0.063,-0.005 0.084,-0.014 0.022,-0.01 0.039,-0.024 0.05,-0.043 0.011,-0.018 0.019,-0.042 0.023,-0.073 0.004,-0.031 0.006,-0.065 0.006,-0.1 l 0,-0.44 0.13,0 0,0.501 z m 0.896,0 c 0,0.095 -0.021,0.167 -0.065,0.217 -0.044,0.051 -0.108,0.076 -0.191,0.076 -0.046,0 -0.09,-0.01 -0.134,-0.029 -0.043,-0.018 -0.085,-0.045 -0.125,-0.078 l 0,0.085 -0.13,0 0,-0.772 0.13,0 0,0.577 c 0.035,0.027 0.072,0.049 0.111,0.067 0.039,0.017 0.076,0.026 0.111,0.026 0.035,0 0.063,-0.005 0.085,-0.014 0.021,-0.01 0.038,-0.024 0.049,-0.043 0.011,-0.018 0.019,-0.042 0.023,-0.073 0.004,-0.031 0.006,-0.065 0.006,-0.1 l 0,-0.44 0.13,0 0,0.501 z m 0.39,0.535 -0.147,0 0,-0.135 0.147,0 0,0.135 z m -0.008,-0.264 -0.13,0 0,-0.772 0.13,0 0,0.772 z m 0.658,-0.648 -0.006,0 c -0.011,-0.004 -0.027,-0.01 -0.05,-0.016 -0.023,-0.006 -0.045,-0.009 -0.067,-0.009 -0.036,0 -0.063,0.004 -0.081,0.013 -0.018,0.008 -0.032,0.022 -0.042,0.04 -0.011,0.02 -0.017,0.041 -0.019,0.064 -0.002,0.023 -0.003,0.055 -0.003,0.095 l 0,0.352 0.268,0 0,0.109 -0.268,0 0,0.222 -0.13,0 0,-0.222 -0.088,0 0,-0.109 0.088,0 0,-0.411 c 0,-0.093 0.021,-0.161 0.062,-0.204 0.041,-0.042 0.101,-0.063 0.18,-0.063 0.022,0 0.048,0.002 0.077,0.006 0.028,0.004 0.055,0.009 0.079,0.016 l 0,0.117 z m 0.559,0 -0.007,0 c -0.011,-0.004 -0.027,-0.01 -0.05,-0.016 -0.023,-0.006 -0.045,-0.009 -0.067,-0.009 -0.036,0 -0.063,0.004 -0.081,0.013 -0.018,0.008 -0.031,0.022 -0.042,0.04 -0.011,0.02 -0.017,0.041 -0.019,0.064 -0.002,0.023 -0.003,0.055 -0.003,0.095 l 0,0.352 0.269,0 0,0.109 -0.269,0 0,0.222 -0.13,0 0,-0.222 -0.088,0 0,-0.109 0.088,0 0,-0.411 c 0,-0.093 0.021,-0.161 0.062,-0.204 0.041,-0.042 0.101,-0.063 0.18,-0.063 0.022,0 0.048,0.002 0.077,0.006 0.028,0.004 0.055,0.009 0.08,0.016 l 0,0.117 z m 0.558,0 -0.007,0 c -0.01,-0.004 -0.027,-0.01 -0.05,-0.016 -0.023,-0.006 -0.045,-0.009 -0.066,-0.009 -0.037,0 -0.064,0.004 -0.082,0.013 -0.018,0.008 -0.031,0.022 -0.042,0.04 -0.011,0.02 -0.017,0.041 -0.019,0.064 -0.002,0.023 -0.003,0.055 -0.003,0.095 l 0,0.352 0.269,0 0,0.109 -0.269,0 0,0.222 -0.13,0 0,-0.222 -0.088,0 0,-0.109 0.088,0 0,-0.411 c 0,-0.093 0.021,-0.161 0.062,-0.204 0.041,-0.042 0.101,-0.063 0.18,-0.063 0.022,0 0.048,0.002 0.077,0.006 0.029,0.004 0.055,0.009 0.08,0.016 l 0,0.117 z m 0.718,0.56 c -0.064,0.073 -0.151,0.11 -0.259,0.11 -0.109,0 -0.196,-0.037 -0.261,-0.11 -0.064,-0.073 -0.096,-0.172 -0.096,-0.298 0,-0.126 0.032,-0.225 0.096,-0.298 0.065,-0.073 0.152,-0.11 0.261,-0.11 0.108,0 0.195,0.037 0.259,0.11 0.065,0.073 0.097,0.172 0.097,0.298 0,0.126 -0.032,0.225 -0.097,0.298 m -0.096,-0.519 c -0.04,-0.05 -0.094,-0.075 -0.163,-0.075 -0.07,0 -0.125,0.026 -0.164,0.076 -0.039,0.05 -0.059,0.123 -0.059,0.22 0,0.1 0.02,0.174 0.059,0.223 0.038,0.048 0.093,0.073 0.164,0.073 0.069,0 0.124,-0.025 0.163,-0.073 0.039,-0.049 0.059,-0.123 0.059,-0.223 0,-0.098 -0.02,-0.172 -0.059,-0.221 m 0.526,0.911 -0.13,0 0,-1.076 0.13,0 0,1.076 z m 0.903,-0.633 c 0,0.112 -0.028,0.199 -0.084,0.259 -0.057,0.061 -0.137,0.092 -0.241,0.092 -0.113,0 -0.204,-0.037 -0.272,-0.112 -0.069,-0.074 -0.104,-0.174 -0.104,-0.3 0,-0.128 0.036,-0.227 0.108,-0.296 0.072,-0.069 0.172,-0.104 0.3,-0.104 0.05,0 0.098,0.006 0.144,0.019 0.046,0.012 0.09,0.027 0.134,0.046 l 0,0.142 -0.007,0 c -0.022,-0.021 -0.06,-0.041 -0.114,-0.062 -0.053,-0.021 -0.106,-0.032 -0.158,-0.032 -0.04,0 -0.076,0.006 -0.109,0.017 -0.033,0.011 -0.062,0.028 -0.086,0.05 -0.024,0.022 -0.044,0.051 -0.058,0.087 -0.015,0.035 -0.022,0.076 -0.022,0.124 l 0.569,0 0,0.07 z m -0.569,0.029 c 0.006,0.061 0.029,0.112 0.07,0.153 0.042,0.041 0.097,0.062 0.167,0.062 0.069,0 0.12,-0.019 0.154,-0.056 0.034,-0.038 0.051,-0.091 0.052,-0.159 l -0.443,0 z m 1.248,0.292 c -0.02,0.003 -0.035,0.005 -0.045,0.007 -0.01,0.001 -0.027,0.001 -0.049,0.001 -0.041,0 -0.082,-0.008 -0.121,-0.026 -0.039,-0.017 -0.085,-0.046 -0.137,-0.088 l 0,0.114 -0.13,0 0,-0.772 0.13,0 0,0.548 c 0.035,0.028 0.071,0.051 0.108,0.069 0.038,0.018 0.076,0.027 0.116,0.027 0.025,0 0.047,-0.001 0.065,-0.003 0.018,-0.002 0.037,-0.006 0.056,-0.01 l 0.007,0 0,0.133 z m 0.698,-0.24 c 0,0.05 -0.007,0.092 -0.023,0.125 -0.015,0.034 -0.037,0.061 -0.066,0.083 -0.03,0.021 -0.064,0.037 -0.105,0.046 -0.04,0.009 -0.088,0.013 -0.142,0.013 -0.046,0 -0.094,-0.004 -0.142,-0.012 -0.048,-0.009 -0.084,-0.016 -0.11,-0.023 l 0,-0.132 0.007,0 c 0.045,0.017 0.088,0.03 0.13,0.039 0.042,0.009 0.08,0.013 0.114,0.013 0.028,0 0.055,-0.002 0.081,-0.005 0.026,-0.004 0.048,-0.011 0.067,-0.022 0.019,-0.011 0.034,-0.026 0.044,-0.045 0.011,-0.02 0.016,-0.044 0.016,-0.074 l 0,-0.02 c -0.076,-0.003 -0.147,-0.009 -0.212,-0.016 -0.066,-0.008 -0.123,-0.022 -0.17,-0.043 -0.046,-0.02 -0.082,-0.049 -0.107,-0.085 -0.026,-0.036 -0.038,-0.084 -0.038,-0.142 0,-0.072 0.024,-0.13 0.073,-0.176 0.048,-0.046 0.107,-0.07 0.177,-0.07 0.037,0 0.07,0.004 0.098,0.011 0.029,0.007 0.053,0.016 0.075,0.027 0.019,0.008 0.038,0.019 0.057,0.033 0.02,0.014 0.035,0.025 0.047,0.033 l 0,-0.082 0.129,0 0,0.524 z m -0.234,-0.398 c -0.038,-0.018 -0.08,-0.027 -0.125,-0.027 -0.055,0 -0.096,0.012 -0.123,0.034 -0.027,0.022 -0.04,0.056 -0.04,0.1 0,0.039 0.012,0.07 0.035,0.092 0.023,0.023 0.053,0.039 0.09,0.05 0.032,0.008 0.074,0.015 0.128,0.02 0.054,0.004 0.1,0.008 0.14,0.01 l 0,-0.215 c -0.032,-0.025 -0.067,-0.046 -0.105,-0.064 m 1.13,0.375 c 0,0.095 -0.022,0.167 -0.065,0.217 -0.044,0.051 -0.108,0.076 -0.191,0.076 -0.046,0 -0.09,-0.01 -0.134,-0.029 -0.043,-0.018 -0.085,-0.045 -0.126,-0.078 l 0,0.085 -0.13,0 0,-0.772 0.13,0 0,0.577 c 0.036,0.027 0.073,0.049 0.112,0.067 0.039,0.017 0.076,0.026 0.111,0.026 0.035,0 0.063,-0.005 0.085,-0.014 0.021,-0.01 0.038,-0.024 0.049,-0.043 0.011,-0.018 0.019,-0.042 0.023,-0.073 0.004,-0.031 0.006,-0.065 0.006,-0.1 l 0,-0.44 0.13,0 0,0.501 z m 0.811,-0.391 -0.464,0 0.452,0.57 0,0.092 -0.602,0 0,-0.108 0.44,0 -0.45,-0.568 0,-0.096 0.624,0 0,0.11 z m 0.822,0.333 c 0,0.112 -0.028,0.199 -0.085,0.259 -0.056,0.061 -0.136,0.092 -0.241,0.092 -0.112,0 -0.203,-0.037 -0.272,-0.112 -0.069,-0.074 -0.103,-0.174 -0.103,-0.3 0,-0.128 0.036,-0.227 0.108,-0.296 0.072,-0.069 0.172,-0.104 0.3,-0.104 0.05,0 0.098,0.006 0.144,0.019 0.045,0.012 0.09,0.027 0.134,0.046 l 0,0.142 -0.007,0 c -0.023,-0.021 -0.061,-0.041 -0.114,-0.062 -0.053,-0.021 -0.106,-0.032 -0.159,-0.032 -0.039,0 -0.076,0.006 -0.108,0.017 -0.033,0.011 -0.062,0.028 -0.086,0.05 -0.025,0.022 -0.044,0.051 -0.059,0.087 -0.014,0.035 -0.021,0.076 -0.021,0.124 l 0.569,0 0,0.07 z m -0.569,0.029 c 0.005,0.061 0.029,0.112 0.07,0.153 0.041,0.041 0.097,0.062 0.166,0.062 0.07,0 0.121,-0.019 0.155,-0.056 0.034,-0.038 0.051,-0.091 0.051,-0.159 l -0.442,0 z m 1.412,0.029 c 0,0.095 -0.022,0.167 -0.066,0.217 -0.043,0.051 -0.107,0.076 -0.191,0.076 -0.045,0 -0.09,-0.01 -0.133,-0.029 -0.043,-0.018 -0.085,-0.045 -0.126,-0.078 l 0,0.085 -0.13,0 0,-0.772 0.13,0 0,0.577 c 0.036,0.027 0.073,0.049 0.111,0.067 0.039,0.017 0.076,0.026 0.112,0.026 0.034,0 0.062,-0.005 0.084,-0.014 0.022,-0.01 0.038,-0.024 0.05,-0.043 0.011,-0.018 0.019,-0.042 0.023,-0.073 0.004,-0.031 0.006,-0.065 0.006,-0.1 l 0,-0.44 0.13,0 0,0.501 z m 1.348,0.023 c 0,0.05 -0.007,0.092 -0.022,0.125 -0.016,0.034 -0.038,0.061 -0.067,0.083 -0.029,0.021 -0.064,0.037 -0.105,0.046 -0.04,0.009 -0.087,0.013 -0.142,0.013 -0.046,0 -0.093,-0.004 -0.141,-0.012 -0.048,-0.009 -0.085,-0.016 -0.11,-0.023 l 0,-0.132 0.007,0 c 0.044,0.017 0.088,0.03 0.13,0.039 0.042,0.009 0.08,0.013 0.114,0.013 0.028,0 0.055,-0.002 0.081,-0.005 0.025,-0.004 0.048,-0.011 0.066,-0.022 0.019,-0.011 0.034,-0.026 0.045,-0.045 0.01,-0.02 0.015,-0.044 0.015,-0.074 l 0,-0.02 c -0.075,-0.003 -0.146,-0.009 -0.212,-0.016 -0.066,-0.008 -0.123,-0.022 -0.17,-0.043 -0.046,-0.02 -0.082,-0.049 -0.107,-0.085 -0.025,-0.036 -0.038,-0.084 -0.038,-0.142 0,-0.072 0.024,-0.13 0.073,-0.176 0.048,-0.046 0.107,-0.07 0.177,-0.07 0.038,0 0.071,0.004 0.099,0.011 0.028,0.007 0.053,0.016 0.074,0.027 0.019,0.008 0.038,0.019 0.057,0.033 0.02,0.014 0.036,0.025 0.047,0.033 l 0,-0.082 0.129,0 0,0.524 z m -0.234,-0.398 c -0.038,-0.018 -0.079,-0.027 -0.125,-0.027 -0.055,0 -0.096,0.012 -0.123,0.034 -0.026,0.022 -0.04,0.056 -0.04,0.1 0,0.039 0.012,0.07 0.035,0.092 0.023,0.023 0.053,0.039 0.091,0.05 0.031,0.008 0.073,0.015 0.127,0.02 0.054,0.004 0.1,0.008 0.14,0.01 l 0,-0.215 c -0.032,-0.025 -0.067,-0.046 -0.105,-0.064 m 1.125,0.646 -0.13,0 0,-0.576 c -0.034,-0.028 -0.072,-0.05 -0.112,-0.067 -0.039,-0.018 -0.076,-0.027 -0.11,-0.027 -0.038,0 -0.066,0.005 -0.086,0.014 -0.02,0.009 -0.036,0.024 -0.049,0.044 -0.012,0.02 -0.02,0.044 -0.023,0.072 -0.004,0.028 -0.006,0.061 -0.006,0.101 l 0,0.439 -0.13,0 0,-0.501 c 0,-0.096 0.023,-0.169 0.068,-0.218 0.045,-0.05 0.108,-0.075 0.19,-0.075 0.048,0 0.092,0.01 0.132,0.028 0.04,0.019 0.082,0.045 0.126,0.08 l 0,-0.086 0.13,0 0,0.772 z m 0.759,-0.414 c -0.033,0.034 -0.08,0.058 -0.14,0.071 -0.02,0.005 -0.045,0.01 -0.074,0.016 -0.03,0.005 -0.057,0.011 -0.081,0.016 -0.043,0.01 -0.075,0.023 -0.094,0.04 -0.02,0.016 -0.03,0.04 -0.03,0.071 0,0.036 0.017,0.064 0.049,0.082 0.033,0.018 0.073,0.027 0.121,0.027 0.045,0 0.092,-0.008 0.139,-0.025 0.048,-0.017 0.088,-0.038 0.121,-0.062 l 0.007,0 0,0.139 c -0.031,0.016 -0.07,0.03 -0.117,0.041 -0.048,0.011 -0.094,0.017 -0.141,0.017 -0.049,0 -0.093,-0.006 -0.133,-0.019 -0.04,-0.013 -0.073,-0.03 -0.099,-0.052 -0.027,-0.022 -0.047,-0.047 -0.06,-0.075 -0.013,-0.028 -0.019,-0.058 -0.019,-0.09 0,-0.051 0.014,-0.093 0.042,-0.128 0.028,-0.035 0.077,-0.061 0.144,-0.079 0.025,-0.007 0.052,-0.013 0.082,-0.018 0.029,-0.006 0.053,-0.011 0.072,-0.015 0.05,-0.011 0.083,-0.024 0.101,-0.04 0.017,-0.016 0.026,-0.039 0.026,-0.069 0,-0.04 -0.016,-0.069 -0.048,-0.087 -0.033,-0.019 -0.077,-0.028 -0.135,-0.028 -0.046,0 -0.094,0.009 -0.144,0.027 -0.05,0.019 -0.096,0.043 -0.137,0.074 l -0.007,0 0,-0.146 c 0.032,-0.016 0.072,-0.031 0.12,-0.044 0.048,-0.014 0.1,-0.021 0.157,-0.021 0.101,0 0.181,0.023 0.239,0.068 0.059,0.045 0.088,0.103 0.088,0.174 0,0.056 -0.017,0.101 -0.049,0.135 m 0.795,-0.248 -0.464,0 0.452,0.57 0,0.092 -0.602,0 0,-0.108 0.44,0 -0.45,-0.568 0,-0.096 0.624,0 0,0.11 z m 0.824,0.662 -0.13,0 0,-0.576 c -0.034,-0.028 -0.072,-0.05 -0.111,-0.067 -0.04,-0.018 -0.077,-0.027 -0.111,-0.027 -0.038,0 -0.066,0.005 -0.086,0.014 -0.02,0.009 -0.036,0.024 -0.049,0.044 -0.012,0.02 -0.019,0.044 -0.023,0.072 -0.004,0.028 -0.006,0.061 -0.006,0.101 l 0,0.439 -0.13,0 0,-0.501 c 0,-0.096 0.023,-0.169 0.068,-0.218 0.045,-0.05 0.108,-0.075 0.19,-0.075 0.048,0 0.092,0.01 0.132,0.028 0.041,0.019 0.082,0.045 0.126,0.08 l 0,-0.086 0.13,0 0,0.772 z m 0.883,0 -0.122,0 -0.008,-0.033 c -0.034,0.019 -0.066,0.032 -0.096,0.041 -0.03,0.009 -0.068,0.014 -0.112,0.014 -0.043,0 -0.086,-0.009 -0.128,-0.028 -0.043,-0.018 -0.08,-0.043 -0.11,-0.076 -0.032,-0.035 -0.057,-0.077 -0.076,-0.125 -0.019,-0.048 -0.028,-0.105 -0.028,-0.172 0,-0.121 0.027,-0.215 0.081,-0.281 0.054,-0.067 0.127,-0.1 0.22,-0.1 0.055,0 0.101,0.007 0.136,0.023 0.036,0.015 0.073,0.039 0.113,0.07 l 0,-0.071 c 0,-0.031 -0.004,-0.059 -0.011,-0.085 -0.007,-0.025 -0.018,-0.047 -0.034,-0.065 -0.016,-0.018 -0.039,-0.033 -0.068,-0.044 -0.029,-0.01 -0.066,-0.016 -0.11,-0.016 -0.046,0 -0.092,0.006 -0.138,0.019 -0.046,0.012 -0.08,0.022 -0.101,0.03 l -0.007,0 0,-0.132 c 0.038,-0.011 0.076,-0.019 0.115,-0.025 0.039,-0.006 0.079,-0.009 0.12,-0.009 0.123,0 0.215,0.031 0.274,0.092 0.06,0.062 0.09,0.158 0.09,0.289 l 0,0.684 z m -0.235,-0.618 c -0.038,-0.015 -0.076,-0.022 -0.114,-0.022 -0.07,0 -0.121,0.022 -0.151,0.067 -0.031,0.045 -0.046,0.11 -0.046,0.197 0,0.091 0.021,0.161 0.062,0.209 0.041,0.048 0.097,0.072 0.168,0.072 0.03,0 0.059,-0.003 0.089,-0.01 0.03,-0.007 0.062,-0.018 0.097,-0.034 l 0,-0.421 c -0.032,-0.024 -0.067,-0.044 -0.105,-0.058 m 0.622,0.922 -0.13,0 0,-1.076 0.13,0 0,1.076 z m 0.904,-0.633 c 0,0.112 -0.029,0.199 -0.085,0.259 -0.056,0.061 -0.137,0.092 -0.241,0.092 -0.112,0 -0.203,-0.037 -0.272,-0.112 -0.069,-0.074 -0.103,-0.174 -0.103,-0.3 0,-0.128 0.035,-0.227 0.107,-0.296 0.072,-0.069 0.172,-0.104 0.301,-0.104 0.05,0 0.098,0.006 0.143,0.019 0.046,0.012 0.091,0.027 0.135,0.046 l 0,0.142 -0.007,0 c -0.023,-0.021 -0.061,-0.041 -0.114,-0.062 -0.053,-0.021 -0.106,-0.032 -0.159,-0.032 -0.04,0 -0.076,0.006 -0.109,0.017 -0.033,0.011 -0.061,0.028 -0.085,0.05 -0.025,0.022 -0.045,0.051 -0.059,0.087 -0.014,0.035 -0.021,0.076 -0.021,0.124 l 0.569,0 0,0.07 z m -0.569,0.029 c 0.005,0.061 0.029,0.112 0.07,0.153 0.041,0.041 0.096,0.062 0.166,0.062 0.069,0 0.121,-0.019 0.155,-0.056 0.034,-0.038 0.051,-0.091 0.051,-0.159 l -0.442,0 z m 0.905,0.564 -0.147,0 0,-0.135 0.147,0 0,0.135 z m -0.008,-0.264 -0.13,0 0,-0.772 0.13,0 0,0.772 z m 0.829,-0.581 -0.007,0 c -0.01,-0.007 -0.023,-0.017 -0.04,-0.028 -0.016,-0.01 -0.034,-0.021 -0.053,-0.03 -0.022,-0.011 -0.046,-0.02 -0.073,-0.027 -0.027,-0.007 -0.054,-0.011 -0.08,-0.011 -0.076,0 -0.135,0.025 -0.176,0.075 -0.042,0.05 -0.063,0.122 -0.063,0.215 0,0.096 0.021,0.169 0.064,0.218 0.043,0.05 0.101,0.075 0.175,0.075 0.04,0 0.081,-0.009 0.123,-0.025 0.042,-0.017 0.083,-0.041 0.123,-0.072 l 0.007,0 0,0.145 c -0.036,0.018 -0.075,0.033 -0.118,0.046 -0.042,0.012 -0.086,0.018 -0.13,0.018 -0.114,0 -0.205,-0.036 -0.275,-0.108 -0.069,-0.071 -0.104,-0.171 -0.104,-0.297 0,-0.068 0.009,-0.127 0.028,-0.178 0.018,-0.05 0.044,-0.092 0.078,-0.125 0.033,-0.034 0.073,-0.058 0.12,-0.075 0.046,-0.016 0.097,-0.024 0.153,-0.024 0.044,0 0.085,0.005 0.124,0.017 0.039,0.011 0.08,0.028 0.124,0.048 l 0,0.143 z m 0.812,0.31 c 0,0.095 -0.022,0.167 -0.066,0.217 -0.043,0.051 -0.107,0.076 -0.19,0.076 -0.046,0 -0.091,-0.01 -0.134,-0.029 -0.043,-0.018 -0.085,-0.045 -0.126,-0.078 l 0,0.389 -0.13,0 0,-1.076 0.13,0 0,0.577 c 0.036,0.027 0.073,0.049 0.112,0.067 0.038,0.017 0.075,0.026 0.111,0.026 0.035,0 0.063,-0.005 0.084,-0.014 0.022,-0.01 0.039,-0.024 0.05,-0.043 0.011,-0.018 0.019,-0.042 0.023,-0.073 0.004,-0.031 0.006,-0.065 0.006,-0.1 l 0,-0.44 0.13,0 0,0.501 z m 0.897,-0.058 c 0,0.112 -0.028,0.199 -0.085,0.259 -0.056,0.061 -0.136,0.092 -0.241,0.092 -0.112,0 -0.203,-0.037 -0.272,-0.112 -0.069,-0.074 -0.103,-0.174 -0.103,-0.3 0,-0.128 0.036,-0.227 0.108,-0.296 0.072,-0.069 0.172,-0.104 0.3,-0.104 0.05,0 0.098,0.006 0.144,0.019 0.045,0.012 0.09,0.027 0.134,0.046 l 0,0.142 -0.007,0 c -0.023,-0.021 -0.061,-0.041 -0.114,-0.062 -0.053,-0.021 -0.106,-0.032 -0.159,-0.032 -0.039,0 -0.075,0.006 -0.108,0.017 -0.033,0.011 -0.062,0.028 -0.086,0.05 -0.025,0.022 -0.044,0.051 -0.059,0.087 -0.014,0.035 -0.021,0.076 -0.021,0.124 l 0.569,0 0,0.07 z m -0.569,0.029 c 0.005,0.061 0.029,0.112 0.07,0.153 0.041,0.041 0.097,0.062 0.166,0.062 0.07,0 0.121,-0.019 0.155,-0.056 0.034,-0.038 0.051,-0.091 0.052,-0.159 l -0.443,0 z m 1.412,0.029 c 0,0.095 -0.022,0.167 -0.066,0.217 -0.043,0.051 -0.107,0.076 -0.191,0.076 -0.045,0 -0.09,-0.01 -0.133,-0.029 -0.043,-0.018 -0.085,-0.045 -0.126,-0.078 l 0,0.085 -0.13,0 0,-0.772 0.13,0 0,0.577 c 0.036,0.027 0.073,0.049 0.111,0.067 0.039,0.017 0.076,0.026 0.112,0.026 0.034,0 0.063,-0.005 0.084,-0.014 0.022,-0.01 0.038,-0.024 0.05,-0.043 0.011,-0.018 0.019,-0.042 0.023,-0.073 0.004,-0.031 0.006,-0.065 0.006,-0.1 l 0,-0.44 0.13,0"
       style="fill:#e10686;fill-opacity:1;fill-rule:nonzero;stroke:none"
       id="path108"
       inkscape:connector-curvature="0" /><path
       inkscape:connector-curvature="0"
       id="path112"
       style="fill:#e10686;fill-opacity:1;fill-rule:nonzero;stroke:none"
       d="m 33.684,25.01601 c -0.042,0.045 -0.105,0.078 -0.189,0.1 -0.041,0.011 -0.091,0.021 -0.15,0.031 -0.06,0.01 -0.105,0.019 -0.138,0.026 -0.06,0.014 -0.103,0.034 -0.127,0.061 -0.024,0.027 -0.036,0.063 -0.036,0.11 0,0.052 0.024,0.095 0.072,0.128 0.049,0.033 0.113,0.05 0.193,0.05 0.073,0 0.144,-0.012 0.214,-0.036 0.07,-0.024 0.126,-0.054 0.169,-0.09 l 0.01,0 0,0.177 c -0.051,0.022 -0.109,0.04 -0.175,0.055 -0.066,0.015 -0.138,0.023 -0.217,0.023 -0.122,0 -0.223,-0.03 -0.302,-0.09 -0.08,-0.06 -0.12,-0.137 -0.12,-0.231 0,-0.082 0.024,-0.149 0.072,-0.2 0.048,-0.051 0.122,-0.087 0.222,-0.108 0.049,-0.01 0.096,-0.018 0.14,-0.025 0.044,-0.006 0.084,-0.015 0.122,-0.025 0.05,-0.013 0.087,-0.031 0.111,-0.055 0.025,-0.023 0.037,-0.06 0.037,-0.11 0,-0.058 -0.026,-0.104 -0.077,-0.139 -0.052,-0.034 -0.124,-0.052 -0.216,-0.052 -0.066,0 -0.136,0.013 -0.21,0.039 -0.074,0.025 -0.14,0.062 -0.197,0.109 l -0.01,0 0,-0.187 c 0.066,-0.03 0.132,-0.052 0.197,-0.067 0.064,-0.015 0.137,-0.023 0.218,-0.023 0.076,0 0.14,0.009 0.194,0.027 0.053,0.019 0.1,0.044 0.14,0.076 0.037,0.03 0.065,0.066 0.086,0.108 0.02,0.043 0.03,0.086 0.03,0.13 0,0.081 -0.021,0.143 -0.063,0.188 m 0.444,0.622 -0.16,0 0,-0.147 0.16,0 0,0.147 z m -0.009,-0.288 -0.142,0 0,-0.842 0.142,0 0,0.842 z m 0.904,-0.633 -0.008,0 c -0.01,-0.009 -0.025,-0.019 -0.043,-0.031 -0.018,-0.012 -0.037,-0.023 -0.058,-0.034 -0.024,-0.012 -0.05,-0.021 -0.08,-0.029 -0.03,-0.007 -0.059,-0.011 -0.087,-0.011 -0.083,0 -0.147,0.027 -0.192,0.082 -0.046,0.054 -0.069,0.132 -0.069,0.234 0,0.104 0.024,0.184 0.07,0.238 0.047,0.054 0.11,0.081 0.191,0.081 0.043,0 0.088,-0.009 0.134,-0.027 0.046,-0.018 0.091,-0.044 0.134,-0.078 l 0.008,0 0,0.158 c -0.039,0.019 -0.082,0.036 -0.128,0.049 -0.047,0.014 -0.094,0.021 -0.142,0.021 -0.125,0 -0.224,-0.04 -0.3,-0.118 -0.076,-0.078 -0.114,-0.186 -0.114,-0.324 0,-0.074 0.01,-0.139 0.031,-0.194 0.02,-0.055 0.048,-0.101 0.085,-0.137 0.036,-0.037 0.079,-0.064 0.13,-0.081 0.051,-0.018 0.107,-0.027 0.168,-0.027 0.047,0 0.092,0.006 0.135,0.019 0.042,0.012 0.087,0.03 0.135,0.052 l 0,0.157 z m 0.886,0.337 c 0,0.104 -0.024,0.182 -0.072,0.237 -0.048,0.055 -0.117,0.082 -0.208,0.082 -0.05,0 -0.098,-0.01 -0.146,-0.03 -0.047,-0.021 -0.093,-0.05 -0.137,-0.086 l 0,0.424 -0.142,0 0,-1.173 0.142,0 0,0.629 c 0.039,0.029 0.079,0.054 0.122,0.073 0.042,0.019 0.082,0.028 0.121,0.028 0.038,0 0.068,-0.005 0.092,-0.015 0.024,-0.01 0.042,-0.026 0.054,-0.047 0.012,-0.019 0.021,-0.046 0.025,-0.08 0.005,-0.034 0.007,-0.07 0.007,-0.109 l 0,-0.479 0.142,0 0,0.546 z m 0.978,-0.063 c 0,0.122 -0.031,0.217 -0.093,0.283 -0.061,0.066 -0.149,0.099 -0.262,0.099 -0.123,0 -0.222,-0.04 -0.297,-0.121 -0.075,-0.081 -0.113,-0.19 -0.113,-0.328 0,-0.139 0.039,-0.247 0.118,-0.322 0.078,-0.076 0.187,-0.114 0.327,-0.114 0.055,0 0.107,0.007 0.157,0.02 0.05,0.014 0.099,0.031 0.146,0.051 l 0,0.155 -0.007,0 c -0.025,-0.023 -0.066,-0.045 -0.124,-0.068 -0.058,-0.023 -0.116,-0.034 -0.173,-0.034 -0.044,0 -0.083,0.006 -0.119,0.018 -0.036,0.012 -0.067,0.03 -0.093,0.054 -0.027,0.025 -0.049,0.056 -0.064,0.095 -0.016,0.038 -0.024,0.083 -0.024,0.135 l 0.621,0 0,0.077 z m -0.621,0.032 c 0.006,0.066 0.032,0.122 0.077,0.166 0.045,0.045 0.105,0.068 0.181,0.068 0.076,0 0.132,-0.021 0.169,-0.062 0.037,-0.04 0.055,-0.098 0.056,-0.172 l -0.483,0 z m 1.361,0.318 c -0.022,0.004 -0.038,0.006 -0.049,0.007 -0.011,0.001 -0.029,0.002 -0.054,0.002 -0.045,0 -0.089,-0.009 -0.131,-0.028 -0.043,-0.019 -0.093,-0.051 -0.149,-0.096 l 0,0.124 -0.142,0 0,-0.842 0.142,0 0,0.598 c 0.037,0.03 0.076,0.055 0.117,0.075 0.041,0.019 0.083,0.029 0.127,0.029 0.027,0 0.051,-0.001 0.07,-0.004 0.02,-0.002 0.041,-0.006 0.062,-0.011 l 0.007,0 0,0.146 z m 0.838,-0.287 c 0,0.104 -0.024,0.182 -0.071,0.237 -0.048,0.055 -0.118,0.082 -0.209,0.082 -0.049,0 -0.098,-0.01 -0.145,-0.03 -0.047,-0.021 -0.093,-0.05 -0.137,-0.086 l 0,0.424 -0.142,0 0,-1.173 0.142,0 0,0.629 c 0.038,0.029 0.079,0.054 0.121,0.073 0.042,0.019 0.083,0.028 0.122,0.028 0.037,0 0.068,-0.005 0.092,-0.015 0.023,-0.01 0.041,-0.026 0.054,-0.047 0.012,-0.019 0.02,-0.046 0.025,-0.08 0.004,-0.034 0.007,-0.07 0.007,-0.109 l 0,-0.479 0.141,0 0,0.546 z m 0.978,-0.063 c 0,0.122 -0.03,0.217 -0.092,0.283 -0.062,0.066 -0.149,0.099 -0.263,0.099 -0.122,0 -0.221,-0.04 -0.297,-0.121 -0.075,-0.081 -0.112,-0.19 -0.112,-0.328 0,-0.139 0.039,-0.247 0.117,-0.322 0.079,-0.076 0.188,-0.114 0.328,-0.114 0.054,0 0.107,0.007 0.157,0.02 0.049,0.014 0.098,0.031 0.146,0.051 l 0,0.155 -0.008,0 c -0.024,-0.023 -0.066,-0.045 -0.124,-0.068 -0.058,-0.023 -0.116,-0.034 -0.173,-0.034 -0.043,0 -0.083,0.006 -0.119,0.018 -0.036,0.012 -0.067,0.03 -0.093,0.054 -0.027,0.025 -0.048,0.056 -0.064,0.095 -0.015,0.038 -0.023,0.083 -0.023,0.135 l 0.62,0 0,0.077 z m -0.62,0.032 c 0.006,0.066 0.031,0.122 0.076,0.166 0.045,0.045 0.106,0.068 0.182,0.068 0.075,0 0.131,-0.021 0.168,-0.062 0.037,-0.04 0.056,-0.098 0.056,-0.172 l -0.482,0 z m 0.988,0.615 -0.16,0 0,-0.147 0.16,0 0,0.147 z m -0.009,-0.288 -0.142,0 0,-0.842 0.142,0 0,0.842 z m 0.718,-0.707 -0.008,0 c -0.011,-0.005 -0.029,-0.01 -0.054,-0.017 -0.025,-0.007 -0.05,-0.01 -0.073,-0.01 -0.039,0 -0.069,0.004 -0.088,0.013 -0.02,0.01 -0.035,0.024 -0.046,0.045 -0.012,0.021 -0.019,0.044 -0.021,0.069 -0.002,0.025 -0.003,0.06 -0.003,0.104 l 0,0.384 0.293,0 0,0.119 -0.293,0 0,0.242 -0.142,0 0,-0.242 -0.096,0 0,-0.119 0.096,0 0,-0.448 c 0,-0.102 0.023,-0.176 0.067,-0.223 0.045,-0.046 0.11,-0.069 0.196,-0.069 0.025,0 0.053,0.002 0.084,0.007 0.032,0.004 0.061,0.01 0.088,0.017 l 0,0.128 z m 0.719,0.255 c -0.036,0.037 -0.086,0.063 -0.152,0.078 -0.022,0.005 -0.049,0.011 -0.081,0.017 -0.033,0.006 -0.062,0.012 -0.088,0.018 -0.047,0.011 -0.082,0.025 -0.103,0.043 -0.021,0.017 -0.032,0.043 -0.032,0.078 0,0.039 0.018,0.069 0.053,0.089 0.036,0.02 0.08,0.03 0.132,0.03 0.049,0 0.1,-0.01 0.152,-0.028 0.052,-0.018 0.096,-0.041 0.132,-0.067 l 0.007,0 0,0.151 c -0.034,0.018 -0.077,0.033 -0.128,0.045 -0.052,0.012 -0.103,0.018 -0.153,0.018 -0.054,0 -0.102,-0.006 -0.146,-0.02 -0.043,-0.014 -0.079,-0.033 -0.107,-0.056 -0.029,-0.025 -0.051,-0.052 -0.066,-0.083 -0.014,-0.03 -0.021,-0.063 -0.021,-0.098 0,-0.055 0.015,-0.102 0.046,-0.14 0.031,-0.038 0.084,-0.066 0.158,-0.086 0.026,-0.007 0.056,-0.014 0.088,-0.02 0.033,-0.006 0.059,-0.011 0.079,-0.015 0.054,-0.012 0.091,-0.027 0.11,-0.044 0.019,-0.017 0.029,-0.042 0.029,-0.076 0,-0.043 -0.018,-0.074 -0.053,-0.095 -0.035,-0.02 -0.084,-0.03 -0.146,-0.03 -0.051,0 -0.103,0.01 -0.158,0.03 -0.055,0.02 -0.104,0.047 -0.149,0.08 l -0.008,0 0,-0.159 c 0.035,-0.017 0.079,-0.034 0.131,-0.048 0.052,-0.015 0.109,-0.023 0.172,-0.023 0.11,0 0.197,0.025 0.26,0.074 0.064,0.05 0.096,0.113 0.096,0.19 0,0.061 -0.018,0.11 -0.054,0.147 m 0.911,0.181 c 0,0.055 -0.008,0.1 -0.025,0.137 -0.016,0.037 -0.041,0.066 -0.072,0.09 -0.032,0.023 -0.07,0.04 -0.114,0.05 -0.044,0.01 -0.096,0.014 -0.155,0.014 -0.051,0 -0.103,-0.004 -0.155,-0.013 -0.052,-0.009 -0.092,-0.017 -0.12,-0.025 l 0,-0.144 0.008,0 c 0.048,0.019 0.096,0.033 0.141,0.043 0.046,0.009 0.088,0.014 0.125,0.014 0.03,0 0.06,-0.002 0.088,-0.006 0.028,-0.004 0.052,-0.012 0.072,-0.023 0.022,-0.012 0.038,-0.029 0.049,-0.05 0.011,-0.021 0.017,-0.048 0.017,-0.08 l 0,-0.022 c -0.082,-0.004 -0.16,-0.01 -0.231,-0.018 -0.072,-0.008 -0.134,-0.023 -0.185,-0.046 -0.051,-0.022 -0.09,-0.054 -0.118,-0.093 -0.027,-0.039 -0.041,-0.091 -0.041,-0.155 0,-0.078 0.027,-0.142 0.08,-0.192 0.052,-0.051 0.117,-0.076 0.193,-0.076 0.041,0 0.077,0.004 0.107,0.012 0.031,0.008 0.058,0.017 0.082,0.029 0.02,0.009 0.041,0.021 0.062,0.037 0.021,0.015 0.038,0.027 0.051,0.035 l 0,-0.089 0.141,0 0,0.571 z m -0.256,-0.434 c -0.041,-0.019 -0.086,-0.029 -0.136,-0.029 -0.06,0 -0.104,0.012 -0.134,0.037 -0.029,0.024 -0.043,0.061 -0.043,0.109 0,0.043 0.012,0.076 0.037,0.101 0.026,0.024 0.058,0.042 0.099,0.053 0.034,0.01 0.081,0.017 0.139,0.022 0.059,0.005 0.11,0.009 0.153,0.012 l 0,-0.235 c -0.035,-0.027 -0.073,-0.05 -0.115,-0.07 m 1.184,0.614 c -0.058,0.076 -0.136,0.114 -0.236,0.114 -0.055,0 -0.106,-0.01 -0.15,-0.031 -0.045,-0.021 -0.087,-0.047 -0.127,-0.08 l 0,0.419 -0.142,0 0,-1.173 0.133,0 0.009,0.039 c 0.035,-0.019 0.07,-0.034 0.105,-0.046 0.036,-0.011 0.078,-0.017 0.126,-0.017 0.051,0 0.098,0.01 0.141,0.03 0.042,0.02 0.082,0.05 0.117,0.089 0.034,0.039 0.061,0.086 0.081,0.142 0.019,0.057 0.029,0.12 0.029,0.19 0,0.14 -0.028,0.247 -0.086,0.324 m -0.127,-0.57 c -0.044,-0.051 -0.106,-0.077 -0.184,-0.077 -0.037,0 -0.07,0.003 -0.098,0.01 -0.029,0.007 -0.064,0.02 -0.104,0.038 l 0,0.483 c 0.036,0.028 0.075,0.051 0.117,0.069 0.043,0.018 0.084,0.026 0.126,0.026 0.074,0 0.127,-0.026 0.16,-0.078 0.033,-0.052 0.05,-0.128 0.05,-0.228 0,-0.111 -0.022,-0.191 -0.067,-0.243 m 0.983,0.209 c -0.036,0.037 -0.087,0.063 -0.153,0.078 -0.021,0.005 -0.048,0.011 -0.081,0.017 -0.032,0.006 -0.062,0.012 -0.088,0.018 -0.047,0.011 -0.081,0.025 -0.102,0.043 -0.022,0.017 -0.033,0.043 -0.033,0.078 0,0.039 0.018,0.069 0.054,0.089 0.036,0.02 0.079,0.03 0.131,0.03 0.05,0 0.101,-0.01 0.152,-0.028 0.052,-0.018 0.096,-0.041 0.132,-0.067 l 0.008,0 0,0.151 c -0.034,0.018 -0.077,0.033 -0.129,0.045 -0.051,0.012 -0.102,0.018 -0.152,0.018 -0.054,0 -0.103,-0.006 -0.146,-0.02 -0.044,-0.014 -0.08,-0.033 -0.108,-0.056 -0.029,-0.025 -0.051,-0.052 -0.065,-0.083 -0.014,-0.03 -0.021,-0.063 -0.021,-0.098 0,-0.055 0.015,-0.102 0.046,-0.14 0.031,-0.038 0.083,-0.066 0.157,-0.086 0.027,-0.007 0.056,-0.014 0.089,-0.02 0.032,-0.006 0.058,-0.011 0.079,-0.015 0.054,-0.012 0.091,-0.027 0.11,-0.044 0.019,-0.017 0.028,-0.042 0.028,-0.076 0,-0.043 -0.017,-0.074 -0.052,-0.095 -0.036,-0.02 -0.084,-0.03 -0.147,-0.03 -0.05,0 -0.103,0.01 -0.157,0.03 -0.055,0.02 -0.105,0.047 -0.15,0.08 l -0.007,0 0,-0.159 c 0.035,-0.017 0.079,-0.034 0.131,-0.048 0.052,-0.015 0.109,-0.023 0.171,-0.023 0.11,0 0.197,0.025 0.261,0.074 0.063,0.05 0.095,0.113 0.095,0.19 0,0.061 -0.018,0.11 -0.053,0.147 m 0.693,-0.255 -0.007,0 c -0.011,-0.005 -0.029,-0.01 -0.054,-0.017 -0.026,-0.007 -0.05,-0.01 -0.073,-0.01 -0.04,0 -0.069,0.004 -0.088,0.013 -0.02,0.01 -0.035,0.024 -0.046,0.045 -0.012,0.021 -0.019,0.044 -0.021,0.069 -0.002,0.025 -0.003,0.06 -0.003,0.104 l 0,0.384 0.292,0 0,0.119 -0.292,0 0,0.242 -0.142,0 0,-0.242 -0.096,0 0,-0.119 0.096,0 0,-0.448 c 0,-0.102 0.022,-0.176 0.067,-0.223 0.045,-0.046 0.11,-0.069 0.196,-0.069 0.025,0 0.053,0.002 0.084,0.007 0.032,0.004 0.061,0.01 0.087,0.017 l 0,0.128 z m 0.826,0.436 c 0,0.055 -0.008,0.1 -0.025,0.137 -0.016,0.037 -0.04,0.066 -0.072,0.09 -0.032,0.023 -0.07,0.04 -0.114,0.05 -0.044,0.01 -0.096,0.014 -0.155,0.014 -0.051,0 -0.103,-0.004 -0.155,-0.013 -0.052,-0.009 -0.092,-0.017 -0.12,-0.025 l 0,-0.144 0.008,0 c 0.048,0.019 0.096,0.033 0.142,0.043 0.045,0.009 0.087,0.014 0.124,0.014 0.031,0 0.06,-0.002 0.088,-0.006 0.028,-0.004 0.052,-0.012 0.073,-0.023 0.021,-0.012 0.037,-0.029 0.048,-0.05 0.012,-0.021 0.017,-0.048 0.017,-0.08 l 0,-0.022 c -0.082,-0.004 -0.159,-0.01 -0.231,-0.018 -0.072,-0.008 -0.134,-0.023 -0.185,-0.046 -0.051,-0.022 -0.09,-0.054 -0.117,-0.093 -0.028,-0.039 -0.041,-0.091 -0.041,-0.155 0,-0.078 0.026,-0.142 0.079,-0.192 0.053,-0.051 0.117,-0.076 0.193,-0.076 0.041,0 0.077,0.004 0.108,0.012 0.03,0.008 0.057,0.017 0.081,0.029 0.02,0.009 0.041,0.021 0.062,0.037 0.022,0.015 0.039,0.027 0.051,0.035 l 0,-0.089 0.141,0 0,0.571 z m -0.255,-0.434 c -0.042,-0.019 -0.087,-0.029 -0.137,-0.029 -0.06,0 -0.104,0.012 -0.133,0.037 -0.03,0.024 -0.044,0.061 -0.044,0.109 0,0.043 0.012,0.076 0.038,0.101 0.025,0.024 0.058,0.042 0.098,0.053 0.035,0.01 0.081,0.017 0.139,0.022 0.059,0.005 0.11,0.009 0.153,0.012 l 0,-0.235 c -0.035,-0.027 -0.073,-0.05 -0.114,-0.07 m 1.233,0.409 c 0,0.104 -0.024,0.182 -0.072,0.237 -0.048,0.055 -0.117,0.082 -0.208,0.082 -0.05,0 -0.098,-0.01 -0.146,-0.03 -0.047,-0.021 -0.093,-0.05 -0.137,-0.086 l 0,0.093 -0.142,0 0,-0.842 0.142,0 0,0.629 c 0.039,0.029 0.079,0.054 0.121,0.073 0.043,0.019 0.083,0.028 0.122,0.028 0.038,0 0.068,-0.005 0.092,-0.015 0.023,-0.01 0.042,-0.026 0.054,-0.047 0.012,-0.019 0.021,-0.046 0.025,-0.08 0.005,-0.034 0.007,-0.07 0.007,-0.109 l 0,-0.479 0.142,0 0,0.546 z m 0.956,0.627 -0.142,0 0,-0.365 c -0.038,0.02 -0.074,0.034 -0.108,0.044 -0.034,0.009 -0.073,0.013 -0.117,0.013 -0.049,0 -0.096,-0.01 -0.142,-0.03 -0.045,-0.02 -0.085,-0.049 -0.119,-0.087 -0.035,-0.039 -0.063,-0.087 -0.083,-0.143 -0.02,-0.056 -0.03,-0.119 -0.03,-0.191 0,-0.137 0.029,-0.244 0.088,-0.322 0.059,-0.077 0.139,-0.116 0.24,-0.116 0.051,0 0.099,0.01 0.144,0.03 0.044,0.019 0.086,0.047 0.127,0.082 l 0,-0.088 0.142,0 0,1.173 z m -0.257,-1.035 c -0.042,-0.018 -0.082,-0.027 -0.122,-0.027 -0.076,0 -0.131,0.026 -0.165,0.078 -0.034,0.052 -0.051,0.128 -0.051,0.229 0,0.101 0.022,0.179 0.066,0.235 0.044,0.055 0.106,0.083 0.186,0.083 0.035,0 0.068,-0.004 0.099,-0.01 0.03,-0.007 0.064,-0.018 0.102,-0.036 l 0,-0.483 c -0.036,-0.028 -0.074,-0.051 -0.115,-0.069 m 1.532,1.028 c -0.021,0.004 -0.044,0.007 -0.07,0.01 -0.025,0.003 -0.054,0.005 -0.085,0.005 -0.094,0 -0.166,-0.027 -0.216,-0.081 -0.05,-0.053 -0.075,-0.13 -0.075,-0.23 l 0,-0.028 -0.095,0 0,-0.119 0.095,0 0,-0.723 0.142,0 0,0.723 0.251,0 0,0.119 -0.255,0 0,0.029 c 0,0.07 0.013,0.119 0.041,0.146 0.027,0.027 0.071,0.04 0.132,0.04 0.019,0 0.041,-0.002 0.067,-0.007 0.025,-0.005 0.045,-0.01 0.061,-0.014 l 0.007,0 0,0.13 z m 0.788,-0.324 -0.142,0 0,-0.629 c -0.037,-0.03 -0.078,-0.054 -0.121,-0.073 -0.044,-0.019 -0.084,-0.029 -0.121,-0.029 -0.041,0 -0.072,0.005 -0.094,0.015 -0.022,0.01 -0.039,0.027 -0.053,0.049 -0.013,0.021 -0.021,0.047 -0.025,0.078 -0.004,0.03 -0.006,0.067 -0.006,0.109 l 0,0.48 -0.142,0 0,-0.547 c 0,-0.104 0.024,-0.184 0.074,-0.238 0.049,-0.054 0.118,-0.081 0.206,-0.081 0.053,0 0.101,0.01 0.145,0.03 0.044,0.021 0.09,0.05 0.137,0.087 l 0,-0.093 0.142,0 0,0.842 z m -0.117,0.288 -0.15,0 0,-0.147 0.15,0 0,0.147 z m -0.312,0 -0.15,0 0,-0.147 0.15,0 0,0.147 z m 1.234,-0.297 c -0.022,0.004 -0.039,0.006 -0.05,0.007 -0.011,0.001 -0.029,0.002 -0.053,0.002 -0.045,0 -0.089,-0.009 -0.132,-0.028 -0.043,-0.019 -0.093,-0.051 -0.149,-0.096 l 0,0.124 -0.142,0 0,-0.842 0.142,0 0,0.598 c 0.038,0.03 0.077,0.055 0.118,0.075 0.04,0.019 0.083,0.029 0.126,0.029 0.028,0 0.051,-0.001 0.071,-0.004 0.02,-0.002 0.04,-0.006 0.061,-0.011 l 0.008,0 0,0.146 z m 1.489,0.29 -0.952,0 0,-0.133 0.401,0 0,-0.99 0.149,0 0,0.99 0.402,0 0,0.133 z m 0.678,-0.64 c 0,0.122 -0.03,0.217 -0.092,0.283 -0.062,0.066 -0.149,0.099 -0.263,0.099 -0.123,0 -0.222,-0.04 -0.297,-0.121 -0.075,-0.081 -0.112,-0.19 -0.112,-0.328 0,-0.139 0.039,-0.247 0.117,-0.322 0.079,-0.076 0.188,-0.114 0.328,-0.114 0.054,0 0.107,0.007 0.156,0.02 0.05,0.014 0.099,0.031 0.147,0.051 l 0,0.155 -0.008,0 c -0.024,-0.023 -0.066,-0.045 -0.124,-0.068 -0.058,-0.023 -0.116,-0.034 -0.173,-0.034 -0.043,0 -0.083,0.006 -0.119,0.018 -0.036,0.012 -0.067,0.03 -0.093,0.054 -0.027,0.025 -0.048,0.056 -0.064,0.095 -0.016,0.038 -0.023,0.083 -0.023,0.135 l 0.62,0 0,0.077 z m -0.62,0.032 c 0.006,0.066 0.031,0.122 0.076,0.166 0.045,0.045 0.106,0.068 0.182,0.068 0.075,0 0.131,-0.021 0.168,-0.062 0.037,-0.04 0.056,-0.098 0.056,-0.172 l -0.482,0 z m 1.233,-0.088 0.331,0.415 -0.165,0 -0.239,-0.318 -0.237,0.318 -0.179,0 0.326,-0.422 -0.329,-0.42 0.165,0 0.241,0.323 0.239,-0.323 0.178,0 -0.331,0.427 z m 0.954,-0.292 -0.008,0 c -0.011,-0.005 -0.029,-0.01 -0.054,-0.017 -0.025,-0.007 -0.049,-0.01 -0.073,-0.01 -0.039,0 -0.069,0.004 -0.088,0.013 -0.02,0.01 -0.035,0.024 -0.046,0.045 -0.012,0.021 -0.019,0.044 -0.021,0.069 -0.002,0.025 -0.003,0.06 -0.003,0.104 l 0,0.384 0.293,0 0,0.119 -0.293,0 0,0.242 -0.142,0 0,-0.242 -0.095,0 0,-0.119 0.095,0 0,-0.448 c 0,-0.102 0.023,-0.176 0.067,-0.223 0.045,-0.046 0.111,-0.069 0.196,-0.069 0.025,0 0.053,0.002 0.085,0.007 0.031,0.004 0.06,0.01 0.087,0.017 l 0,0.128 z m 1.412,0.707 -0.142,0 0,-0.629 c -0.037,-0.03 -0.078,-0.054 -0.121,-0.073 -0.044,-0.019 -0.084,-0.029 -0.121,-0.029 -0.041,0 -0.072,0.005 -0.094,0.015 -0.022,0.01 -0.039,0.027 -0.053,0.049 -0.013,0.021 -0.021,0.047 -0.025,0.078 -0.004,0.03 -0.006,0.067 -0.006,0.109 l 0,0.48 -0.142,0 0,-0.547 c 0,-0.104 0.024,-0.184 0.074,-0.238 0.049,-0.054 0.118,-0.081 0.206,-0.081 0.053,0 0.101,0.01 0.145,0.03 0.044,0.021 0.09,0.05 0.137,0.087 l 0,-0.093 0.142,0 0,0.842 z m 0.984,-0.296 c 0,0.104 -0.024,0.182 -0.072,0.237 -0.048,0.055 -0.117,0.082 -0.208,0.082 -0.05,0 -0.098,-0.01 -0.146,-0.03 -0.047,-0.021 -0.093,-0.05 -0.137,-0.086 l 0,0.093 -0.142,0 0,-0.842 0.142,0 0,0.629 c 0.039,0.029 0.079,0.054 0.121,0.073 0.043,0.019 0.083,0.028 0.122,0.028 0.038,0 0.068,-0.005 0.092,-0.015 0.023,-0.01 0.042,-0.026 0.054,-0.047 0.012,-0.019 0.021,-0.046 0.025,-0.08 0.005,-0.034 0.007,-0.07 0.007,-0.109 l 0,-0.479 0.142,0 0,0.546 z m 0.956,0.627 -0.142,0 0,-0.365 c -0.038,0.02 -0.074,0.034 -0.108,0.044 -0.034,0.009 -0.073,0.013 -0.117,0.013 -0.049,0 -0.096,-0.01 -0.142,-0.03 -0.045,-0.02 -0.085,-0.049 -0.119,-0.087 -0.035,-0.039 -0.063,-0.087 -0.083,-0.143 -0.02,-0.056 -0.03,-0.119 -0.03,-0.191 0,-0.137 0.029,-0.244 0.088,-0.322 0.059,-0.077 0.139,-0.116 0.24,-0.116 0.051,0 0.099,0.01 0.144,0.03 0.044,0.019 0.086,0.047 0.127,0.082 l 0,-0.088 0.142,0 0,1.173 z m -0.257,-1.035 c -0.042,-0.018 -0.082,-0.027 -0.122,-0.027 -0.076,0 -0.131,0.026 -0.165,0.078 -0.034,0.052 -0.051,0.128 -0.051,0.229 0,0.101 0.022,0.179 0.066,0.235 0.044,0.055 0.106,0.083 0.186,0.083 0.035,0 0.068,-0.004 0.099,-0.01 0.03,-0.007 0.064,-0.018 0.102,-0.036 l 0,-0.483 c -0.036,-0.028 -0.074,-0.051 -0.115,-0.069 m 1.733,0.433 c 0,0.055 -0.008,0.1 -0.024,0.137 -0.017,0.037 -0.041,0.066 -0.073,0.09 -0.032,0.023 -0.07,0.04 -0.114,0.05 -0.044,0.01 -0.096,0.014 -0.155,0.014 -0.051,0 -0.102,-0.004 -0.155,-0.013 -0.052,-0.009 -0.092,-0.017 -0.12,-0.025 l 0,-0.144 0.008,0 c 0.049,0.019 0.096,0.033 0.142,0.043 0.046,0.009 0.087,0.014 0.124,0.014 0.031,0 0.06,-0.002 0.088,-0.006 0.029,-0.004 0.053,-0.012 0.073,-0.023 0.021,-0.012 0.037,-0.029 0.048,-0.05 0.012,-0.021 0.017,-0.048 0.017,-0.08 l 0,-0.022 c -0.082,-0.004 -0.159,-0.01 -0.231,-0.018 -0.072,-0.008 -0.134,-0.023 -0.185,-0.046 -0.051,-0.022 -0.09,-0.054 -0.117,-0.093 -0.028,-0.039 -0.041,-0.091 -0.041,-0.155 0,-0.078 0.026,-0.142 0.079,-0.192 0.053,-0.051 0.117,-0.076 0.193,-0.076 0.041,0 0.077,0.004 0.108,0.012 0.031,0.008 0.058,0.017 0.081,0.029 0.02,0.009 0.041,0.021 0.063,0.037 0.021,0.015 0.038,0.027 0.05,0.035 l 0,-0.089 0.141,0 0,0.571 z m -0.255,-0.434 c -0.041,-0.019 -0.087,-0.029 -0.137,-0.029 -0.06,0 -0.104,0.012 -0.133,0.037 -0.029,0.024 -0.044,0.061 -0.044,0.109 0,0.043 0.013,0.076 0.038,0.101 0.025,0.024 0.058,0.042 0.099,0.053 0.034,0.01 0.08,0.017 0.139,0.022 0.058,0.005 0.109,0.009 0.152,0.012 l 0,-0.235 c -0.035,-0.027 -0.073,-0.05 -0.114,-0.07 m 1.233,0.409 c 0,0.104 -0.024,0.182 -0.072,0.237 -0.048,0.055 -0.117,0.082 -0.208,0.082 -0.05,0 -0.098,-0.01 -0.145,-0.03 -0.048,-0.021 -0.094,-0.05 -0.138,-0.086 l 0,0.093 -0.142,0 0,-0.842 0.142,0 0,0.629 c 0.039,0.029 0.079,0.054 0.122,0.073 0.042,0.019 0.082,0.028 0.121,0.028 0.038,0 0.068,-0.005 0.092,-0.015 0.024,-0.01 0.042,-0.026 0.054,-0.047 0.012,-0.019 0.021,-0.046 0.025,-0.08 0.005,-0.034 0.007,-0.07 0.007,-0.109 l 0,-0.479 0.142,0 0,0.546 z m 0.956,0.627 -0.142,0 0,-0.365 c -0.037,0.02 -0.073,0.034 -0.108,0.044 -0.034,0.009 -0.073,0.013 -0.117,0.013 -0.049,0 -0.096,-0.01 -0.142,-0.03 -0.045,-0.02 -0.085,-0.049 -0.119,-0.087 -0.035,-0.039 -0.062,-0.087 -0.083,-0.143 -0.02,-0.056 -0.03,-0.119 -0.03,-0.191 0,-0.137 0.029,-0.244 0.088,-0.322 0.059,-0.077 0.139,-0.116 0.24,-0.116 0.052,0 0.1,0.01 0.144,0.03 0.044,0.019 0.087,0.047 0.127,0.082 l 0,-0.088 0.142,0 0,1.173 z m -0.257,-1.035 c -0.041,-0.018 -0.082,-0.027 -0.122,-0.027 -0.076,0 -0.13,0.026 -0.165,0.078 -0.034,0.052 -0.051,0.128 -0.051,0.229 0,0.101 0.022,0.179 0.066,0.235 0.045,0.055 0.107,0.083 0.186,0.083 0.036,0 0.069,-0.004 0.099,-0.01 0.03,-0.007 0.064,-0.018 0.102,-0.036 l 0,-0.483 c -0.035,-0.028 -0.074,-0.051 -0.115,-0.069 m 1.241,0.345 c 0,0.122 -0.031,0.217 -0.092,0.283 -0.062,0.066 -0.149,0.099 -0.263,0.099 -0.123,0 -0.222,-0.04 -0.297,-0.121 -0.075,-0.081 -0.112,-0.19 -0.112,-0.328 0,-0.139 0.039,-0.247 0.117,-0.322 0.079,-0.076 0.188,-0.114 0.328,-0.114 0.054,0 0.107,0.007 0.156,0.02 0.05,0.014 0.099,0.031 0.147,0.051 l 0,0.155 -0.008,0 c -0.024,-0.023 -0.066,-0.045 -0.124,-0.068 -0.058,-0.023 -0.116,-0.034 -0.173,-0.034 -0.043,0 -0.083,0.006 -0.119,0.018 -0.036,0.012 -0.067,0.03 -0.093,0.054 -0.027,0.025 -0.048,0.056 -0.064,0.095 -0.016,0.038 -0.023,0.083 -0.023,0.135 l 0.62,0 0,0.077 z m -0.62,0.032 c 0.006,0.066 0.031,0.122 0.076,0.166 0.045,0.045 0.106,0.068 0.182,0.068 0.075,0 0.131,-0.021 0.168,-0.062 0.037,-0.04 0.056,-0.098 0.056,-0.172 l -0.482,0 z m 1.361,0.318 c -0.022,0.004 -0.039,0.006 -0.05,0.007 -0.011,0.001 -0.029,0.002 -0.053,0.002 -0.045,0 -0.089,-0.009 -0.132,-0.028 -0.043,-0.019 -0.093,-0.051 -0.149,-0.096 l 0,0.124 -0.142,0 0,-0.842 0.142,0 0,0.598 c 0.038,0.03 0.077,0.055 0.118,0.075 0.04,0.019 0.083,0.029 0.126,0.029 0.027,0 0.051,-0.001 0.071,-0.004 0.02,-0.002 0.04,-0.006 0.061,-0.011 l 0.008,0 0,0.146 z m 0.838,-0.35 c 0,0.122 -0.03,0.217 -0.092,0.283 -0.062,0.066 -0.149,0.099 -0.263,0.099 -0.122,0 -0.221,-0.04 -0.296,-0.121 -0.076,-0.081 -0.113,-0.19 -0.113,-0.328 0,-0.139 0.039,-0.247 0.117,-0.322 0.079,-0.076 0.188,-0.114 0.328,-0.114 0.054,0 0.107,0.007 0.157,0.02 0.049,0.014 0.098,0.031 0.146,0.051 l 0,0.155 -0.008,0 c -0.024,-0.023 -0.066,-0.045 -0.124,-0.068 -0.058,-0.023 -0.115,-0.034 -0.173,-0.034 -0.043,0 -0.083,0.006 -0.119,0.018 -0.036,0.012 -0.067,0.03 -0.093,0.054 -0.027,0.025 -0.048,0.056 -0.064,0.095 -0.015,0.038 -0.023,0.083 -0.023,0.135 l 0.62,0 0,0.077 z m -0.62,0.032 c 0.006,0.066 0.031,0.122 0.076,0.166 0.045,0.045 0.106,0.068 0.182,0.068 0.075,0 0.131,-0.021 0.168,-0.062 0.037,-0.04 0.056,-0.098 0.056,-0.172 l -0.482,0 z m 2.295,0.327 -0.146,-0.652 -0.216,0.652 -0.116,0 -0.211,-0.652 -0.154,0.652 -0.148,0 0.221,-0.842 0.131,0 0.215,0.649 0.216,-0.649 0.132,0 0.219,0.842 -0.143,0 z m 0.5,0.288 -0.16,0 0,-0.147 0.16,0 0,0.147 z m -0.009,-0.288 -0.142,0 0,-0.842 0.142,0 0,0.842 z m 0.903,-0.633 -0.007,0 c -0.011,-0.009 -0.025,-0.019 -0.043,-0.031 -0.019,-0.012 -0.038,-0.023 -0.059,-0.034 -0.023,-0.012 -0.05,-0.021 -0.079,-0.029 -0.03,-0.007 -0.059,-0.011 -0.088,-0.011 -0.082,0 -0.146,0.027 -0.192,0.082 -0.045,0.054 -0.068,0.132 -0.068,0.234 0,0.104 0.023,0.184 0.07,0.238 0.046,0.054 0.11,0.081 0.19,0.081 0.044,0 0.089,-0.009 0.135,-0.027 0.046,-0.018 0.09,-0.044 0.134,-0.078 l 0.007,0 0,0.158 c -0.039,0.019 -0.081,0.036 -0.128,0.049 -0.046,0.014 -0.094,0.021 -0.142,0.021 -0.124,0 -0.224,-0.04 -0.3,-0.118 -0.075,-0.078 -0.113,-0.186 -0.113,-0.324 0,-0.074 0.01,-0.139 0.03,-0.194 0.02,-0.055 0.049,-0.101 0.085,-0.137 0.036,-0.037 0.08,-0.064 0.131,-0.081 0.05,-0.018 0.106,-0.027 0.167,-0.027 0.048,0 0.093,0.006 0.135,0.019 0.043,0.012 0.088,0.03 0.135,0.052 l 0,0.157 z m 0.886,0.337 c 0,0.104 -0.024,0.182 -0.071,0.237 -0.048,0.055 -0.118,0.082 -0.209,0.082 -0.049,0 -0.098,-0.01 -0.145,-0.03 -0.047,-0.021 -0.093,-0.05 -0.137,-0.086 l 0,0.424 -0.142,0 0,-1.173 0.142,0 0,0.629 c 0.038,0.029 0.079,0.054 0.121,0.073 0.042,0.019 0.083,0.028 0.121,0.028 0.038,0 0.069,-0.005 0.092,-0.015 0.024,-0.01 0.042,-0.026 0.055,-0.047 0.012,-0.019 0.02,-0.046 0.025,-0.08 0.004,-0.034 0.006,-0.07 0.006,-0.109 l 0,-0.479 0.142,0 0,0.546 z m 0.711,-0.411 -0.008,0 c -0.011,-0.005 -0.029,-0.01 -0.054,-0.017 -0.025,-0.007 -0.05,-0.01 -0.073,-0.01 -0.039,0 -0.069,0.004 -0.088,0.013 -0.02,0.01 -0.035,0.024 -0.046,0.045 -0.012,0.021 -0.019,0.044 -0.021,0.069 -0.002,0.025 -0.003,0.06 -0.003,0.104 l 0,0.384 0.293,0 0,0.119 -0.293,0 0,0.242 -0.142,0 0,-0.242 -0.096,0 0,-0.119 0.096,0 0,-0.448 c 0,-0.102 0.023,-0.176 0.067,-0.223 0.045,-0.046 0.11,-0.069 0.196,-0.069 0.025,0 0.053,0.002 0.085,0.007 0.031,0.004 0.06,0.01 0.087,0.017 l 0,0.128 z m 0.323,0.995 -0.16,0 0,-0.147 0.16,0 0,0.147 z m -0.009,-0.288 -0.142,0 0,-0.842 0.142,0 0,0.842 z m 0.964,0 -0.133,0 -0.009,-0.036 c -0.037,0.02 -0.071,0.035 -0.104,0.045 -0.033,0.01 -0.074,0.014 -0.123,0.014 -0.046,0 -0.093,-0.009 -0.139,-0.029 -0.047,-0.02 -0.087,-0.048 -0.12,-0.084 -0.035,-0.038 -0.063,-0.083 -0.083,-0.136 -0.02,-0.052 -0.03,-0.115 -0.03,-0.187 0,-0.132 0.029,-0.235 0.088,-0.308 0.059,-0.072 0.139,-0.108 0.24,-0.108 0.06,0 0.11,0.008 0.149,0.025 0.039,0.017 0.079,0.042 0.122,0.076 l 0,-0.077 c 0,-0.034 -0.004,-0.065 -0.011,-0.092 -0.008,-0.028 -0.02,-0.052 -0.038,-0.071 -0.018,-0.021 -0.042,-0.037 -0.074,-0.049 -0.031,-0.011 -0.071,-0.017 -0.12,-0.017 -0.05,0 -0.1,0.007 -0.151,0.02 -0.05,0.013 -0.087,0.025 -0.11,0.034 l -0.007,0 0,-0.145 c 0.041,-0.012 0.083,-0.021 0.125,-0.027 0.043,-0.006 0.086,-0.009 0.131,-0.009 0.135,0 0.235,0.033 0.3,0.1 0.064,0.067 0.097,0.172 0.097,0.314 l 0,0.747 z m -0.256,-0.674 c -0.042,-0.016 -0.083,-0.024 -0.124,-0.024 -0.077,0 -0.132,0.024 -0.165,0.073 -0.034,0.049 -0.05,0.12 -0.05,0.215 0,0.099 0.022,0.175 0.067,0.228 0.045,0.052 0.106,0.078 0.184,0.078 0.032,0 0.064,-0.004 0.097,-0.011 0.032,-0.007 0.067,-0.019 0.105,-0.037 l 0,-0.459 c -0.035,-0.026 -0.073,-0.048 -0.114,-0.063 m 1.24,0.315 c 0,0.122 -0.031,0.217 -0.092,0.283 -0.062,0.066 -0.15,0.099 -0.263,0.099 -0.123,0 -0.222,-0.04 -0.297,-0.121 -0.075,-0.081 -0.113,-0.19 -0.113,-0.328 0,-0.139 0.04,-0.247 0.118,-0.322 0.078,-0.076 0.188,-0.114 0.327,-0.114 0.055,0 0.107,0.007 0.157,0.02 0.05,0.014 0.099,0.031 0.146,0.051 l 0,0.155 -0.007,0 c -0.025,-0.023 -0.066,-0.045 -0.124,-0.068 -0.058,-0.023 -0.116,-0.034 -0.173,-0.034 -0.043,0 -0.083,0.006 -0.119,0.018 -0.036,0.012 -0.067,0.03 -0.093,0.054 -0.027,0.025 -0.049,0.056 -0.064,0.095 -0.016,0.038 -0.024,0.083 -0.024,0.135 l 0.621,0 0,0.077 z m -0.621,0.032 c 0.006,0.066 0.032,0.122 0.077,0.166 0.045,0.045 0.105,0.068 0.181,0.068 0.076,0 0.132,-0.021 0.169,-0.062 0.037,-0.04 0.056,-0.098 0.056,-0.172 l -0.483,0 z m 2.13,-0.383 -0.59,0 0,0.417 0.59,0 0,0.133 -0.59,0 0,0.308 0.59,0 0,0.133 -0.74,0 0,-1.123 0.74,0 0,0.132 z m 0.369,1.041 -0.142,0 0,-1.173 0.142,0 0,1.173 z m 0.986,-0.69 c 0,0.122 -0.031,0.217 -0.093,0.283 -0.061,0.066 -0.149,0.099 -0.263,0.099 -0.122,0 -0.221,-0.04 -0.296,-0.121 -0.076,-0.081 -0.113,-0.19 -0.113,-0.328 0,-0.139 0.039,-0.247 0.118,-0.322 0.078,-0.076 0.187,-0.114 0.327,-0.114 0.055,0 0.107,0.007 0.157,0.02 0.049,0.014 0.098,0.031 0.146,0.051 l 0,0.155 -0.008,0 c -0.024,-0.023 -0.066,-0.045 -0.124,-0.068 -0.058,-0.023 -0.115,-0.034 -0.173,-0.034 -0.043,0 -0.083,0.006 -0.118,0.018 -0.036,0.012 -0.067,0.03 -0.094,0.054 -0.027,0.025 -0.048,0.056 -0.064,0.095 -0.015,0.038 -0.023,0.083 -0.023,0.135 l 0.621,0 0,0.077 z m -0.621,0.032 c 0.006,0.066 0.031,0.122 0.076,0.166 0.045,0.045 0.106,0.068 0.182,0.068 0.075,0 0.131,-0.021 0.168,-0.062 0.037,-0.04 0.056,-0.098 0.057,-0.172 l -0.483,0 z m 2.065,0.031 c 0,0.101 -0.022,0.179 -0.066,0.235 -0.044,0.056 -0.112,0.084 -0.205,0.084 -0.054,0 -0.104,-0.01 -0.152,-0.032 -0.047,-0.021 -0.099,-0.056 -0.156,-0.104 -0.02,0.043 -0.05,0.076 -0.09,0.1 -0.04,0.024 -0.088,0.036 -0.146,0.036 -0.05,0 -0.096,-0.01 -0.14,-0.03 -0.044,-0.021 -0.088,-0.05 -0.133,-0.086 l 0,0.093 -0.142,0 0,-0.842 0.142,0 0,0.629 c 0.039,0.029 0.078,0.054 0.117,0.073 0.039,0.019 0.078,0.028 0.116,0.028 0.041,0 0.072,-0.005 0.094,-0.016 0.021,-0.011 0.038,-0.027 0.05,-0.048 0.01,-0.021 0.017,-0.047 0.02,-0.081 0.004,-0.033 0.005,-0.068 0.005,-0.106 l 0,-0.479 0.142,0 0,0.539 c 0,0.015 0,0.03 -0.001,0.046 -0.002,0.015 -0.003,0.028 -0.004,0.04 0.039,0.031 0.079,0.056 0.119,0.076 0.04,0.02 0.079,0.029 0.119,0.029 0.041,0 0.072,-0.005 0.094,-0.016 0.021,-0.011 0.038,-0.028 0.049,-0.049 0.011,-0.02 0.018,-0.047 0.021,-0.081 0.003,-0.034 0.005,-0.068 0.005,-0.105 l 0,-0.479 0.142,0 0,0.546 z m 0.978,-0.063 c 0,0.122 -0.031,0.217 -0.093,0.283 -0.061,0.066 -0.149,0.099 -0.262,0.099 -0.123,0 -0.222,-0.04 -0.297,-0.121 -0.075,-0.081 -0.113,-0.19 -0.113,-0.328 0,-0.139 0.039,-0.247 0.118,-0.322 0.078,-0.076 0.187,-0.114 0.327,-0.114 0.055,0 0.107,0.007 0.157,0.02 0.05,0.014 0.099,0.031 0.146,0.051 l 0,0.155 -0.007,0 c -0.025,-0.023 -0.066,-0.045 -0.124,-0.068 -0.058,-0.023 -0.116,-0.034 -0.173,-0.034 -0.044,0 -0.083,0.006 -0.119,0.018 -0.036,0.012 -0.067,0.03 -0.093,0.054 -0.027,0.025 -0.049,0.056 -0.064,0.095 -0.016,0.038 -0.024,0.083 -0.024,0.135 l 0.621,0 0,0.077 z m -0.621,0.032 c 0.006,0.066 0.032,0.122 0.077,0.166 0.045,0.045 0.105,0.068 0.181,0.068 0.076,0 0.132,-0.021 0.169,-0.062 0.037,-0.04 0.055,-0.098 0.056,-0.172 l -0.483,0 z m 1.54,0.031 c 0,0.104 -0.024,0.182 -0.071,0.237 -0.048,0.055 -0.118,0.082 -0.209,0.082 -0.049,0 -0.098,-0.01 -0.145,-0.03 -0.047,-0.021 -0.093,-0.05 -0.137,-0.086 l 0,0.093 -0.142,0 0,-0.842 0.142,0 0,0.629 c 0.038,0.029 0.079,0.054 0.121,0.073 0.042,0.019 0.083,0.028 0.121,0.028 0.038,0 0.069,-0.005 0.092,-0.015 0.024,-0.01 0.042,-0.026 0.055,-0.047 0.012,-0.019 0.02,-0.046 0.025,-0.08 0.004,-0.034 0.006,-0.07 0.006,-0.109 l 0,-0.479 0.142,0 0,0.546 z m 0.711,-0.411 -0.008,0 c -0.011,-0.005 -0.029,-0.01 -0.054,-0.017 -0.025,-0.007 -0.05,-0.01 -0.073,-0.01 -0.039,0 -0.069,0.004 -0.088,0.013 -0.02,0.01 -0.035,0.024 -0.046,0.045 -0.012,0.021 -0.019,0.044 -0.021,0.069 -0.002,0.025 -0.003,0.06 -0.003,0.104 l 0,0.384 0.293,0 0,0.119 -0.293,0 0,0.242 -0.142,0 0,-0.242 -0.096,0 0,-0.119 0.096,0 0,-0.448 c 0,-0.102 0.023,-0.176 0.067,-0.223 0.045,-0.046 0.11,-0.069 0.196,-0.069 0.025,0 0.053,0.002 0.084,0.007 0.032,0.004 0.061,0.01 0.088,0.017 l 0,0.128 z m 0.876,0.348 c 0,0.122 -0.031,0.217 -0.092,0.283 -0.062,0.066 -0.15,0.099 -0.263,0.099 -0.123,0 -0.222,-0.04 -0.297,-0.121 -0.075,-0.081 -0.113,-0.19 -0.113,-0.328 0,-0.139 0.039,-0.247 0.118,-0.322 0.078,-0.076 0.187,-0.114 0.327,-0.114 0.055,0 0.107,0.007 0.157,0.02 0.05,0.014 0.099,0.031 0.146,0.051 l 0,0.155 -0.007,0 c -0.025,-0.023 -0.066,-0.045 -0.124,-0.068 -0.058,-0.023 -0.116,-0.034 -0.173,-0.034 -0.044,0 -0.083,0.006 -0.119,0.018 -0.036,0.012 -0.067,0.03 -0.093,0.054 -0.027,0.025 -0.049,0.056 -0.064,0.095 -0.016,0.038 -0.024,0.083 -0.024,0.135 l 0.621,0 0,0.077 z m -0.621,0.032 c 0.006,0.066 0.032,0.122 0.077,0.166 0.045,0.045 0.105,0.068 0.181,0.068 0.076,0 0.132,-0.021 0.169,-0.062 0.037,-0.04 0.055,-0.098 0.056,-0.172 l -0.483,0 z m 1.99,-0.395 -0.506,0 0.493,0.621 0,0.101 -0.657,0 0,-0.118 0.48,0 -0.491,-0.619 0,-0.105 0.681,0 0,0.12 z m 0.899,0.722 -0.142,0 0,-0.629 c -0.038,-0.03 -0.078,-0.054 -0.122,-0.073 -0.043,-0.019 -0.084,-0.029 -0.12,-0.029 -0.041,0 -0.073,0.005 -0.094,0.015 -0.022,0.01 -0.04,0.027 -0.053,0.049 -0.013,0.021 -0.022,0.047 -0.026,0.078 -0.004,0.03 -0.006,0.067 -0.006,0.109 l 0,0.48 -0.142,0 0,-0.547 c 0,-0.104 0.025,-0.184 0.074,-0.238 0.049,-0.054 0.118,-0.081 0.207,-0.081 0.053,0 0.101,0.01 0.145,0.03 0.043,0.021 0.089,0.05 0.137,0.087 l 0,-0.093 0.142,0 0,0.842 z m 1.508,-0.296 c 0,0.101 -0.022,0.179 -0.066,0.235 -0.044,0.056 -0.112,0.084 -0.205,0.084 -0.054,0 -0.104,-0.01 -0.151,-0.032 -0.048,-0.021 -0.1,-0.056 -0.157,-0.104 -0.02,0.043 -0.05,0.076 -0.09,0.1 -0.04,0.024 -0.088,0.036 -0.146,0.036 -0.049,0 -0.096,-0.01 -0.14,-0.03 -0.044,-0.021 -0.088,-0.05 -0.133,-0.086 l 0,0.093 -0.141,0 0,-0.842 0.141,0 0,0.629 c 0.039,0.029 0.078,0.054 0.117,0.073 0.039,0.019 0.078,0.028 0.116,0.028 0.041,0 0.072,-0.005 0.094,-0.016 0.022,-0.011 0.038,-0.027 0.05,-0.048 0.01,-0.021 0.017,-0.047 0.021,-0.081 0.003,-0.033 0.004,-0.068 0.004,-0.106 l 0,-0.479 0.142,0 0,0.539 c 0,0.015 0,0.03 -0.001,0.046 -0.001,0.015 -0.003,0.028 -0.004,0.04 0.04,0.031 0.079,0.056 0.119,0.076 0.04,0.02 0.079,0.029 0.119,0.029 0.041,0 0.072,-0.005 0.094,-0.016 0.021,-0.011 0.038,-0.028 0.05,-0.049 0.01,-0.02 0.017,-0.047 0.02,-0.081 0.004,-0.034 0.005,-0.068 0.005,-0.105 l 0,-0.479 0.142,0 0,0.546 z m 1.334,-0.055 c 0.071,0.027 0.127,0.068 0.168,0.123 0.041,0.054 0.061,0.122 0.061,0.203 0,0.06 -0.011,0.109 -0.034,0.148 -0.023,0.039 -0.055,0.072 -0.095,0.097 -0.037,0.023 -0.077,0.039 -0.123,0.047 -0.045,0.009 -0.101,0.014 -0.169,0.014 l -0.315,0 0,-1.123 0.15,0 0,0.446 0.21,0 0.376,-0.446 0.193,0 -0.422,0.491 z m 0.057,0.211 c -0.011,-0.027 -0.028,-0.051 -0.05,-0.073 -0.025,-0.022 -0.055,-0.038 -0.09,-0.046 -0.035,-0.008 -0.076,-0.012 -0.124,-0.012 l -0.15,0 0,0.423 0.175,0 c 0.04,0 0.075,-0.002 0.105,-0.008 0.03,-0.006 0.055,-0.016 0.077,-0.031 0.026,-0.017 0.045,-0.038 0.056,-0.063 0.012,-0.025 0.017,-0.053 0.017,-0.085 0,-0.043 -0.005,-0.077 -0.016,-0.105 m 1.123,-0.131 c 0,0.055 -0.008,0.1 -0.025,0.137 -0.016,0.037 -0.04,0.066 -0.072,0.09 -0.032,0.023 -0.07,0.04 -0.114,0.05 -0.044,0.01 -0.096,0.014 -0.155,0.014 -0.051,0 -0.103,-0.004 -0.155,-0.013 -0.052,-0.009 -0.092,-0.017 -0.12,-0.025 l 0,-0.144 0.008,0 c 0.049,0.019 0.096,0.033 0.142,0.043 0.045,0.009 0.087,0.014 0.124,0.014 0.031,0 0.06,-0.002 0.088,-0.006 0.028,-0.004 0.053,-0.012 0.073,-0.023 0.021,-0.012 0.037,-0.029 0.048,-0.05 0.012,-0.021 0.017,-0.048 0.017,-0.08 l 0,-0.022 c -0.082,-0.004 -0.159,-0.01 -0.231,-0.018 -0.072,-0.008 -0.134,-0.023 -0.185,-0.046 -0.051,-0.022 -0.09,-0.054 -0.117,-0.093 -0.028,-0.039 -0.041,-0.091 -0.041,-0.155 0,-0.078 0.026,-0.142 0.079,-0.192 0.053,-0.051 0.117,-0.076 0.193,-0.076 0.041,0 0.077,0.004 0.108,0.012 0.03,0.008 0.057,0.017 0.081,0.029 0.02,0.009 0.041,0.021 0.062,0.037 0.022,0.015 0.039,0.027 0.051,0.035 l 0,-0.089 0.141,0 0,0.571 z m -0.255,-0.434 c -0.042,-0.019 -0.087,-0.029 -0.137,-0.029 -0.06,0 -0.104,0.012 -0.133,0.037 -0.03,0.024 -0.044,0.061 -0.044,0.109 0,0.043 0.012,0.076 0.038,0.101 0.025,0.024 0.058,0.042 0.098,0.053 0.035,0.01 0.081,0.017 0.14,0.022 0.058,0.005 0.109,0.009 0.152,0.012 l 0,-0.235 c -0.035,-0.027 -0.073,-0.05 -0.114,-0.07 m 1.233,0.409 c 0,0.104 -0.024,0.182 -0.072,0.237 -0.048,0.055 -0.117,0.082 -0.208,0.082 -0.05,0 -0.098,-0.01 -0.146,-0.03 -0.047,-0.021 -0.093,-0.05 -0.137,-0.086 l 0,0.093 -0.142,0 0,-0.842 0.142,0 0,0.629 c 0.039,0.029 0.079,0.054 0.121,0.073 0.043,0.019 0.083,0.028 0.122,0.028 0.038,0 0.068,-0.005 0.092,-0.015 0.024,-0.01 0.042,-0.026 0.054,-0.047 0.012,-0.019 0.021,-0.046 0.025,-0.08 0.005,-0.034 0.007,-0.07 0.007,-0.109 l 0,-0.479 0.142,0 0,0.546 z m 0.956,0.627 -0.142,0 0,-0.365 c -0.038,0.02 -0.074,0.034 -0.108,0.044 -0.034,0.009 -0.073,0.013 -0.117,0.013 -0.049,0 -0.096,-0.01 -0.142,-0.03 -0.045,-0.02 -0.085,-0.049 -0.119,-0.087 -0.035,-0.039 -0.063,-0.087 -0.083,-0.143 -0.02,-0.056 -0.03,-0.119 -0.03,-0.191 0,-0.137 0.029,-0.244 0.088,-0.322 0.059,-0.077 0.139,-0.116 0.24,-0.116 0.051,0 0.099,0.01 0.144,0.03 0.044,0.019 0.086,0.047 0.127,0.082 l 0,-0.088 0.142,0 0,1.173 z m -0.257,-1.035 c -0.042,-0.018 -0.082,-0.027 -0.122,-0.027 -0.076,0 -0.131,0.026 -0.165,0.078 -0.034,0.052 -0.051,0.128 -0.051,0.229 0,0.101 0.022,0.179 0.066,0.235 0.044,0.055 0.106,0.083 0.186,0.083 0.035,0 0.068,-0.004 0.099,-0.01 0.03,-0.007 0.064,-0.018 0.102,-0.036 l 0,-0.483 c -0.036,-0.028 -0.074,-0.051 -0.115,-0.069" /><path
       d="m 44.88099,86.543 -0.773,0 -1.588,-4.362 0.589,0 0.427,1.216 1.887,0 0.428,-1.216 0.618,0 -1.588,4.362 z m -1.169,-2.648 0.768,2.141 0.764,-2.141 -1.532,0 z m 5.417,1.523 c -0.086,0.014 -0.15,0.023 -0.193,0.028 -0.043,0.005 -0.113,0.007 -0.208,0.007 -0.174,0 -0.345,-0.036 -0.512,-0.11 -0.167,-0.073 -0.359,-0.197 -0.578,-0.373 l 0,0.483 -0.551,0 0,-3.272 0.551,0 0,2.323 c 0.146,0.119 0.299,0.216 0.457,0.291 0.158,0.076 0.322,0.113 0.492,0.113 0.106,0 0.197,-0.004 0.274,-0.013 0.077,-0.009 0.157,-0.023 0.239,-0.042 l 0.029,0 0,0.565 z m 2.218,-2.713 -0.029,0 c -0.043,-0.017 -0.114,-0.039 -0.211,-0.066 -0.098,-0.026 -0.192,-0.039 -0.282,-0.039 -0.154,0 -0.269,0.018 -0.344,0.054 -0.075,0.036 -0.134,0.093 -0.177,0.171 -0.047,0.084 -0.074,0.175 -0.082,0.271 -0.008,0.097 -0.012,0.231 -0.012,0.403 l 0,1.491 1.137,0 0,0.463 -1.137,0 0,0.941 -0.551,0 0,-0.941 -0.372,0 0,-0.463 0.372,0 0,-1.74 c 0,-0.396 0.087,-0.685 0.261,-0.864 0.174,-0.18 0.428,-0.27 0.762,-0.27 0.095,0 0.204,0.009 0.326,0.027 0.122,0.017 0.235,0.04 0.339,0.067 l 0,0.495 z m 1.564,0.311 -0.7,0 0,-0.835 0.7,0 0,0.835 z m 6.027,-0.39 -0.891,0 0,3.932 -0.454,0 c -0.008,-0.127 -0.038,-0.228 -0.089,-0.304 -0.052,-0.075 -0.123,-0.137 -0.213,-0.186 -0.072,-0.039 -0.179,-0.068 -0.319,-0.089 -0.141,-0.02 -0.273,-0.031 -0.396,-0.031 l 0,-0.398 0.909,0 0,-2.924 -0.909,0 0,-0.445 2.362,0 0,0.445 z m 3.372,1.841 c -0.121,0.05 -0.229,0.083 -0.323,0.098 l 0,0.041 c 0.233,0.047 0.434,0.161 0.605,0.342 0.171,0.18 0.257,0.392 0.257,0.634 0,0.178 -0.036,0.333 -0.109,0.466 -0.072,0.133 -0.178,0.246 -0.319,0.34 -0.131,0.086 -0.277,0.148 -0.439,0.187 -0.163,0.039 -0.35,0.059 -0.563,0.059 -0.217,0 -0.441,-0.029 -0.672,-0.087 -0.232,-0.057 -0.417,-0.12 -0.555,-0.189 l 0,-0.612 0.029,0 c 0.185,0.121 0.383,0.215 0.592,0.281 0.209,0.067 0.406,0.1 0.591,0.1 0.122,0 0.23,-0.01 0.326,-0.029 0.095,-0.02 0.185,-0.055 0.269,-0.106 0.08,-0.051 0.143,-0.116 0.188,-0.195 0.045,-0.079 0.067,-0.171 0.067,-0.276 0,-0.239 -0.088,-0.42 -0.265,-0.544 -0.177,-0.124 -0.414,-0.186 -0.711,-0.186 l -0.205,0 0,-0.486 0.264,0 c 0.145,0 0.279,-0.012 0.404,-0.034 0.125,-0.022 0.232,-0.064 0.32,-0.124 0.088,-0.059 0.156,-0.14 0.206,-0.242 0.05,-0.103 0.075,-0.232 0.075,-0.388 0,-0.159 -0.022,-0.289 -0.066,-0.393 -0.044,-0.103 -0.111,-0.198 -0.201,-0.284 -0.086,-0.08 -0.198,-0.141 -0.337,-0.182 -0.138,-0.041 -0.269,-0.061 -0.392,-0.061 -0.209,0 -0.426,0.036 -0.651,0.108 -0.224,0.072 -0.419,0.163 -0.585,0.273 l -0.044,0 0,-0.613 c 0.15,-0.068 0.342,-0.131 0.577,-0.189 0.234,-0.057 0.472,-0.086 0.715,-0.086 0.236,0 0.453,0.033 0.651,0.098 0.199,0.065 0.371,0.167 0.518,0.303 0.13,0.123 0.232,0.268 0.304,0.434 0.072,0.166 0.109,0.348 0.109,0.548 0,0.201 -0.031,0.365 -0.091,0.492 -0.061,0.127 -0.138,0.232 -0.232,0.316 -0.084,0.074 -0.186,0.137 -0.307,0.186 m 4.517,2.076 -2.985,0 0,-0.513 2.484,0 -2.1,-3.849 0.627,0 1.974,3.709"
       style="fill:#000000;fill-opacity:1;fill-rule:nonzero;stroke:none"
       id="path116"
       inkscape:connector-curvature="0" /></g><g
     inkscape:groupmode="layer"
     id="layer2"
     inkscape:label="XX_REFERENZ"
     sodipodi:insensitive="true"
     style="display:inline"><path
       d="m 69.094378,127.55832 c 32.288552,0 58.464562,-26.17476 58.464562,-58.46457 0,-32.288554 -26.17601,-58.463314 -58.464562,-58.463314 -32.288554,0 -58.464567,26.17476 -58.464567,58.463314 0,32.28981 26.176013,58.46457 58.464567,58.46457 z"
       style="color:#000000;fill:#ffd5d5;fill-opacity:1;fill-rule:nonzero;stroke:none;stroke-width:1;marker:none;visibility:visible;display:inline;overflow:visible;enable-background:accumulate"
       id="path52-0"
       inkscape:connector-curvature="0" /><path
       d="m 69.094372,120.47178 c 28.374789,0 51.377958,-23.002067 51.377958,-51.377954 0,-28.374789 -23.003169,-51.376851 -51.377958,-51.376851 -28.374789,0 -51.377951,23.002062 -51.377951,51.376851 0,28.375887 23.003162,51.377954 51.377951,51.377954 z"
       style="color:#000000;fill:#d7f4ee;fill-opacity:1;fill-rule:nonzero;stroke:none;stroke-width:1;marker:none;visibility:visible;display:inline;overflow:visible;enable-background:accumulate"
       id="path52-0-8"
       inkscape:connector-curvature="0" /></g><g
     inkscape:groupmode="layer"
     id="layer4"
     inkscape:label="DRAW" /><g
     inkscape:groupmode="layer"
     id="layer3"
     inkscape:label="XX_COVER"
     style="display:inline"
     sodipodi:insensitive="true"><path
       style="color:#000000;fill:#f2f2f2;fill-opacity:1;fill-rule:nonzero;stroke:none;stroke-width:1;marker:none;visibility:visible;display:inline;overflow:visible;enable-background:accumulate"
       d="m 0,0 0,138.1875 138.1875,0 L 138.1875,0 0,0 z m 69.09375,10.625 c 32.28855,0 58.46875,26.180196 58.46875,58.46875 0,32.28981 -26.1802,58.46875 -58.46875,58.46875 C 36.805196,127.5625 10.625,101.38357 10.625,69.09375 10.625,36.805196 36.805196,10.625 69.09375,10.625 z"
       id="rect3514"
       inkscape:connector-curvature="0" /><path
       d="m 69.094374,128.05414 c 32.562316,0 58.960266,-26.39674 58.960266,-58.960395 0,-32.562388 -26.39795,-58.959132 -58.960266,-58.959132 -32.562316,0 -58.960263,26.396744 -58.960263,58.959132 0,32.563655 26.397947,58.960395 58.960263,58.960395 z"
       style="color:#000000;fill:none;stroke:#999999;stroke-width:1.0084796;stroke-linecap:butt;stroke-linejoin:miter;stroke-miterlimit:4;stroke-opacity:1;stroke-dasharray:none;stroke-dashoffset:0;marker:none;visibility:visible;display:inline;overflow:visible;enable-background:accumulate"
       id="path52-0-86"
       inkscape:connector-curvature="0" /><text
       xml:space="preserve"
       style="font-size:7.57278013px;font-style:normal;font-variant:normal;font-weight:300;font-stretch:normal;text-align:start;line-height:125%;letter-spacing:0px;word-spacing:0px;writing-mode:lr-tb;text-anchor:start;fill:#000000;fill-opacity:1;stroke:none;display:inline;font-family:Source Code Pro;-inkscape-font-specification:Source Code Pro Light"
       x="59.916821"
       y="-7.0397596"
       id="text4591"
       sodipodi:linespacing="125%"><tspan
         sodipodi:role="line"
         id="tspan4593"
         x="59.916821"
         y="-7.0397596">33mm</tspan></text>
<g
       style="display:inline"
       id="g4610"
       transform="translate(3.5431311,-4.3017206)"><path
         id="path4600"
         style="color:#000000;fill:none;stroke:#000000;stroke-width:0.2;stroke-linecap:butt;stroke-linejoin:bevel;stroke-miterlimit:4;stroke-opacity:1;stroke-dasharray:none;stroke-dashoffset:0;marker:none;visibility:visible;display:inline;overflow:visible;enable-background:accumulate"
         d="m 121.9306,-7.135415 1.97787,1.977874 -1.97787,1.977874 m -112.7400864,0 -1.977875,-1.977874 1.977875,-1.977874 m -1.996444,1.977874 46.0298774,0 m 24.654595,0 46.048498,0"
         inkscape:connector-curvature="0"
         sodipodi:nodetypes="cccccccccc" /></g><text
       sodipodi:linespacing="125%"
       id="text4615"
       y="-17.039759"
       x="59.916821"
       style="font-size:7.57278013px;font-style:normal;font-variant:normal;font-weight:300;font-stretch:normal;text-align:start;line-height:125%;letter-spacing:0px;word-spacing:0px;writing-mode:lr-tb;text-anchor:start;fill:#000000;fill-opacity:1;stroke:none;display:inline;font-family:Source Code Pro;-inkscape-font-specification:Source Code Pro Light"
       xml:space="preserve"><tspan
         y="-17.039759"
         x="59.916821"
         id="tspan4617"
         sodipodi:role="line">39mm</tspan></text>
<path
       id="path4625"
       style="color:#000000;fill:none;stroke:#000000;stroke-width:0.2;stroke-linecap:butt;stroke-linejoin:bevel;stroke-miterlimit:4;stroke-opacity:1;stroke-dasharray:none;stroke-dashoffset:0;marker:none;visibility:visible;display:inline;overflow:visible;enable-background:accumulate"
       d="m 136.09184,-21.437136 1.97787,1.977874 -1.97787,1.977874 m -133.9949238,0 -1.97787501,-1.977874 1.97787501,-1.977874 m 80.5366418,1.977874 55.454722,0 m -137.98780781,0 55.45472081,0"
       inkscape:connector-curvature="0"
       sodipodi:nodetypes="cccccccccc" /></g></svg>